<svg width="1363" height="163" viewBox="0 0 1363 163" fill="none" xmlns="http://www.w3.org/2000/svg">
<path d="M0 15C0 6.71573 6.71573 0 15 0H37V163H15C6.71573 163 0 156.284 0 148V15Z" fill="#0087A9"/>
<rect width="1097" height="163" transform="translate(37)" fill="#F0F0F0"/>
<path d="M101.906 53.9219L94.3945 51.2383V48.0859L104.602 52.375V54.6367L101.906 53.9219ZM94.3945 56.1719L101.918 53.4297L104.602 52.7852V55.0352L94.3945 59.3242V56.1719ZM118.137 61H114.422L114.445 58.2578H118.137C119.059 58.2578 119.836 58.0508 120.469 57.6367C121.102 57.2148 121.578 56.6016 121.898 55.7969C122.227 54.9922 122.391 54.0195 122.391 52.8789V52.0469C122.391 51.1719 122.297 50.4023 122.109 49.7383C121.93 49.0742 121.66 48.5156 121.301 48.0625C120.941 47.6094 120.5 47.2695 119.977 47.043C119.453 46.8086 118.852 46.6914 118.172 46.6914H114.352V43.9375H118.172C119.312 43.9375 120.355 44.1328 121.301 44.5234C122.254 44.9062 123.078 45.457 123.773 46.1758C124.469 46.8945 125.004 47.7539 125.379 48.7539C125.762 49.7461 125.953 50.8516 125.953 52.0703V52.8789C125.953 54.0898 125.762 55.1953 125.379 56.1953C125.004 57.1953 124.469 58.0547 123.773 58.7734C123.086 59.4844 122.262 60.0352 121.301 60.4258C120.348 60.8086 119.293 61 118.137 61ZM116.414 43.9375V61H112.898V43.9375H116.414ZM135.141 58.1406V52.4922C135.141 52.0859 135.074 51.7383 134.941 51.4492C134.809 51.1523 134.602 50.9219 134.32 50.7578C134.047 50.5938 133.691 50.5117 133.254 50.5117C132.879 50.5117 132.555 50.5781 132.281 50.7109C132.008 50.8359 131.797 51.0195 131.648 51.2617C131.5 51.4961 131.426 51.7734 131.426 52.0938H128.051C128.051 51.5547 128.176 51.043 128.426 50.5586C128.676 50.0742 129.039 49.6484 129.516 49.2812C129.992 48.9062 130.559 48.6133 131.215 48.4023C131.879 48.1914 132.621 48.0859 133.441 48.0859C134.426 48.0859 135.301 48.25 136.066 48.5781C136.832 48.9062 137.434 49.3984 137.871 50.0547C138.316 50.7109 138.539 51.5312 138.539 52.5156V57.9414C138.539 58.6367 138.582 59.207 138.668 59.6523C138.754 60.0898 138.879 60.4727 139.043 60.8008V61H135.633C135.469 60.6562 135.344 60.2266 135.258 59.7109C135.18 59.1875 135.141 58.6641 135.141 58.1406ZM135.586 53.2773L135.609 55.1875H133.723C133.277 55.1875 132.891 55.2383 132.562 55.3398C132.234 55.4414 131.965 55.5859 131.754 55.7734C131.543 55.9531 131.387 56.1641 131.285 56.4062C131.191 56.6484 131.145 56.9141 131.145 57.2031C131.145 57.4922 131.211 57.7539 131.344 57.9883C131.477 58.2148 131.668 58.3945 131.918 58.5273C132.168 58.6523 132.461 58.7148 132.797 58.7148C133.305 58.7148 133.746 58.6133 134.121 58.4102C134.496 58.207 134.785 57.957 134.988 57.6602C135.199 57.3633 135.309 57.082 135.316 56.8164L136.207 58.2461C136.082 58.5664 135.91 58.8984 135.691 59.2422C135.48 59.5859 135.211 59.9102 134.883 60.2148C134.555 60.5117 134.16 60.7578 133.699 60.9531C133.238 61.1406 132.691 61.2344 132.059 61.2344C131.254 61.2344 130.523 61.0742 129.867 60.7539C129.219 60.4258 128.703 59.9766 128.32 59.4062C127.945 58.8281 127.758 58.1719 127.758 57.4375C127.758 56.7734 127.883 56.1836 128.133 55.668C128.383 55.1523 128.75 54.7188 129.234 54.3672C129.727 54.0078 130.34 53.7383 131.074 53.5586C131.809 53.3711 132.66 53.2773 133.629 53.2773H135.586ZM147.352 48.3203V50.7109H139.969V48.3203H147.352ZM141.797 45.1914H145.172V57.1797C145.172 57.5469 145.219 57.8281 145.312 58.0234C145.414 58.2188 145.562 58.3555 145.758 58.4336C145.953 58.5039 146.199 58.5391 146.496 58.5391C146.707 58.5391 146.895 58.5312 147.059 58.5156C147.23 58.4922 147.375 58.4688 147.492 58.4453L147.504 60.9297C147.215 61.0234 146.902 61.0977 146.566 61.1523C146.23 61.207 145.859 61.2344 145.453 61.2344C144.711 61.2344 144.062 61.1133 143.508 60.8711C142.961 60.6211 142.539 60.2227 142.242 59.6758C141.945 59.1289 141.797 58.4102 141.797 57.5195V45.1914ZM156.117 58.1406V52.4922C156.117 52.0859 156.051 51.7383 155.918 51.4492C155.785 51.1523 155.578 50.9219 155.297 50.7578C155.023 50.5938 154.668 50.5117 154.23 50.5117C153.855 50.5117 153.531 50.5781 153.258 50.7109C152.984 50.8359 152.773 51.0195 152.625 51.2617C152.477 51.4961 152.402 51.7734 152.402 52.0938H149.027C149.027 51.5547 149.152 51.043 149.402 50.5586C149.652 50.0742 150.016 49.6484 150.492 49.2812C150.969 48.9062 151.535 48.6133 152.191 48.4023C152.855 48.1914 153.598 48.0859 154.418 48.0859C155.402 48.0859 156.277 48.25 157.043 48.5781C157.809 48.9062 158.41 49.3984 158.848 50.0547C159.293 50.7109 159.516 51.5312 159.516 52.5156V57.9414C159.516 58.6367 159.559 59.207 159.645 59.6523C159.73 60.0898 159.855 60.4727 160.02 60.8008V61H156.609C156.445 60.6562 156.32 60.2266 156.234 59.7109C156.156 59.1875 156.117 58.6641 156.117 58.1406ZM156.562 53.2773L156.586 55.1875H154.699C154.254 55.1875 153.867 55.2383 153.539 55.3398C153.211 55.4414 152.941 55.5859 152.73 55.7734C152.52 55.9531 152.363 56.1641 152.262 56.4062C152.168 56.6484 152.121 56.9141 152.121 57.2031C152.121 57.4922 152.188 57.7539 152.32 57.9883C152.453 58.2148 152.645 58.3945 152.895 58.5273C153.145 58.6523 153.438 58.7148 153.773 58.7148C154.281 58.7148 154.723 58.6133 155.098 58.4102C155.473 58.207 155.762 57.957 155.965 57.6602C156.176 57.3633 156.285 57.082 156.293 56.8164L157.184 58.2461C157.059 58.5664 156.887 58.8984 156.668 59.2422C156.457 59.5859 156.188 59.9102 155.859 60.2148C155.531 60.5117 155.137 60.7578 154.676 60.9531C154.215 61.1406 153.668 61.2344 153.035 61.2344C152.23 61.2344 151.5 61.0742 150.844 60.7539C150.195 60.4258 149.68 59.9766 149.297 59.4062C148.922 58.8281 148.734 58.1719 148.734 57.4375C148.734 56.7734 148.859 56.1836 149.109 55.668C149.359 55.1523 149.727 54.7188 150.211 54.3672C150.703 54.0078 151.316 53.7383 152.051 53.5586C152.785 53.3711 153.637 53.2773 154.605 53.2773H156.562ZM175.207 55.7617V43.9375H178.711V55.7617C178.711 56.9023 178.461 57.8828 177.961 58.7031C177.461 59.5156 176.777 60.1406 175.91 60.5781C175.051 61.0156 174.082 61.2344 173.004 61.2344C171.887 61.2344 170.898 61.0469 170.039 60.6719C169.18 60.2969 168.504 59.7227 168.012 58.9492C167.52 58.168 167.273 57.1797 167.273 55.9844H170.801C170.801 56.6094 170.887 57.1055 171.059 57.4727C171.238 57.8398 171.492 58.1016 171.82 58.2578C172.148 58.4141 172.543 58.4922 173.004 58.4922C173.449 58.4922 173.836 58.3867 174.164 58.1758C174.492 57.9648 174.746 57.6562 174.926 57.25C175.113 56.8438 175.207 56.3477 175.207 55.7617ZM180.961 54.7891V54.543C180.961 53.6133 181.094 52.7578 181.359 51.9766C181.625 51.1875 182.012 50.5039 182.52 49.9258C183.027 49.3477 183.652 48.8984 184.395 48.5781C185.137 48.25 185.988 48.0859 186.949 48.0859C187.91 48.0859 188.766 48.25 189.516 48.5781C190.266 48.8984 190.895 49.3477 191.402 49.9258C191.918 50.5039 192.309 51.1875 192.574 51.9766C192.84 52.7578 192.973 53.6133 192.973 54.543V54.7891C192.973 55.7109 192.84 56.5664 192.574 57.3555C192.309 58.1367 191.918 58.8203 191.402 59.4062C190.895 59.9844 190.27 60.4336 189.527 60.7539C188.785 61.0742 187.934 61.2344 186.973 61.2344C186.012 61.2344 185.156 61.0742 184.406 60.7539C183.664 60.4336 183.035 59.9844 182.52 59.4062C182.012 58.8203 181.625 58.1367 181.359 57.3555C181.094 56.5664 180.961 55.7109 180.961 54.7891ZM184.336 54.543V54.7891C184.336 55.3203 184.383 55.8164 184.477 56.2773C184.57 56.7383 184.719 57.1445 184.922 57.4961C185.133 57.8398 185.406 58.1094 185.742 58.3047C186.078 58.5 186.488 58.5977 186.973 58.5977C187.441 58.5977 187.844 58.5 188.18 58.3047C188.516 58.1094 188.785 57.8398 188.988 57.4961C189.191 57.1445 189.34 56.7383 189.434 56.2773C189.535 55.8164 189.586 55.3203 189.586 54.7891V54.543C189.586 54.0273 189.535 53.543 189.434 53.0898C189.34 52.6289 189.188 52.2227 188.977 51.8711C188.773 51.5117 188.504 51.2305 188.168 51.0273C187.832 50.8242 187.426 50.7227 186.949 50.7227C186.473 50.7227 186.066 50.8242 185.73 51.0273C185.402 51.2305 185.133 51.5117 184.922 51.8711C184.719 52.2227 184.57 52.6289 184.477 53.0898C184.383 53.543 184.336 54.0273 184.336 54.543ZM195.047 43H198.422V58.0938L198.082 61H195.047V43ZM206.449 54.5312V54.7773C206.449 55.7227 206.348 56.5898 206.145 57.3789C205.949 58.168 205.645 58.8516 205.23 59.4297C204.816 60 204.301 60.4453 203.684 60.7656C203.074 61.0781 202.355 61.2344 201.527 61.2344C200.754 61.2344 200.082 61.0781 199.512 60.7656C198.949 60.4531 198.477 60.0117 198.094 59.4414C197.711 58.8711 197.402 58.2031 197.168 57.4375C196.934 56.6719 196.758 55.8359 196.641 54.9297V54.3906C196.758 53.4844 196.934 52.6484 197.168 51.8828C197.402 51.1172 197.711 50.4492 198.094 49.8789C198.477 49.3086 198.949 48.8672 199.512 48.5547C200.074 48.2422 200.738 48.0859 201.504 48.0859C202.34 48.0859 203.066 48.2461 203.684 48.5664C204.309 48.8789 204.824 49.3242 205.23 49.9023C205.645 50.4727 205.949 51.1523 206.145 51.9414C206.348 52.7227 206.449 53.5859 206.449 54.5312ZM203.074 54.7773V54.5312C203.074 54.0156 203.035 53.5312 202.957 53.0781C202.887 52.6172 202.762 52.2148 202.582 51.8711C202.402 51.5195 202.156 51.2422 201.844 51.0391C201.539 50.8359 201.145 50.7344 200.66 50.7344C200.199 50.7344 199.809 50.8125 199.488 50.9688C199.168 51.125 198.902 51.3438 198.691 51.625C198.488 51.9062 198.336 52.2422 198.234 52.6328C198.133 53.0156 198.07 53.4375 198.047 53.8984V55.4336C198.07 56.0508 198.172 56.5977 198.352 57.0742C198.539 57.543 198.82 57.9141 199.195 58.1875C199.578 58.4531 200.074 58.5859 200.684 58.5859C201.16 58.5859 201.555 58.4922 201.867 58.3047C202.18 58.1172 202.422 57.8516 202.594 57.5078C202.773 57.1641 202.898 56.7617 202.969 56.3008C203.039 55.832 203.074 55.3242 203.074 54.7773ZM215.402 57.4961C215.402 57.2539 215.332 57.0352 215.191 56.8398C215.051 56.6445 214.789 56.4648 214.406 56.3008C214.031 56.1289 213.488 55.9727 212.777 55.832C212.137 55.6914 211.539 55.5156 210.984 55.3047C210.438 55.0859 209.961 54.8242 209.555 54.5195C209.156 54.2148 208.844 53.8555 208.617 53.4414C208.391 53.0195 208.277 52.5391 208.277 52C208.277 51.4688 208.391 50.9688 208.617 50.5C208.852 50.0312 209.184 49.6172 209.613 49.2578C210.051 48.8906 210.582 48.6055 211.207 48.4023C211.84 48.1914 212.551 48.0859 213.34 48.0859C214.441 48.0859 215.387 48.2617 216.176 48.6133C216.973 48.9648 217.582 49.4492 218.004 50.0664C218.434 50.6758 218.648 51.3711 218.648 52.1523H215.273C215.273 51.8242 215.203 51.5312 215.062 51.2734C214.93 51.0078 214.719 50.8008 214.43 50.6523C214.148 50.4961 213.781 50.418 213.328 50.418C212.953 50.418 212.629 50.4844 212.355 50.6172C212.082 50.7422 211.871 50.9141 211.723 51.1328C211.582 51.3438 211.512 51.5781 211.512 51.8359C211.512 52.0312 211.551 52.207 211.629 52.3633C211.715 52.5117 211.852 52.6484 212.039 52.7734C212.227 52.8984 212.469 53.0156 212.766 53.125C213.07 53.2266 213.445 53.3203 213.891 53.4062C214.805 53.5938 215.621 53.8398 216.34 54.1445C217.059 54.4414 217.629 54.8477 218.051 55.3633C218.473 55.8711 218.684 56.5391 218.684 57.3672C218.684 57.9297 218.559 58.4453 218.309 58.9141C218.059 59.3828 217.699 59.793 217.23 60.1445C216.762 60.4883 216.199 60.7578 215.543 60.9531C214.895 61.1406 214.164 61.2344 213.352 61.2344C212.172 61.2344 211.172 61.0234 210.352 60.6016C209.539 60.1797 208.922 59.6445 208.5 58.9961C208.086 58.3398 207.879 57.668 207.879 56.9805H211.078C211.094 57.4414 211.211 57.8125 211.43 58.0938C211.656 58.375 211.941 58.5781 212.285 58.7031C212.637 58.8281 213.016 58.8906 213.422 58.8906C213.859 58.8906 214.223 58.832 214.512 58.7148C214.801 58.5898 215.02 58.4258 215.168 58.2227C215.324 58.0117 215.402 57.7695 215.402 57.4961ZM228.668 43.9375H231.645L236.027 56.4648L240.41 43.9375H243.387L237.223 61H234.832L228.668 43.9375ZM227.062 43.9375H230.027L230.566 56.1484V61H227.062V43.9375ZM242.027 43.9375H245.004V61H241.488V56.1484L242.027 43.9375ZM254.719 58.1406V52.4922C254.719 52.0859 254.652 51.7383 254.52 51.4492C254.387 51.1523 254.18 50.9219 253.898 50.7578C253.625 50.5938 253.27 50.5117 252.832 50.5117C252.457 50.5117 252.133 50.5781 251.859 50.7109C251.586 50.8359 251.375 51.0195 251.227 51.2617C251.078 51.4961 251.004 51.7734 251.004 52.0938H247.629C247.629 51.5547 247.754 51.043 248.004 50.5586C248.254 50.0742 248.617 49.6484 249.094 49.2812C249.57 48.9062 250.137 48.6133 250.793 48.4023C251.457 48.1914 252.199 48.0859 253.02 48.0859C254.004 48.0859 254.879 48.25 255.645 48.5781C256.41 48.9062 257.012 49.3984 257.449 50.0547C257.895 50.7109 258.117 51.5312 258.117 52.5156V57.9414C258.117 58.6367 258.16 59.207 258.246 59.6523C258.332 60.0898 258.457 60.4727 258.621 60.8008V61H255.211C255.047 60.6562 254.922 60.2266 254.836 59.7109C254.758 59.1875 254.719 58.6641 254.719 58.1406ZM255.164 53.2773L255.188 55.1875H253.301C252.855 55.1875 252.469 55.2383 252.141 55.3398C251.812 55.4414 251.543 55.5859 251.332 55.7734C251.121 55.9531 250.965 56.1641 250.863 56.4062C250.77 56.6484 250.723 56.9141 250.723 57.2031C250.723 57.4922 250.789 57.7539 250.922 57.9883C251.055 58.2148 251.246 58.3945 251.496 58.5273C251.746 58.6523 252.039 58.7148 252.375 58.7148C252.883 58.7148 253.324 58.6133 253.699 58.4102C254.074 58.207 254.363 57.957 254.566 57.6602C254.777 57.3633 254.887 57.082 254.895 56.8164L255.785 58.2461C255.66 58.5664 255.488 58.8984 255.27 59.2422C255.059 59.5859 254.789 59.9102 254.461 60.2148C254.133 60.5117 253.738 60.7578 253.277 60.9531C252.816 61.1406 252.27 61.2344 251.637 61.2344C250.832 61.2344 250.102 61.0742 249.445 60.7539C248.797 60.4258 248.281 59.9766 247.898 59.4062C247.523 58.8281 247.336 58.1719 247.336 57.4375C247.336 56.7734 247.461 56.1836 247.711 55.668C247.961 55.1523 248.328 54.7188 248.812 54.3672C249.305 54.0078 249.918 53.7383 250.652 53.5586C251.387 53.3711 252.238 53.2773 253.207 53.2773H255.164ZM264.094 51.0859V61H260.719V48.3203H263.895L264.094 51.0859ZM267.914 48.2383L267.855 51.3672C267.691 51.3438 267.492 51.3242 267.258 51.3086C267.031 51.2852 266.824 51.2734 266.637 51.2734C266.16 51.2734 265.746 51.3359 265.395 51.4609C265.051 51.5781 264.762 51.7539 264.527 51.9883C264.301 52.2227 264.129 52.5078 264.012 52.8438C263.902 53.1797 263.84 53.5625 263.824 53.9922L263.145 53.7812C263.145 52.9609 263.227 52.207 263.391 51.5195C263.555 50.8242 263.793 50.2188 264.105 49.7031C264.426 49.1875 264.816 48.7891 265.277 48.5078C265.738 48.2266 266.266 48.0859 266.859 48.0859C267.047 48.0859 267.238 48.1016 267.434 48.1328C267.629 48.1562 267.789 48.1914 267.914 48.2383ZM272.883 42.9883V61H269.508V42.9883H272.883ZM280.875 48.3203L275.367 54.6016L272.414 57.5898L271.184 55.1523L273.527 52.1758L276.82 48.3203H280.875ZM277.371 61L273.621 55.1406L275.953 53.1016L281.262 61H277.371ZM287.93 61.2344C286.945 61.2344 286.062 61.0781 285.281 60.7656C284.5 60.4453 283.836 60.0039 283.289 59.4414C282.75 58.8789 282.336 58.2266 282.047 57.4844C281.758 56.7344 281.613 55.9375 281.613 55.0938V54.625C281.613 53.6641 281.75 52.7852 282.023 51.9883C282.297 51.1914 282.688 50.5 283.195 49.9141C283.711 49.3281 284.336 48.8789 285.07 48.5664C285.805 48.2461 286.633 48.0859 287.555 48.0859C288.453 48.0859 289.25 48.2344 289.945 48.5312C290.641 48.8281 291.223 49.25 291.691 49.7969C292.168 50.3438 292.527 51 292.77 51.7656C293.012 52.5234 293.133 53.3672 293.133 54.2969V55.7031H283.055V53.4531H289.816V53.1953C289.816 52.7266 289.73 52.3086 289.559 51.9414C289.395 51.5664 289.145 51.2695 288.809 51.0508C288.473 50.832 288.043 50.7227 287.52 50.7227C287.074 50.7227 286.691 50.8203 286.371 51.0156C286.051 51.2109 285.789 51.4844 285.586 51.8359C285.391 52.1875 285.242 52.6016 285.141 53.0781C285.047 53.5469 285 54.0625 285 54.625V55.0938C285 55.6016 285.07 56.0703 285.211 56.5C285.359 56.9297 285.566 57.3008 285.832 57.6133C286.105 57.9258 286.434 58.168 286.816 58.3398C287.207 58.5117 287.648 58.5977 288.141 58.5977C288.75 58.5977 289.316 58.4805 289.84 58.2461C290.371 58.0039 290.828 57.6406 291.211 57.1562L292.852 58.9375C292.586 59.3203 292.223 59.6875 291.762 60.0391C291.309 60.3906 290.762 60.6797 290.121 60.9062C289.48 61.125 288.75 61.2344 287.93 61.2344ZM301.266 48.3203V50.7109H293.883V48.3203H301.266ZM295.711 45.1914H299.086V57.1797C299.086 57.5469 299.133 57.8281 299.227 58.0234C299.328 58.2188 299.477 58.3555 299.672 58.4336C299.867 58.5039 300.113 58.5391 300.41 58.5391C300.621 58.5391 300.809 58.5312 300.973 58.5156C301.145 58.4922 301.289 58.4688 301.406 58.4453L301.418 60.9297C301.129 61.0234 300.816 61.0977 300.48 61.1523C300.145 61.207 299.773 61.2344 299.367 61.2344C298.625 61.2344 297.977 61.1133 297.422 60.8711C296.875 60.6211 296.453 60.2227 296.156 59.6758C295.859 59.1289 295.711 58.4102 295.711 57.5195V45.1914ZM316.312 46.8555L311.672 61H307.934L314.273 43.9375H316.652L316.312 46.8555ZM320.168 61L315.516 46.8555L315.141 43.9375H317.543L323.918 61H320.168ZM319.957 54.6484V57.4023H310.945V54.6484H319.957ZM328.219 51.0273V61H324.844V48.3203H328.008L328.219 51.0273ZM327.727 54.2148H326.812C326.812 53.2773 326.934 52.4336 327.176 51.6836C327.418 50.9258 327.758 50.2812 328.195 49.75C328.633 49.2109 329.152 48.8008 329.754 48.5195C330.363 48.2305 331.043 48.0859 331.793 48.0859C332.387 48.0859 332.93 48.1719 333.422 48.3438C333.914 48.5156 334.336 48.7891 334.688 49.1641C335.047 49.5391 335.32 50.0352 335.508 50.6523C335.703 51.2695 335.801 52.0234 335.801 52.9141V61H332.402V52.9023C332.402 52.3398 332.324 51.9023 332.168 51.5898C332.012 51.2773 331.781 51.0586 331.477 50.9336C331.18 50.8008 330.812 50.7344 330.375 50.7344C329.922 50.7344 329.527 50.8242 329.191 51.0039C328.863 51.1836 328.59 51.4336 328.371 51.7539C328.16 52.0664 328 52.4336 327.891 52.8555C327.781 53.2773 327.727 53.7305 327.727 54.2148ZM345.211 58.1406V52.4922C345.211 52.0859 345.145 51.7383 345.012 51.4492C344.879 51.1523 344.672 50.9219 344.391 50.7578C344.117 50.5938 343.762 50.5117 343.324 50.5117C342.949 50.5117 342.625 50.5781 342.352 50.7109C342.078 50.8359 341.867 51.0195 341.719 51.2617C341.57 51.4961 341.496 51.7734 341.496 52.0938H338.121C338.121 51.5547 338.246 51.043 338.496 50.5586C338.746 50.0742 339.109 49.6484 339.586 49.2812C340.062 48.9062 340.629 48.6133 341.285 48.4023C341.949 48.1914 342.691 48.0859 343.512 48.0859C344.496 48.0859 345.371 48.25 346.137 48.5781C346.902 48.9062 347.504 49.3984 347.941 50.0547C348.387 50.7109 348.609 51.5312 348.609 52.5156V57.9414C348.609 58.6367 348.652 59.207 348.738 59.6523C348.824 60.0898 348.949 60.4727 349.113 60.8008V61H345.703C345.539 60.6562 345.414 60.2266 345.328 59.7109C345.25 59.1875 345.211 58.6641 345.211 58.1406ZM345.656 53.2773L345.68 55.1875H343.793C343.348 55.1875 342.961 55.2383 342.633 55.3398C342.305 55.4414 342.035 55.5859 341.824 55.7734C341.613 55.9531 341.457 56.1641 341.355 56.4062C341.262 56.6484 341.215 56.9141 341.215 57.2031C341.215 57.4922 341.281 57.7539 341.414 57.9883C341.547 58.2148 341.738 58.3945 341.988 58.5273C342.238 58.6523 342.531 58.7148 342.867 58.7148C343.375 58.7148 343.816 58.6133 344.191 58.4102C344.566 58.207 344.855 57.957 345.059 57.6602C345.27 57.3633 345.379 57.082 345.387 56.8164L346.277 58.2461C346.152 58.5664 345.98 58.8984 345.762 59.2422C345.551 59.5859 345.281 59.9102 344.953 60.2148C344.625 60.5117 344.23 60.7578 343.77 60.9531C343.309 61.1406 342.762 61.2344 342.129 61.2344C341.324 61.2344 340.594 61.0742 339.938 60.7539C339.289 60.4258 338.773 59.9766 338.391 59.4062C338.016 58.8281 337.828 58.1719 337.828 57.4375C337.828 56.7734 337.953 56.1836 338.203 55.668C338.453 55.1523 338.82 54.7188 339.305 54.3672C339.797 54.0078 340.41 53.7383 341.145 53.5586C341.879 53.3711 342.73 53.2773 343.699 53.2773H345.656ZM354.773 43V61H351.387V43H354.773ZM361.324 59.5703L364.688 48.3203H368.309L363.211 62.9102C363.102 63.2305 362.953 63.5742 362.766 63.9414C362.586 64.3086 362.34 64.6562 362.027 64.9844C361.723 65.3203 361.336 65.5938 360.867 65.8047C360.406 66.0156 359.84 66.1211 359.168 66.1211C358.848 66.1211 358.586 66.1016 358.383 66.0625C358.18 66.0234 357.938 65.9688 357.656 65.8984V63.4258C357.742 63.4258 357.832 63.4258 357.926 63.4258C358.02 63.4336 358.109 63.4375 358.195 63.4375C358.641 63.4375 359.004 63.3867 359.285 63.2852C359.566 63.1836 359.793 63.0273 359.965 62.8164C360.137 62.6133 360.273 62.3477 360.375 62.0195L361.324 59.5703ZM359.918 48.3203L362.672 57.5078L363.152 61.082L360.855 61.3281L356.297 48.3203H359.918ZM376.512 57.4961C376.512 57.2539 376.441 57.0352 376.301 56.8398C376.16 56.6445 375.898 56.4648 375.516 56.3008C375.141 56.1289 374.598 55.9727 373.887 55.832C373.246 55.6914 372.648 55.5156 372.094 55.3047C371.547 55.0859 371.07 54.8242 370.664 54.5195C370.266 54.2148 369.953 53.8555 369.727 53.4414C369.5 53.0195 369.387 52.5391 369.387 52C369.387 51.4688 369.5 50.9688 369.727 50.5C369.961 50.0312 370.293 49.6172 370.723 49.2578C371.16 48.8906 371.691 48.6055 372.316 48.4023C372.949 48.1914 373.66 48.0859 374.449 48.0859C375.551 48.0859 376.496 48.2617 377.285 48.6133C378.082 48.9648 378.691 49.4492 379.113 50.0664C379.543 50.6758 379.758 51.3711 379.758 52.1523H376.383C376.383 51.8242 376.312 51.5312 376.172 51.2734C376.039 51.0078 375.828 50.8008 375.539 50.6523C375.258 50.4961 374.891 50.418 374.438 50.418C374.062 50.418 373.738 50.4844 373.465 50.6172C373.191 50.7422 372.98 50.9141 372.832 51.1328C372.691 51.3438 372.621 51.5781 372.621 51.8359C372.621 52.0312 372.66 52.207 372.738 52.3633C372.824 52.5117 372.961 52.6484 373.148 52.7734C373.336 52.8984 373.578 53.0156 373.875 53.125C374.18 53.2266 374.555 53.3203 375 53.4062C375.914 53.5938 376.73 53.8398 377.449 54.1445C378.168 54.4414 378.738 54.8477 379.16 55.3633C379.582 55.8711 379.793 56.5391 379.793 57.3672C379.793 57.9297 379.668 58.4453 379.418 58.9141C379.168 59.3828 378.809 59.793 378.34 60.1445C377.871 60.4883 377.309 60.7578 376.652 60.9531C376.004 61.1406 375.273 61.2344 374.461 61.2344C373.281 61.2344 372.281 61.0234 371.461 60.6016C370.648 60.1797 370.031 59.6445 369.609 58.9961C369.195 58.3398 368.988 57.668 368.988 56.9805H372.188C372.203 57.4414 372.32 57.8125 372.539 58.0938C372.766 58.375 373.051 58.5781 373.395 58.7031C373.746 58.8281 374.125 58.8906 374.531 58.8906C374.969 58.8906 375.332 58.832 375.621 58.7148C375.91 58.5898 376.129 58.4258 376.277 58.2227C376.434 58.0117 376.512 57.7695 376.512 57.4961ZM385.547 48.3203V61H382.16V48.3203H385.547ZM381.949 45.0156C381.949 44.5234 382.121 44.1172 382.465 43.7969C382.809 43.4766 383.27 43.3164 383.848 43.3164C384.418 43.3164 384.875 43.4766 385.219 43.7969C385.57 44.1172 385.746 44.5234 385.746 45.0156C385.746 45.5078 385.57 45.9141 385.219 46.2344C384.875 46.5547 384.418 46.7148 383.848 46.7148C383.27 46.7148 382.809 46.5547 382.465 46.2344C382.121 45.9141 381.949 45.5078 381.949 45.0156ZM395.191 57.4961C395.191 57.2539 395.121 57.0352 394.98 56.8398C394.84 56.6445 394.578 56.4648 394.195 56.3008C393.82 56.1289 393.277 55.9727 392.566 55.832C391.926 55.6914 391.328 55.5156 390.773 55.3047C390.227 55.0859 389.75 54.8242 389.344 54.5195C388.945 54.2148 388.633 53.8555 388.406 53.4414C388.18 53.0195 388.066 52.5391 388.066 52C388.066 51.4688 388.18 50.9688 388.406 50.5C388.641 50.0312 388.973 49.6172 389.402 49.2578C389.84 48.8906 390.371 48.6055 390.996 48.4023C391.629 48.1914 392.34 48.0859 393.129 48.0859C394.23 48.0859 395.176 48.2617 395.965 48.6133C396.762 48.9648 397.371 49.4492 397.793 50.0664C398.223 50.6758 398.438 51.3711 398.438 52.1523H395.062C395.062 51.8242 394.992 51.5312 394.852 51.2734C394.719 51.0078 394.508 50.8008 394.219 50.6523C393.938 50.4961 393.57 50.418 393.117 50.418C392.742 50.418 392.418 50.4844 392.145 50.6172C391.871 50.7422 391.66 50.9141 391.512 51.1328C391.371 51.3438 391.301 51.5781 391.301 51.8359C391.301 52.0312 391.34 52.207 391.418 52.3633C391.504 52.5117 391.641 52.6484 391.828 52.7734C392.016 52.8984 392.258 53.0156 392.555 53.125C392.859 53.2266 393.234 53.3203 393.68 53.4062C394.594 53.5938 395.41 53.8398 396.129 54.1445C396.848 54.4414 397.418 54.8477 397.84 55.3633C398.262 55.8711 398.473 56.5391 398.473 57.3672C398.473 57.9297 398.348 58.4453 398.098 58.9141C397.848 59.3828 397.488 59.793 397.02 60.1445C396.551 60.4883 395.988 60.7578 395.332 60.9531C394.684 61.1406 393.953 61.2344 393.141 61.2344C391.961 61.2344 390.961 61.0234 390.141 60.6016C389.328 60.1797 388.711 59.6445 388.289 58.9961C387.875 58.3398 387.668 57.668 387.668 56.9805H390.867C390.883 57.4414 391 57.8125 391.219 58.0938C391.445 58.375 391.73 58.5781 392.074 58.7031C392.426 58.8281 392.805 58.8906 393.211 58.8906C393.648 58.8906 394.012 58.832 394.301 58.7148C394.59 58.5898 394.809 58.4258 394.957 58.2227C395.113 58.0117 395.191 57.7695 395.191 57.4961Z" fill="#888888"/>
<path d="M104.344 84.875V119H96.1406V84.875H104.344ZM117.727 99.0078V119H109.828V93.6406H117.234L117.727 99.0078ZM116.766 105.453L114.961 105.5C114.961 103.719 115.172 102.078 115.594 100.578C116.016 99.0781 116.641 97.7734 117.469 96.6641C118.297 95.5547 119.312 94.6953 120.516 94.0859C121.734 93.4766 123.141 93.1719 124.734 93.1719C125.844 93.1719 126.852 93.3438 127.758 93.6875C128.664 94.0156 129.445 94.5391 130.102 95.2578C130.758 95.9609 131.258 96.8828 131.602 98.0234C131.961 99.1484 132.141 100.5 132.141 102.078V119H124.242V103.086C124.242 102.008 124.117 101.195 123.867 100.648C123.633 100.102 123.289 99.7344 122.836 99.5469C122.383 99.3594 121.828 99.2656 121.172 99.2656C120.484 99.2656 119.867 99.4219 119.32 99.7344C118.773 100.047 118.305 100.484 117.914 101.047C117.539 101.594 117.25 102.242 117.047 102.992C116.859 103.742 116.766 104.562 116.766 105.453ZM131.25 105.453L129.047 105.5C129.047 103.719 129.242 102.078 129.633 100.578C130.039 99.0781 130.641 97.7734 131.438 96.6641C132.25 95.5547 133.258 94.6953 134.461 94.0859C135.664 93.4766 137.062 93.1719 138.656 93.1719C139.812 93.1719 140.875 93.3438 141.844 93.6875C142.812 94.0312 143.648 94.5859 144.352 95.3516C145.055 96.1172 145.602 97.1328 145.992 98.3984C146.383 99.6484 146.578 101.195 146.578 103.039V119H138.656V103.039C138.656 101.992 138.531 101.203 138.281 100.672C138.047 100.125 137.703 99.7578 137.25 99.5703C136.797 99.3672 136.258 99.2656 135.633 99.2656C134.883 99.2656 134.234 99.4219 133.688 99.7344C133.141 100.047 132.68 100.484 132.305 101.047C131.945 101.594 131.68 102.242 131.508 102.992C131.336 103.742 131.25 104.562 131.25 105.453ZM159.07 98.5156V128.75H151.172V93.6406H158.531L159.07 98.5156ZM174.633 106.016V106.508C174.633 108.352 174.422 110.062 174 111.641C173.578 113.219 172.953 114.594 172.125 115.766C171.297 116.938 170.266 117.852 169.031 118.508C167.812 119.148 166.398 119.469 164.789 119.469C163.273 119.469 161.969 119.133 160.875 118.461C159.781 117.789 158.867 116.859 158.133 115.672C157.398 114.484 156.805 113.125 156.352 111.594C155.898 110.062 155.539 108.445 155.273 106.742V106.109C155.539 104.281 155.898 102.586 156.352 101.023C156.805 99.4453 157.398 98.0703 158.133 96.8984C158.867 95.7266 159.773 94.8125 160.852 94.1562C161.945 93.5 163.25 93.1719 164.766 93.1719C166.375 93.1719 167.789 93.4766 169.008 94.0859C170.242 94.6953 171.273 95.5703 172.102 96.7109C172.945 97.8359 173.578 99.1875 174 100.766C174.422 102.344 174.633 104.094 174.633 106.016ZM166.734 106.508V106.016C166.734 105.031 166.664 104.133 166.523 103.32C166.383 102.492 166.156 101.773 165.844 101.164C165.547 100.555 165.148 100.086 164.648 99.7578C164.148 99.4297 163.531 99.2656 162.797 99.2656C161.953 99.2656 161.242 99.3984 160.664 99.6641C160.102 99.9141 159.648 100.305 159.305 100.836C158.977 101.352 158.742 102 158.602 102.781C158.477 103.547 158.422 104.445 158.438 105.477V107.398C158.406 108.586 158.523 109.633 158.789 110.539C159.055 111.43 159.516 112.125 160.172 112.625C160.828 113.125 161.719 113.375 162.844 113.375C163.594 113.375 164.219 113.203 164.719 112.859C165.219 112.5 165.617 112.008 165.914 111.383C166.211 110.742 166.422 110.008 166.547 109.18C166.672 108.352 166.734 107.461 166.734 106.508ZM186.492 83V119H178.57V83H186.492ZM203.648 119.469C201.586 119.469 199.742 119.148 198.117 118.508C196.492 117.852 195.117 116.953 193.992 115.812C192.883 114.672 192.031 113.359 191.438 111.875C190.859 110.391 190.57 108.82 190.57 107.164V106.273C190.57 104.414 190.828 102.695 191.344 101.117C191.859 99.5234 192.625 98.1328 193.641 96.9453C194.656 95.7578 195.93 94.8359 197.461 94.1797C198.992 93.5078 200.773 93.1719 202.805 93.1719C204.602 93.1719 206.211 93.4609 207.633 94.0391C209.055 94.6172 210.258 95.4453 211.242 96.5234C212.242 97.6016 213 98.9062 213.516 100.438C214.047 101.969 214.312 103.688 214.312 105.594V108.805H193.594V103.859H206.602V103.25C206.617 102.406 206.469 101.688 206.156 101.094C205.859 100.5 205.422 100.047 204.844 99.7344C204.266 99.4219 203.562 99.2656 202.734 99.2656C201.875 99.2656 201.164 99.4531 200.602 99.8281C200.055 100.203 199.625 100.719 199.312 101.375C199.016 102.016 198.805 102.758 198.68 103.602C198.555 104.445 198.492 105.336 198.492 106.273V107.164C198.492 108.102 198.617 108.953 198.867 109.719C199.133 110.484 199.508 111.141 199.992 111.688C200.492 112.219 201.086 112.633 201.773 112.93C202.477 113.227 203.273 113.375 204.164 113.375C205.242 113.375 206.305 113.172 207.352 112.766C208.398 112.359 209.297 111.688 210.047 110.75L213.633 115.016C213.117 115.75 212.383 116.461 211.43 117.148C210.492 117.836 209.367 118.398 208.055 118.836C206.742 119.258 205.273 119.469 203.648 119.469ZM225.492 99.0078V119H217.594V93.6406H225L225.492 99.0078ZM224.531 105.453L222.727 105.5C222.727 103.719 222.938 102.078 223.359 100.578C223.781 99.0781 224.406 97.7734 225.234 96.6641C226.062 95.5547 227.078 94.6953 228.281 94.0859C229.5 93.4766 230.906 93.1719 232.5 93.1719C233.609 93.1719 234.617 93.3438 235.523 93.6875C236.43 94.0156 237.211 94.5391 237.867 95.2578C238.523 95.9609 239.023 96.8828 239.367 98.0234C239.727 99.1484 239.906 100.5 239.906 102.078V119H232.008V103.086C232.008 102.008 231.883 101.195 231.633 100.648C231.398 100.102 231.055 99.7344 230.602 99.5469C230.148 99.3594 229.594 99.2656 228.938 99.2656C228.25 99.2656 227.633 99.4219 227.086 99.7344C226.539 100.047 226.07 100.484 225.68 101.047C225.305 101.594 225.016 102.242 224.812 102.992C224.625 103.742 224.531 104.562 224.531 105.453ZM239.016 105.453L236.812 105.5C236.812 103.719 237.008 102.078 237.398 100.578C237.805 99.0781 238.406 97.7734 239.203 96.6641C240.016 95.5547 241.023 94.6953 242.227 94.0859C243.43 93.4766 244.828 93.1719 246.422 93.1719C247.578 93.1719 248.641 93.3438 249.609 93.6875C250.578 94.0312 251.414 94.5859 252.117 95.3516C252.82 96.1172 253.367 97.1328 253.758 98.3984C254.148 99.6484 254.344 101.195 254.344 103.039V119H246.422V103.039C246.422 101.992 246.297 101.203 246.047 100.672C245.812 100.125 245.469 99.7578 245.016 99.5703C244.562 99.3672 244.023 99.2656 243.398 99.2656C242.648 99.2656 242 99.4219 241.453 99.7344C240.906 100.047 240.445 100.484 240.07 101.047C239.711 101.594 239.445 102.242 239.273 102.992C239.102 103.742 239.016 104.562 239.016 105.453ZM271.148 119.469C269.086 119.469 267.242 119.148 265.617 118.508C263.992 117.852 262.617 116.953 261.492 115.812C260.383 114.672 259.531 113.359 258.938 111.875C258.359 110.391 258.07 108.82 258.07 107.164V106.273C258.07 104.414 258.328 102.695 258.844 101.117C259.359 99.5234 260.125 98.1328 261.141 96.9453C262.156 95.7578 263.43 94.8359 264.961 94.1797C266.492 93.5078 268.273 93.1719 270.305 93.1719C272.102 93.1719 273.711 93.4609 275.133 94.0391C276.555 94.6172 277.758 95.4453 278.742 96.5234C279.742 97.6016 280.5 98.9062 281.016 100.438C281.547 101.969 281.812 103.688 281.812 105.594V108.805H261.094V103.859H274.102V103.25C274.117 102.406 273.969 101.688 273.656 101.094C273.359 100.5 272.922 100.047 272.344 99.7344C271.766 99.4219 271.062 99.2656 270.234 99.2656C269.375 99.2656 268.664 99.4531 268.102 99.8281C267.555 100.203 267.125 100.719 266.812 101.375C266.516 102.016 266.305 102.758 266.18 103.602C266.055 104.445 265.992 105.336 265.992 106.273V107.164C265.992 108.102 266.117 108.953 266.367 109.719C266.633 110.484 267.008 111.141 267.492 111.688C267.992 112.219 268.586 112.633 269.273 112.93C269.977 113.227 270.773 113.375 271.664 113.375C272.742 113.375 273.805 113.172 274.852 112.766C275.898 112.359 276.797 111.688 277.547 110.75L281.133 115.016C280.617 115.75 279.883 116.461 278.93 117.148C277.992 117.836 276.867 118.398 275.555 118.836C274.242 119.258 272.773 119.469 271.148 119.469ZM292.781 99.0547V119H284.883V93.6406H292.289L292.781 99.0547ZM291.844 105.453L289.992 105.5C289.992 103.562 290.227 101.836 290.695 100.32C291.164 98.7891 291.828 97.4922 292.688 96.4297C293.547 95.3672 294.57 94.5625 295.758 94.0156C296.961 93.4531 298.297 93.1719 299.766 93.1719C300.938 93.1719 302.008 93.3438 302.977 93.6875C303.961 94.0312 304.805 94.5859 305.508 95.3516C306.227 96.1172 306.773 97.1328 307.148 98.3984C307.539 99.6484 307.734 101.195 307.734 103.039V119H299.789V103.016C299.789 102 299.648 101.227 299.367 100.695C299.086 100.148 298.68 99.7734 298.148 99.5703C297.617 99.3672 296.969 99.2656 296.203 99.2656C295.391 99.2656 294.703 99.4219 294.141 99.7344C293.578 100.047 293.125 100.484 292.781 101.047C292.453 101.594 292.211 102.242 292.055 102.992C291.914 103.742 291.844 104.562 291.844 105.453ZM325.477 93.6406V99.125H310.195V93.6406H325.477ZM313.406 87.3359H321.305V110.727C321.305 111.398 321.383 111.922 321.539 112.297C321.695 112.656 321.961 112.914 322.336 113.07C322.727 113.211 323.242 113.281 323.883 113.281C324.336 113.281 324.711 113.273 325.008 113.258C325.305 113.227 325.586 113.188 325.852 113.141V118.789C325.18 119.008 324.477 119.172 323.742 119.281C323.008 119.406 322.227 119.469 321.398 119.469C319.711 119.469 318.266 119.203 317.062 118.672C315.875 118.141 314.969 117.305 314.344 116.164C313.719 115.023 313.406 113.539 313.406 111.711V87.3359ZM341.789 112.625V102.172C341.789 101.453 341.688 100.836 341.484 100.32C341.281 99.8047 340.961 99.4062 340.523 99.125C340.086 98.8281 339.5 98.6797 338.766 98.6797C338.172 98.6797 337.664 98.7812 337.242 98.9844C336.82 99.1875 336.5 99.4922 336.281 99.8984C336.062 100.305 335.953 100.82 335.953 101.445H328.055C328.055 100.273 328.312 99.1875 328.828 98.1875C329.359 97.1719 330.109 96.2891 331.078 95.5391C332.062 94.7891 333.234 94.2109 334.594 93.8047C335.969 93.3828 337.5 93.1719 339.188 93.1719C341.203 93.1719 343 93.5078 344.578 94.1797C346.172 94.8516 347.43 95.8594 348.352 97.2031C349.273 98.5312 349.734 100.203 349.734 102.219V112.602C349.734 114.258 349.828 115.516 350.016 116.375C350.203 117.219 350.469 117.961 350.812 118.602V119H342.891C342.516 118.219 342.234 117.266 342.047 116.141C341.875 115 341.789 113.828 341.789 112.625ZM342.75 103.508L342.797 107.727H339.305C338.57 107.727 337.945 107.828 337.43 108.031C336.93 108.234 336.523 108.516 336.211 108.875C335.914 109.219 335.695 109.609 335.555 110.047C335.43 110.484 335.367 110.945 335.367 111.43C335.367 111.898 335.477 112.32 335.695 112.695C335.93 113.055 336.242 113.336 336.633 113.539C337.023 113.742 337.461 113.844 337.945 113.844C338.82 113.844 339.562 113.68 340.172 113.352C340.797 113.008 341.273 112.594 341.602 112.109C341.93 111.625 342.094 111.172 342.094 110.75L343.828 113.984C343.516 114.609 343.156 115.242 342.75 115.883C342.359 116.523 341.867 117.117 341.273 117.664C340.695 118.195 339.984 118.633 339.141 118.977C338.297 119.305 337.273 119.469 336.07 119.469C334.508 119.469 333.07 119.148 331.758 118.508C330.461 117.867 329.422 116.977 328.641 115.836C327.859 114.68 327.469 113.352 327.469 111.852C327.469 110.539 327.703 109.367 328.172 108.336C328.656 107.305 329.383 106.43 330.352 105.711C331.32 104.992 332.555 104.445 334.055 104.07C335.555 103.695 337.32 103.508 339.352 103.508H342.75ZM367.477 93.6406V99.125H352.195V93.6406H367.477ZM355.406 87.3359H363.305V110.727C363.305 111.398 363.383 111.922 363.539 112.297C363.695 112.656 363.961 112.914 364.336 113.07C364.727 113.211 365.242 113.281 365.883 113.281C366.336 113.281 366.711 113.273 367.008 113.258C367.305 113.227 367.586 113.188 367.852 113.141V118.789C367.18 119.008 366.477 119.172 365.742 119.281C365.008 119.406 364.227 119.469 363.398 119.469C361.711 119.469 360.266 119.203 359.062 118.672C357.875 118.141 356.969 117.305 356.344 116.164C355.719 115.023 355.406 113.539 355.406 111.711V87.3359ZM378.961 93.6406V119H371.039V93.6406H378.961ZM370.57 87.1016C370.57 85.9766 370.977 85.0547 371.789 84.3359C372.602 83.6172 373.656 83.2578 374.953 83.2578C376.25 83.2578 377.305 83.6172 378.117 84.3359C378.93 85.0547 379.336 85.9766 379.336 87.1016C379.336 88.2266 378.93 89.1484 378.117 89.8672C377.305 90.5859 376.25 90.9453 374.953 90.9453C373.656 90.9453 372.602 90.5859 371.789 89.8672C370.977 89.1484 370.57 88.2266 370.57 87.1016ZM382.852 106.578V106.086C382.852 104.227 383.117 102.516 383.648 100.953C384.18 99.375 384.961 98.0078 385.992 96.8516C387.023 95.6953 388.297 94.7969 389.812 94.1562C391.328 93.5 393.078 93.1719 395.062 93.1719C397.062 93.1719 398.82 93.5 400.336 94.1562C401.867 94.7969 403.148 95.6953 404.18 96.8516C405.211 98.0078 405.992 99.375 406.523 100.953C407.055 102.516 407.32 104.227 407.32 106.086V106.578C407.32 108.422 407.055 110.133 406.523 111.711C405.992 113.273 405.211 114.641 404.18 115.812C403.148 116.969 401.875 117.867 400.359 118.508C398.844 119.148 397.094 119.469 395.109 119.469C393.125 119.469 391.367 119.148 389.836 118.508C388.305 117.867 387.023 116.969 385.992 115.812C384.961 114.641 384.18 113.273 383.648 111.711C383.117 110.133 382.852 108.422 382.852 106.578ZM390.75 106.086V106.578C390.75 107.531 390.82 108.422 390.961 109.25C391.102 110.078 391.336 110.805 391.664 111.43C391.992 112.039 392.438 112.516 393 112.859C393.562 113.203 394.266 113.375 395.109 113.375C395.938 113.375 396.625 113.203 397.172 112.859C397.734 112.516 398.18 112.039 398.508 111.43C398.836 110.805 399.07 110.078 399.211 109.25C399.352 108.422 399.422 107.531 399.422 106.578V106.086C399.422 105.164 399.352 104.297 399.211 103.484C399.07 102.656 398.836 101.93 398.508 101.305C398.18 100.664 397.734 100.164 397.172 99.8047C396.609 99.4453 395.906 99.2656 395.062 99.2656C394.234 99.2656 393.539 99.4453 392.977 99.8047C392.43 100.164 391.992 100.664 391.664 101.305C391.336 101.93 391.102 102.656 390.961 103.484C390.82 104.297 390.75 105.164 390.75 106.086ZM418.594 99.0547V119H410.695V93.6406H418.102L418.594 99.0547ZM417.656 105.453L415.805 105.5C415.805 103.562 416.039 101.836 416.508 100.32C416.977 98.7891 417.641 97.4922 418.5 96.4297C419.359 95.3672 420.383 94.5625 421.57 94.0156C422.773 93.4531 424.109 93.1719 425.578 93.1719C426.75 93.1719 427.82 93.3438 428.789 93.6875C429.773 94.0312 430.617 94.5859 431.32 95.3516C432.039 96.1172 432.586 97.1328 432.961 98.3984C433.352 99.6484 433.547 101.195 433.547 103.039V119H425.602V103.016C425.602 102 425.461 101.227 425.18 100.695C424.898 100.148 424.492 99.7734 423.961 99.5703C423.43 99.3672 422.781 99.2656 422.016 99.2656C421.203 99.2656 420.516 99.4219 419.953 99.7344C419.391 100.047 418.938 100.484 418.594 101.047C418.266 101.594 418.023 102.242 417.867 102.992C417.727 103.742 417.656 104.562 417.656 105.453Z" fill="black"/>
<path d="M1134 0H1348C1356.28 0 1363 6.71573 1363 15V148C1363 156.284 1356.28 163 1348 163H1134V0Z" fill="#00B0DC"/>
<path d="M1281 46.5H1216L1213.5 49V114L1216 116.5H1281L1283.5 114V49L1281 46.5ZM1278.5 111.5H1233.5V101.5H1245C1246.5 104.5 1250 106.5 1253.5 106.5C1259 106.5 1263.5 102 1263.5 96.5C1263.5 91 1259 86.5 1253.5 86.5C1248 86.5 1243.5 91 1243.5 96.5H1228.5V111.5H1218.5V51.5H1228.5V63C1225.5 64.5 1223.5 68 1223.5 71.5C1223.5 77 1228 81.5 1233.5 81.5C1239 81.5 1243.5 77 1243.5 71.5H1253.5C1253.5 77 1258 81.5 1263.5 81.5C1269 81.5 1273.5 77 1273.5 71.5C1273.5 66 1269 61.5 1263.5 61.5C1260 61.5 1256.5 63.5 1255 66.5H1242C1240.5 63.5 1237 61.5 1233.5 61.5V51.5H1278.5V111.5ZM1248.5 96.5C1248.5 93.5 1250.5 91.5 1253.5 91.5C1256.5 91.5 1258.5 93.5 1258.5 96.5C1258.5 99.5 1256.5 101.5 1253.5 101.5C1250.5 101.5 1248.5 99.5 1248.5 96.5ZM1233.5 66.5C1236.5 66.5 1238.5 68.5 1238.5 71.5C1238.5 74.5 1236.5 76.5 1233.5 76.5C1230.5 76.5 1228.5 74.5 1228.5 71.5C1228.5 68.5 1230.5 66.5 1233.5 66.5ZM1263.5 66.5C1266.5 66.5 1268.5 68.5 1268.5 71.5C1268.5 74.5 1266.5 76.5 1263.5 76.5C1260.5 76.5 1258.5 74.5 1258.5 71.5C1258.5 68.5 1260.5 66.5 1263.5 66.5Z" fill="white"/>
</svg>
