<svg width="1363" height="163" viewBox="0 0 1363 163" fill="none" xmlns="http://www.w3.org/2000/svg">
<path d="M0 15C0 6.71573 6.71573 0 15 0H37V163H15C6.71573 163 0 156.284 0 148V15Z" fill="#00B0DC"/>
<rect width="1097" height="163" transform="translate(37)" fill="#F0F0F0"/>
<path d="M101.906 53.9219L94.3945 51.2383V48.0859L104.602 52.375V54.6367L101.906 53.9219ZM94.3945 56.1719L101.918 53.4297L104.602 52.7852V55.0352L94.3945 59.3242V56.1719ZM118.137 61H114.422L114.445 58.2578H118.137C119.059 58.2578 119.836 58.0508 120.469 57.6367C121.102 57.2148 121.578 56.6016 121.898 55.7969C122.227 54.9922 122.391 54.0195 122.391 52.8789V52.0469C122.391 51.1719 122.297 50.4023 122.109 49.7383C121.93 49.0742 121.66 48.5156 121.301 48.0625C120.941 47.6094 120.5 47.2695 119.977 47.043C119.453 46.8086 118.852 46.6914 118.172 46.6914H114.352V43.9375H118.172C119.312 43.9375 120.355 44.1328 121.301 44.5234C122.254 44.9062 123.078 45.457 123.773 46.1758C124.469 46.8945 125.004 47.7539 125.379 48.7539C125.762 49.7461 125.953 50.8516 125.953 52.0703V52.8789C125.953 54.0898 125.762 55.1953 125.379 56.1953C125.004 57.1953 124.469 58.0547 123.773 58.7734C123.086 59.4844 122.262 60.0352 121.301 60.4258C120.348 60.8086 119.293 61 118.137 61ZM116.414 43.9375V61H112.898V43.9375H116.414ZM135.141 58.1406V52.4922C135.141 52.0859 135.074 51.7383 134.941 51.4492C134.809 51.1523 134.602 50.9219 134.32 50.7578C134.047 50.5938 133.691 50.5117 133.254 50.5117C132.879 50.5117 132.555 50.5781 132.281 50.7109C132.008 50.8359 131.797 51.0195 131.648 51.2617C131.5 51.4961 131.426 51.7734 131.426 52.0938H128.051C128.051 51.5547 128.176 51.043 128.426 50.5586C128.676 50.0742 129.039 49.6484 129.516 49.2812C129.992 48.9062 130.559 48.6133 131.215 48.4023C131.879 48.1914 132.621 48.0859 133.441 48.0859C134.426 48.0859 135.301 48.25 136.066 48.5781C136.832 48.9062 137.434 49.3984 137.871 50.0547C138.316 50.7109 138.539 51.5312 138.539 52.5156V57.9414C138.539 58.6367 138.582 59.207 138.668 59.6523C138.754 60.0898 138.879 60.4727 139.043 60.8008V61H135.633C135.469 60.6562 135.344 60.2266 135.258 59.7109C135.18 59.1875 135.141 58.6641 135.141 58.1406ZM135.586 53.2773L135.609 55.1875H133.723C133.277 55.1875 132.891 55.2383 132.562 55.3398C132.234 55.4414 131.965 55.5859 131.754 55.7734C131.543 55.9531 131.387 56.1641 131.285 56.4062C131.191 56.6484 131.145 56.9141 131.145 57.2031C131.145 57.4922 131.211 57.7539 131.344 57.9883C131.477 58.2148 131.668 58.3945 131.918 58.5273C132.168 58.6523 132.461 58.7148 132.797 58.7148C133.305 58.7148 133.746 58.6133 134.121 58.4102C134.496 58.207 134.785 57.957 134.988 57.6602C135.199 57.3633 135.309 57.082 135.316 56.8164L136.207 58.2461C136.082 58.5664 135.91 58.8984 135.691 59.2422C135.48 59.5859 135.211 59.9102 134.883 60.2148C134.555 60.5117 134.16 60.7578 133.699 60.9531C133.238 61.1406 132.691 61.2344 132.059 61.2344C131.254 61.2344 130.523 61.0742 129.867 60.7539C129.219 60.4258 128.703 59.9766 128.32 59.4062C127.945 58.8281 127.758 58.1719 127.758 57.4375C127.758 56.7734 127.883 56.1836 128.133 55.668C128.383 55.1523 128.75 54.7188 129.234 54.3672C129.727 54.0078 130.34 53.7383 131.074 53.5586C131.809 53.3711 132.66 53.2773 133.629 53.2773H135.586ZM147.352 48.3203V50.7109H139.969V48.3203H147.352ZM141.797 45.1914H145.172V57.1797C145.172 57.5469 145.219 57.8281 145.312 58.0234C145.414 58.2188 145.562 58.3555 145.758 58.4336C145.953 58.5039 146.199 58.5391 146.496 58.5391C146.707 58.5391 146.895 58.5312 147.059 58.5156C147.23 58.4922 147.375 58.4688 147.492 58.4453L147.504 60.9297C147.215 61.0234 146.902 61.0977 146.566 61.1523C146.23 61.207 145.859 61.2344 145.453 61.2344C144.711 61.2344 144.062 61.1133 143.508 60.8711C142.961 60.6211 142.539 60.2227 142.242 59.6758C141.945 59.1289 141.797 58.4102 141.797 57.5195V45.1914ZM156.117 58.1406V52.4922C156.117 52.0859 156.051 51.7383 155.918 51.4492C155.785 51.1523 155.578 50.9219 155.297 50.7578C155.023 50.5938 154.668 50.5117 154.23 50.5117C153.855 50.5117 153.531 50.5781 153.258 50.7109C152.984 50.8359 152.773 51.0195 152.625 51.2617C152.477 51.4961 152.402 51.7734 152.402 52.0938H149.027C149.027 51.5547 149.152 51.043 149.402 50.5586C149.652 50.0742 150.016 49.6484 150.492 49.2812C150.969 48.9062 151.535 48.6133 152.191 48.4023C152.855 48.1914 153.598 48.0859 154.418 48.0859C155.402 48.0859 156.277 48.25 157.043 48.5781C157.809 48.9062 158.41 49.3984 158.848 50.0547C159.293 50.7109 159.516 51.5312 159.516 52.5156V57.9414C159.516 58.6367 159.559 59.207 159.645 59.6523C159.73 60.0898 159.855 60.4727 160.02 60.8008V61H156.609C156.445 60.6562 156.32 60.2266 156.234 59.7109C156.156 59.1875 156.117 58.6641 156.117 58.1406ZM156.562 53.2773L156.586 55.1875H154.699C154.254 55.1875 153.867 55.2383 153.539 55.3398C153.211 55.4414 152.941 55.5859 152.73 55.7734C152.52 55.9531 152.363 56.1641 152.262 56.4062C152.168 56.6484 152.121 56.9141 152.121 57.2031C152.121 57.4922 152.188 57.7539 152.32 57.9883C152.453 58.2148 152.645 58.3945 152.895 58.5273C153.145 58.6523 153.438 58.7148 153.773 58.7148C154.281 58.7148 154.723 58.6133 155.098 58.4102C155.473 58.207 155.762 57.957 155.965 57.6602C156.176 57.3633 156.285 57.082 156.293 56.8164L157.184 58.2461C157.059 58.5664 156.887 58.8984 156.668 59.2422C156.457 59.5859 156.188 59.9102 155.859 60.2148C155.531 60.5117 155.137 60.7578 154.676 60.9531C154.215 61.1406 153.668 61.2344 153.035 61.2344C152.23 61.2344 151.5 61.0742 150.844 60.7539C150.195 60.4258 149.68 59.9766 149.297 59.4062C148.922 58.8281 148.734 58.1719 148.734 57.4375C148.734 56.7734 148.859 56.1836 149.109 55.668C149.359 55.1523 149.727 54.7188 150.211 54.3672C150.703 54.0078 151.316 53.7383 152.051 53.5586C152.785 53.3711 153.637 53.2773 154.605 53.2773H156.562ZM175.207 55.7617V43.9375H178.711V55.7617C178.711 56.9023 178.461 57.8828 177.961 58.7031C177.461 59.5156 176.777 60.1406 175.91 60.5781C175.051 61.0156 174.082 61.2344 173.004 61.2344C171.887 61.2344 170.898 61.0469 170.039 60.6719C169.18 60.2969 168.504 59.7227 168.012 58.9492C167.52 58.168 167.273 57.1797 167.273 55.9844H170.801C170.801 56.6094 170.887 57.1055 171.059 57.4727C171.238 57.8398 171.492 58.1016 171.82 58.2578C172.148 58.4141 172.543 58.4922 173.004 58.4922C173.449 58.4922 173.836 58.3867 174.164 58.1758C174.492 57.9648 174.746 57.6562 174.926 57.25C175.113 56.8438 175.207 56.3477 175.207 55.7617ZM180.961 54.7891V54.543C180.961 53.6133 181.094 52.7578 181.359 51.9766C181.625 51.1875 182.012 50.5039 182.52 49.9258C183.027 49.3477 183.652 48.8984 184.395 48.5781C185.137 48.25 185.988 48.0859 186.949 48.0859C187.91 48.0859 188.766 48.25 189.516 48.5781C190.266 48.8984 190.895 49.3477 191.402 49.9258C191.918 50.5039 192.309 51.1875 192.574 51.9766C192.84 52.7578 192.973 53.6133 192.973 54.543V54.7891C192.973 55.7109 192.84 56.5664 192.574 57.3555C192.309 58.1367 191.918 58.8203 191.402 59.4062C190.895 59.9844 190.27 60.4336 189.527 60.7539C188.785 61.0742 187.934 61.2344 186.973 61.2344C186.012 61.2344 185.156 61.0742 184.406 60.7539C183.664 60.4336 183.035 59.9844 182.52 59.4062C182.012 58.8203 181.625 58.1367 181.359 57.3555C181.094 56.5664 180.961 55.7109 180.961 54.7891ZM184.336 54.543V54.7891C184.336 55.3203 184.383 55.8164 184.477 56.2773C184.57 56.7383 184.719 57.1445 184.922 57.4961C185.133 57.8398 185.406 58.1094 185.742 58.3047C186.078 58.5 186.488 58.5977 186.973 58.5977C187.441 58.5977 187.844 58.5 188.18 58.3047C188.516 58.1094 188.785 57.8398 188.988 57.4961C189.191 57.1445 189.34 56.7383 189.434 56.2773C189.535 55.8164 189.586 55.3203 189.586 54.7891V54.543C189.586 54.0273 189.535 53.543 189.434 53.0898C189.34 52.6289 189.188 52.2227 188.977 51.8711C188.773 51.5117 188.504 51.2305 188.168 51.0273C187.832 50.8242 187.426 50.7227 186.949 50.7227C186.473 50.7227 186.066 50.8242 185.73 51.0273C185.402 51.2305 185.133 51.5117 184.922 51.8711C184.719 52.2227 184.57 52.6289 184.477 53.0898C184.383 53.543 184.336 54.0273 184.336 54.543ZM195.047 43H198.422V58.0938L198.082 61H195.047V43ZM206.449 54.5312V54.7773C206.449 55.7227 206.348 56.5898 206.145 57.3789C205.949 58.168 205.645 58.8516 205.23 59.4297C204.816 60 204.301 60.4453 203.684 60.7656C203.074 61.0781 202.355 61.2344 201.527 61.2344C200.754 61.2344 200.082 61.0781 199.512 60.7656C198.949 60.4531 198.477 60.0117 198.094 59.4414C197.711 58.8711 197.402 58.2031 197.168 57.4375C196.934 56.6719 196.758 55.8359 196.641 54.9297V54.3906C196.758 53.4844 196.934 52.6484 197.168 51.8828C197.402 51.1172 197.711 50.4492 198.094 49.8789C198.477 49.3086 198.949 48.8672 199.512 48.5547C200.074 48.2422 200.738 48.0859 201.504 48.0859C202.34 48.0859 203.066 48.2461 203.684 48.5664C204.309 48.8789 204.824 49.3242 205.23 49.9023C205.645 50.4727 205.949 51.1523 206.145 51.9414C206.348 52.7227 206.449 53.5859 206.449 54.5312ZM203.074 54.7773V54.5312C203.074 54.0156 203.035 53.5312 202.957 53.0781C202.887 52.6172 202.762 52.2148 202.582 51.8711C202.402 51.5195 202.156 51.2422 201.844 51.0391C201.539 50.8359 201.145 50.7344 200.66 50.7344C200.199 50.7344 199.809 50.8125 199.488 50.9688C199.168 51.125 198.902 51.3438 198.691 51.625C198.488 51.9062 198.336 52.2422 198.234 52.6328C198.133 53.0156 198.07 53.4375 198.047 53.8984V55.4336C198.07 56.0508 198.172 56.5977 198.352 57.0742C198.539 57.543 198.82 57.9141 199.195 58.1875C199.578 58.4531 200.074 58.5859 200.684 58.5859C201.16 58.5859 201.555 58.4922 201.867 58.3047C202.18 58.1172 202.422 57.8516 202.594 57.5078C202.773 57.1641 202.898 56.7617 202.969 56.3008C203.039 55.832 203.074 55.3242 203.074 54.7773ZM215.402 57.4961C215.402 57.2539 215.332 57.0352 215.191 56.8398C215.051 56.6445 214.789 56.4648 214.406 56.3008C214.031 56.1289 213.488 55.9727 212.777 55.832C212.137 55.6914 211.539 55.5156 210.984 55.3047C210.438 55.0859 209.961 54.8242 209.555 54.5195C209.156 54.2148 208.844 53.8555 208.617 53.4414C208.391 53.0195 208.277 52.5391 208.277 52C208.277 51.4688 208.391 50.9688 208.617 50.5C208.852 50.0312 209.184 49.6172 209.613 49.2578C210.051 48.8906 210.582 48.6055 211.207 48.4023C211.84 48.1914 212.551 48.0859 213.34 48.0859C214.441 48.0859 215.387 48.2617 216.176 48.6133C216.973 48.9648 217.582 49.4492 218.004 50.0664C218.434 50.6758 218.648 51.3711 218.648 52.1523H215.273C215.273 51.8242 215.203 51.5312 215.062 51.2734C214.93 51.0078 214.719 50.8008 214.43 50.6523C214.148 50.4961 213.781 50.418 213.328 50.418C212.953 50.418 212.629 50.4844 212.355 50.6172C212.082 50.7422 211.871 50.9141 211.723 51.1328C211.582 51.3438 211.512 51.5781 211.512 51.8359C211.512 52.0312 211.551 52.207 211.629 52.3633C211.715 52.5117 211.852 52.6484 212.039 52.7734C212.227 52.8984 212.469 53.0156 212.766 53.125C213.07 53.2266 213.445 53.3203 213.891 53.4062C214.805 53.5938 215.621 53.8398 216.34 54.1445C217.059 54.4414 217.629 54.8477 218.051 55.3633C218.473 55.8711 218.684 56.5391 218.684 57.3672C218.684 57.9297 218.559 58.4453 218.309 58.9141C218.059 59.3828 217.699 59.793 217.23 60.1445C216.762 60.4883 216.199 60.7578 215.543 60.9531C214.895 61.1406 214.164 61.2344 213.352 61.2344C212.172 61.2344 211.172 61.0234 210.352 60.6016C209.539 60.1797 208.922 59.6445 208.5 58.9961C208.086 58.3398 207.879 57.668 207.879 56.9805H211.078C211.094 57.4414 211.211 57.8125 211.43 58.0938C211.656 58.375 211.941 58.5781 212.285 58.7031C212.637 58.8281 213.016 58.8906 213.422 58.8906C213.859 58.8906 214.223 58.832 214.512 58.7148C214.801 58.5898 215.02 58.4258 215.168 58.2227C215.324 58.0117 215.402 57.7695 215.402 57.4961ZM228.668 43.9375H231.645L236.027 56.4648L240.41 43.9375H243.387L237.223 61H234.832L228.668 43.9375ZM227.062 43.9375H230.027L230.566 56.1484V61H227.062V43.9375ZM242.027 43.9375H245.004V61H241.488V56.1484L242.027 43.9375ZM254.719 58.1406V52.4922C254.719 52.0859 254.652 51.7383 254.52 51.4492C254.387 51.1523 254.18 50.9219 253.898 50.7578C253.625 50.5938 253.27 50.5117 252.832 50.5117C252.457 50.5117 252.133 50.5781 251.859 50.7109C251.586 50.8359 251.375 51.0195 251.227 51.2617C251.078 51.4961 251.004 51.7734 251.004 52.0938H247.629C247.629 51.5547 247.754 51.043 248.004 50.5586C248.254 50.0742 248.617 49.6484 249.094 49.2812C249.57 48.9062 250.137 48.6133 250.793 48.4023C251.457 48.1914 252.199 48.0859 253.02 48.0859C254.004 48.0859 254.879 48.25 255.645 48.5781C256.41 48.9062 257.012 49.3984 257.449 50.0547C257.895 50.7109 258.117 51.5312 258.117 52.5156V57.9414C258.117 58.6367 258.16 59.207 258.246 59.6523C258.332 60.0898 258.457 60.4727 258.621 60.8008V61H255.211C255.047 60.6562 254.922 60.2266 254.836 59.7109C254.758 59.1875 254.719 58.6641 254.719 58.1406ZM255.164 53.2773L255.188 55.1875H253.301C252.855 55.1875 252.469 55.2383 252.141 55.3398C251.812 55.4414 251.543 55.5859 251.332 55.7734C251.121 55.9531 250.965 56.1641 250.863 56.4062C250.77 56.6484 250.723 56.9141 250.723 57.2031C250.723 57.4922 250.789 57.7539 250.922 57.9883C251.055 58.2148 251.246 58.3945 251.496 58.5273C251.746 58.6523 252.039 58.7148 252.375 58.7148C252.883 58.7148 253.324 58.6133 253.699 58.4102C254.074 58.207 254.363 57.957 254.566 57.6602C254.777 57.3633 254.887 57.082 254.895 56.8164L255.785 58.2461C255.66 58.5664 255.488 58.8984 255.27 59.2422C255.059 59.5859 254.789 59.9102 254.461 60.2148C254.133 60.5117 253.738 60.7578 253.277 60.9531C252.816 61.1406 252.27 61.2344 251.637 61.2344C250.832 61.2344 250.102 61.0742 249.445 60.7539C248.797 60.4258 248.281 59.9766 247.898 59.4062C247.523 58.8281 247.336 58.1719 247.336 57.4375C247.336 56.7734 247.461 56.1836 247.711 55.668C247.961 55.1523 248.328 54.7188 248.812 54.3672C249.305 54.0078 249.918 53.7383 250.652 53.5586C251.387 53.3711 252.238 53.2773 253.207 53.2773H255.164ZM264.094 51.0859V61H260.719V48.3203H263.895L264.094 51.0859ZM267.914 48.2383L267.855 51.3672C267.691 51.3438 267.492 51.3242 267.258 51.3086C267.031 51.2852 266.824 51.2734 266.637 51.2734C266.16 51.2734 265.746 51.3359 265.395 51.4609C265.051 51.5781 264.762 51.7539 264.527 51.9883C264.301 52.2227 264.129 52.5078 264.012 52.8438C263.902 53.1797 263.84 53.5625 263.824 53.9922L263.145 53.7812C263.145 52.9609 263.227 52.207 263.391 51.5195C263.555 50.8242 263.793 50.2188 264.105 49.7031C264.426 49.1875 264.816 48.7891 265.277 48.5078C265.738 48.2266 266.266 48.0859 266.859 48.0859C267.047 48.0859 267.238 48.1016 267.434 48.1328C267.629 48.1562 267.789 48.1914 267.914 48.2383ZM272.883 42.9883V61H269.508V42.9883H272.883ZM280.875 48.3203L275.367 54.6016L272.414 57.5898L271.184 55.1523L273.527 52.1758L276.82 48.3203H280.875ZM277.371 61L273.621 55.1406L275.953 53.1016L281.262 61H277.371ZM287.93 61.2344C286.945 61.2344 286.062 61.0781 285.281 60.7656C284.5 60.4453 283.836 60.0039 283.289 59.4414C282.75 58.8789 282.336 58.2266 282.047 57.4844C281.758 56.7344 281.613 55.9375 281.613 55.0938V54.625C281.613 53.6641 281.75 52.7852 282.023 51.9883C282.297 51.1914 282.688 50.5 283.195 49.9141C283.711 49.3281 284.336 48.8789 285.07 48.5664C285.805 48.2461 286.633 48.0859 287.555 48.0859C288.453 48.0859 289.25 48.2344 289.945 48.5312C290.641 48.8281 291.223 49.25 291.691 49.7969C292.168 50.3438 292.527 51 292.77 51.7656C293.012 52.5234 293.133 53.3672 293.133 54.2969V55.7031H283.055V53.4531H289.816V53.1953C289.816 52.7266 289.73 52.3086 289.559 51.9414C289.395 51.5664 289.145 51.2695 288.809 51.0508C288.473 50.832 288.043 50.7227 287.52 50.7227C287.074 50.7227 286.691 50.8203 286.371 51.0156C286.051 51.2109 285.789 51.4844 285.586 51.8359C285.391 52.1875 285.242 52.6016 285.141 53.0781C285.047 53.5469 285 54.0625 285 54.625V55.0938C285 55.6016 285.07 56.0703 285.211 56.5C285.359 56.9297 285.566 57.3008 285.832 57.6133C286.105 57.9258 286.434 58.168 286.816 58.3398C287.207 58.5117 287.648 58.5977 288.141 58.5977C288.75 58.5977 289.316 58.4805 289.84 58.2461C290.371 58.0039 290.828 57.6406 291.211 57.1562L292.852 58.9375C292.586 59.3203 292.223 59.6875 291.762 60.0391C291.309 60.3906 290.762 60.6797 290.121 60.9062C289.48 61.125 288.75 61.2344 287.93 61.2344ZM301.266 48.3203V50.7109H293.883V48.3203H301.266ZM295.711 45.1914H299.086V57.1797C299.086 57.5469 299.133 57.8281 299.227 58.0234C299.328 58.2188 299.477 58.3555 299.672 58.4336C299.867 58.5039 300.113 58.5391 300.41 58.5391C300.621 58.5391 300.809 58.5312 300.973 58.5156C301.145 58.4922 301.289 58.4688 301.406 58.4453L301.418 60.9297C301.129 61.0234 300.816 61.0977 300.48 61.1523C300.145 61.207 299.773 61.2344 299.367 61.2344C298.625 61.2344 297.977 61.1133 297.422 60.8711C296.875 60.6211 296.453 60.2227 296.156 59.6758C295.859 59.1289 295.711 58.4102 295.711 57.5195V45.1914ZM316.312 46.8555L311.672 61H307.934L314.273 43.9375H316.652L316.312 46.8555ZM320.168 61L315.516 46.8555L315.141 43.9375H317.543L323.918 61H320.168ZM319.957 54.6484V57.4023H310.945V54.6484H319.957ZM328.219 51.0273V61H324.844V48.3203H328.008L328.219 51.0273ZM327.727 54.2148H326.812C326.812 53.2773 326.934 52.4336 327.176 51.6836C327.418 50.9258 327.758 50.2812 328.195 49.75C328.633 49.2109 329.152 48.8008 329.754 48.5195C330.363 48.2305 331.043 48.0859 331.793 48.0859C332.387 48.0859 332.93 48.1719 333.422 48.3438C333.914 48.5156 334.336 48.7891 334.688 49.1641C335.047 49.5391 335.32 50.0352 335.508 50.6523C335.703 51.2695 335.801 52.0234 335.801 52.9141V61H332.402V52.9023C332.402 52.3398 332.324 51.9023 332.168 51.5898C332.012 51.2773 331.781 51.0586 331.477 50.9336C331.18 50.8008 330.812 50.7344 330.375 50.7344C329.922 50.7344 329.527 50.8242 329.191 51.0039C328.863 51.1836 328.59 51.4336 328.371 51.7539C328.16 52.0664 328 52.4336 327.891 52.8555C327.781 53.2773 327.727 53.7305 327.727 54.2148ZM345.211 58.1406V52.4922C345.211 52.0859 345.145 51.7383 345.012 51.4492C344.879 51.1523 344.672 50.9219 344.391 50.7578C344.117 50.5938 343.762 50.5117 343.324 50.5117C342.949 50.5117 342.625 50.5781 342.352 50.7109C342.078 50.8359 341.867 51.0195 341.719 51.2617C341.57 51.4961 341.496 51.7734 341.496 52.0938H338.121C338.121 51.5547 338.246 51.043 338.496 50.5586C338.746 50.0742 339.109 49.6484 339.586 49.2812C340.062 48.9062 340.629 48.6133 341.285 48.4023C341.949 48.1914 342.691 48.0859 343.512 48.0859C344.496 48.0859 345.371 48.25 346.137 48.5781C346.902 48.9062 347.504 49.3984 347.941 50.0547C348.387 50.7109 348.609 51.5312 348.609 52.5156V57.9414C348.609 58.6367 348.652 59.207 348.738 59.6523C348.824 60.0898 348.949 60.4727 349.113 60.8008V61H345.703C345.539 60.6562 345.414 60.2266 345.328 59.7109C345.25 59.1875 345.211 58.6641 345.211 58.1406ZM345.656 53.2773L345.68 55.1875H343.793C343.348 55.1875 342.961 55.2383 342.633 55.3398C342.305 55.4414 342.035 55.5859 341.824 55.7734C341.613 55.9531 341.457 56.1641 341.355 56.4062C341.262 56.6484 341.215 56.9141 341.215 57.2031C341.215 57.4922 341.281 57.7539 341.414 57.9883C341.547 58.2148 341.738 58.3945 341.988 58.5273C342.238 58.6523 342.531 58.7148 342.867 58.7148C343.375 58.7148 343.816 58.6133 344.191 58.4102C344.566 58.207 344.855 57.957 345.059 57.6602C345.27 57.3633 345.379 57.082 345.387 56.8164L346.277 58.2461C346.152 58.5664 345.98 58.8984 345.762 59.2422C345.551 59.5859 345.281 59.9102 344.953 60.2148C344.625 60.5117 344.23 60.7578 343.77 60.9531C343.309 61.1406 342.762 61.2344 342.129 61.2344C341.324 61.2344 340.594 61.0742 339.938 60.7539C339.289 60.4258 338.773 59.9766 338.391 59.4062C338.016 58.8281 337.828 58.1719 337.828 57.4375C337.828 56.7734 337.953 56.1836 338.203 55.668C338.453 55.1523 338.82 54.7188 339.305 54.3672C339.797 54.0078 340.41 53.7383 341.145 53.5586C341.879 53.3711 342.73 53.2773 343.699 53.2773H345.656ZM354.773 43V61H351.387V43H354.773ZM361.324 59.5703L364.688 48.3203H368.309L363.211 62.9102C363.102 63.2305 362.953 63.5742 362.766 63.9414C362.586 64.3086 362.34 64.6562 362.027 64.9844C361.723 65.3203 361.336 65.5938 360.867 65.8047C360.406 66.0156 359.84 66.1211 359.168 66.1211C358.848 66.1211 358.586 66.1016 358.383 66.0625C358.18 66.0234 357.938 65.9688 357.656 65.8984V63.4258C357.742 63.4258 357.832 63.4258 357.926 63.4258C358.02 63.4336 358.109 63.4375 358.195 63.4375C358.641 63.4375 359.004 63.3867 359.285 63.2852C359.566 63.1836 359.793 63.0273 359.965 62.8164C360.137 62.6133 360.273 62.3477 360.375 62.0195L361.324 59.5703ZM359.918 48.3203L362.672 57.5078L363.152 61.082L360.855 61.3281L356.297 48.3203H359.918ZM376.512 57.4961C376.512 57.2539 376.441 57.0352 376.301 56.8398C376.16 56.6445 375.898 56.4648 375.516 56.3008C375.141 56.1289 374.598 55.9727 373.887 55.832C373.246 55.6914 372.648 55.5156 372.094 55.3047C371.547 55.0859 371.07 54.8242 370.664 54.5195C370.266 54.2148 369.953 53.8555 369.727 53.4414C369.5 53.0195 369.387 52.5391 369.387 52C369.387 51.4688 369.5 50.9688 369.727 50.5C369.961 50.0312 370.293 49.6172 370.723 49.2578C371.16 48.8906 371.691 48.6055 372.316 48.4023C372.949 48.1914 373.66 48.0859 374.449 48.0859C375.551 48.0859 376.496 48.2617 377.285 48.6133C378.082 48.9648 378.691 49.4492 379.113 50.0664C379.543 50.6758 379.758 51.3711 379.758 52.1523H376.383C376.383 51.8242 376.312 51.5312 376.172 51.2734C376.039 51.0078 375.828 50.8008 375.539 50.6523C375.258 50.4961 374.891 50.418 374.438 50.418C374.062 50.418 373.738 50.4844 373.465 50.6172C373.191 50.7422 372.98 50.9141 372.832 51.1328C372.691 51.3438 372.621 51.5781 372.621 51.8359C372.621 52.0312 372.66 52.207 372.738 52.3633C372.824 52.5117 372.961 52.6484 373.148 52.7734C373.336 52.8984 373.578 53.0156 373.875 53.125C374.18 53.2266 374.555 53.3203 375 53.4062C375.914 53.5938 376.73 53.8398 377.449 54.1445C378.168 54.4414 378.738 54.8477 379.16 55.3633C379.582 55.8711 379.793 56.5391 379.793 57.3672C379.793 57.9297 379.668 58.4453 379.418 58.9141C379.168 59.3828 378.809 59.793 378.34 60.1445C377.871 60.4883 377.309 60.7578 376.652 60.9531C376.004 61.1406 375.273 61.2344 374.461 61.2344C373.281 61.2344 372.281 61.0234 371.461 60.6016C370.648 60.1797 370.031 59.6445 369.609 58.9961C369.195 58.3398 368.988 57.668 368.988 56.9805H372.188C372.203 57.4414 372.32 57.8125 372.539 58.0938C372.766 58.375 373.051 58.5781 373.395 58.7031C373.746 58.8281 374.125 58.8906 374.531 58.8906C374.969 58.8906 375.332 58.832 375.621 58.7148C375.91 58.5898 376.129 58.4258 376.277 58.2227C376.434 58.0117 376.512 57.7695 376.512 57.4961ZM385.547 48.3203V61H382.16V48.3203H385.547ZM381.949 45.0156C381.949 44.5234 382.121 44.1172 382.465 43.7969C382.809 43.4766 383.27 43.3164 383.848 43.3164C384.418 43.3164 384.875 43.4766 385.219 43.7969C385.57 44.1172 385.746 44.5234 385.746 45.0156C385.746 45.5078 385.57 45.9141 385.219 46.2344C384.875 46.5547 384.418 46.7148 383.848 46.7148C383.27 46.7148 382.809 46.5547 382.465 46.2344C382.121 45.9141 381.949 45.5078 381.949 45.0156ZM395.191 57.4961C395.191 57.2539 395.121 57.0352 394.98 56.8398C394.84 56.6445 394.578 56.4648 394.195 56.3008C393.82 56.1289 393.277 55.9727 392.566 55.832C391.926 55.6914 391.328 55.5156 390.773 55.3047C390.227 55.0859 389.75 54.8242 389.344 54.5195C388.945 54.2148 388.633 53.8555 388.406 53.4414C388.18 53.0195 388.066 52.5391 388.066 52C388.066 51.4688 388.18 50.9688 388.406 50.5C388.641 50.0312 388.973 49.6172 389.402 49.2578C389.84 48.8906 390.371 48.6055 390.996 48.4023C391.629 48.1914 392.34 48.0859 393.129 48.0859C394.23 48.0859 395.176 48.2617 395.965 48.6133C396.762 48.9648 397.371 49.4492 397.793 50.0664C398.223 50.6758 398.438 51.3711 398.438 52.1523H395.062C395.062 51.8242 394.992 51.5312 394.852 51.2734C394.719 51.0078 394.508 50.8008 394.219 50.6523C393.938 50.4961 393.57 50.418 393.117 50.418C392.742 50.418 392.418 50.4844 392.145 50.6172C391.871 50.7422 391.66 50.9141 391.512 51.1328C391.371 51.3438 391.301 51.5781 391.301 51.8359C391.301 52.0312 391.34 52.207 391.418 52.3633C391.504 52.5117 391.641 52.6484 391.828 52.7734C392.016 52.8984 392.258 53.0156 392.555 53.125C392.859 53.2266 393.234 53.3203 393.68 53.4062C394.594 53.5938 395.41 53.8398 396.129 54.1445C396.848 54.4414 397.418 54.8477 397.84 55.3633C398.262 55.8711 398.473 56.5391 398.473 57.3672C398.473 57.9297 398.348 58.4453 398.098 58.9141C397.848 59.3828 397.488 59.793 397.02 60.1445C396.551 60.4883 395.988 60.7578 395.332 60.9531C394.684 61.1406 393.953 61.2344 393.141 61.2344C391.961 61.2344 390.961 61.0234 390.141 60.6016C389.328 60.1797 388.711 59.6445 388.289 58.9961C387.875 58.3398 387.668 57.668 387.668 56.9805H390.867C390.883 57.4414 391 57.8125 391.219 58.0938C391.445 58.375 391.73 58.5781 392.074 58.7031C392.426 58.8281 392.805 58.8906 393.211 58.8906C393.648 58.8906 394.012 58.832 394.301 58.7148C394.59 58.5898 394.809 58.4258 394.957 58.2227C395.113 58.0117 395.191 57.7695 395.191 57.4961Z" fill="#888888"/>
<path d="M109.219 107.422H100.734V101.07H109.219C110.375 101.07 111.312 100.875 112.031 100.484C112.75 100.094 113.273 99.5547 113.602 98.8672C113.945 98.1641 114.117 97.375 114.117 96.5C114.117 95.5625 113.945 94.6953 113.602 93.8984C113.273 93.1016 112.75 92.4609 112.031 91.9766C111.312 91.4766 110.375 91.2266 109.219 91.2266H103.828V119H95.6016V84.875H109.219C111.953 84.875 114.305 85.375 116.273 86.375C118.258 87.375 119.781 88.75 120.844 90.5C121.906 92.2344 122.438 94.2188 122.438 96.4531C122.438 98.6562 121.906 100.578 120.844 102.219C119.781 103.859 118.258 105.141 116.273 106.062C114.305 106.969 111.953 107.422 109.219 107.422ZM134.461 99.9219V119H126.562V93.6406H133.945L134.461 99.9219ZM141.961 93.4531L141.82 100.789C141.508 100.758 141.086 100.719 140.555 100.672C140.023 100.625 139.578 100.602 139.219 100.602C138.297 100.602 137.5 100.711 136.828 100.93C136.172 101.133 135.625 101.445 135.188 101.867C134.766 102.273 134.453 102.789 134.25 103.414C134.062 104.039 133.977 104.766 133.992 105.594L132.562 104.656C132.562 102.953 132.727 101.406 133.055 100.016C133.398 98.6094 133.883 97.3984 134.508 96.3828C135.133 95.3516 135.891 94.5625 136.781 94.0156C137.672 93.4531 138.672 93.1719 139.781 93.1719C140.172 93.1719 140.555 93.1953 140.93 93.2422C141.32 93.2891 141.664 93.3594 141.961 93.4531ZM142.852 106.578V106.086C142.852 104.227 143.117 102.516 143.648 100.953C144.18 99.375 144.961 98.0078 145.992 96.8516C147.023 95.6953 148.297 94.7969 149.812 94.1562C151.328 93.5 153.078 93.1719 155.062 93.1719C157.062 93.1719 158.82 93.5 160.336 94.1562C161.867 94.7969 163.148 95.6953 164.18 96.8516C165.211 98.0078 165.992 99.375 166.523 100.953C167.055 102.516 167.32 104.227 167.32 106.086V106.578C167.32 108.422 167.055 110.133 166.523 111.711C165.992 113.273 165.211 114.641 164.18 115.812C163.148 116.969 161.875 117.867 160.359 118.508C158.844 119.148 157.094 119.469 155.109 119.469C153.125 119.469 151.367 119.148 149.836 118.508C148.305 117.867 147.023 116.969 145.992 115.812C144.961 114.641 144.18 113.273 143.648 111.711C143.117 110.133 142.852 108.422 142.852 106.578ZM150.75 106.086V106.578C150.75 107.531 150.82 108.422 150.961 109.25C151.102 110.078 151.336 110.805 151.664 111.43C151.992 112.039 152.438 112.516 153 112.859C153.562 113.203 154.266 113.375 155.109 113.375C155.938 113.375 156.625 113.203 157.172 112.859C157.734 112.516 158.18 112.039 158.508 111.43C158.836 110.805 159.07 110.078 159.211 109.25C159.352 108.422 159.422 107.531 159.422 106.578V106.086C159.422 105.164 159.352 104.297 159.211 103.484C159.07 102.656 158.836 101.93 158.508 101.305C158.18 100.664 157.734 100.164 157.172 99.8047C156.609 99.4453 155.906 99.2656 155.062 99.2656C154.234 99.2656 153.539 99.4453 152.977 99.8047C152.43 100.164 151.992 100.664 151.664 101.305C151.336 101.93 151.102 102.656 150.961 103.484C150.82 104.297 150.75 105.164 150.75 106.086ZM171.422 93.6406H179.344V119.82C179.344 121.852 178.953 123.562 178.172 124.953C177.391 126.359 176.273 127.422 174.82 128.141C173.367 128.875 171.633 129.242 169.617 129.242C168.945 129.242 168.328 129.211 167.766 129.148C167.188 129.102 166.555 129 165.867 128.844V122.867C166.273 122.93 166.648 122.977 166.992 123.008C167.336 123.055 167.711 123.078 168.117 123.078C168.836 123.078 169.438 122.961 169.922 122.727C170.406 122.492 170.773 122.133 171.023 121.648C171.289 121.164 171.422 120.555 171.422 119.82V93.6406ZM170.836 87.1016C170.836 85.9766 171.242 85.0547 172.055 84.3359C172.867 83.6172 173.922 83.2578 175.219 83.2578C176.516 83.2578 177.57 83.6172 178.383 84.3359C179.195 85.0547 179.602 85.9766 179.602 87.1016C179.602 88.2266 179.195 89.1484 178.383 89.8672C177.57 90.5859 176.516 90.9453 175.219 90.9453C173.922 90.9453 172.867 90.5859 172.055 89.8672C171.242 89.1484 170.836 88.2266 170.836 87.1016ZM196.102 119.469C194.039 119.469 192.195 119.148 190.57 118.508C188.945 117.852 187.57 116.953 186.445 115.812C185.336 114.672 184.484 113.359 183.891 111.875C183.312 110.391 183.023 108.82 183.023 107.164V106.273C183.023 104.414 183.281 102.695 183.797 101.117C184.312 99.5234 185.078 98.1328 186.094 96.9453C187.109 95.7578 188.383 94.8359 189.914 94.1797C191.445 93.5078 193.227 93.1719 195.258 93.1719C197.055 93.1719 198.664 93.4609 200.086 94.0391C201.508 94.6172 202.711 95.4453 203.695 96.5234C204.695 97.6016 205.453 98.9062 205.969 100.438C206.5 101.969 206.766 103.688 206.766 105.594V108.805H186.047V103.859H199.055V103.25C199.07 102.406 198.922 101.688 198.609 101.094C198.312 100.5 197.875 100.047 197.297 99.7344C196.719 99.4219 196.016 99.2656 195.188 99.2656C194.328 99.2656 193.617 99.4531 193.055 99.8281C192.508 100.203 192.078 100.719 191.766 101.375C191.469 102.016 191.258 102.758 191.133 103.602C191.008 104.445 190.945 105.336 190.945 106.273V107.164C190.945 108.102 191.07 108.953 191.32 109.719C191.586 110.484 191.961 111.141 192.445 111.688C192.945 112.219 193.539 112.633 194.227 112.93C194.93 113.227 195.727 113.375 196.617 113.375C197.695 113.375 198.758 113.172 199.805 112.766C200.852 112.359 201.75 111.688 202.5 110.75L206.086 115.016C205.57 115.75 204.836 116.461 203.883 117.148C202.945 117.836 201.82 118.398 200.508 118.836C199.195 119.258 197.727 119.469 196.102 119.469ZM220.688 113.375C221.422 113.375 222.047 113.242 222.562 112.977C223.094 112.695 223.492 112.305 223.758 111.805C224.039 111.289 224.172 110.672 224.156 109.953H231.586C231.602 111.859 231.133 113.531 230.18 114.969C229.242 116.391 227.961 117.5 226.336 118.297C224.727 119.078 222.906 119.469 220.875 119.469C218.891 119.469 217.156 119.148 215.672 118.508C214.188 117.852 212.945 116.945 211.945 115.789C210.961 114.617 210.219 113.25 209.719 111.688C209.234 110.125 208.992 108.43 208.992 106.602V106.062C208.992 104.234 209.234 102.539 209.719 100.977C210.219 99.3984 210.961 98.0312 211.945 96.875C212.945 95.7031 214.18 94.7969 215.648 94.1562C217.133 93.5 218.859 93.1719 220.828 93.1719C222.938 93.1719 224.797 93.5703 226.406 94.3672C228.031 95.1641 229.305 96.3203 230.227 97.8359C231.148 99.3516 231.602 101.188 231.586 103.344H224.156C224.172 102.578 224.055 101.891 223.805 101.281C223.555 100.672 223.164 100.188 222.633 99.8281C222.117 99.4531 221.453 99.2656 220.641 99.2656C219.828 99.2656 219.172 99.4453 218.672 99.8047C218.172 100.164 217.789 100.664 217.523 101.305C217.273 101.93 217.102 102.648 217.008 103.461C216.93 104.273 216.891 105.141 216.891 106.062V106.602C216.891 107.539 216.93 108.422 217.008 109.25C217.102 110.062 217.281 110.781 217.547 111.406C217.812 112.016 218.195 112.5 218.695 112.859C219.195 113.203 219.859 113.375 220.688 113.375ZM248.32 93.6406V99.125H233.039V93.6406H248.32ZM236.25 87.3359H244.148V110.727C244.148 111.398 244.227 111.922 244.383 112.297C244.539 112.656 244.805 112.914 245.18 113.07C245.57 113.211 246.086 113.281 246.727 113.281C247.18 113.281 247.555 113.273 247.852 113.258C248.148 113.227 248.43 113.188 248.695 113.141V118.789C248.023 119.008 247.32 119.172 246.586 119.281C245.852 119.406 245.07 119.469 244.242 119.469C242.555 119.469 241.109 119.203 239.906 118.672C238.719 118.141 237.812 117.305 237.188 116.164C236.562 115.023 236.25 113.539 236.25 111.711V87.3359ZM277.406 107.422H268.922V101.07H277.406C278.562 101.07 279.5 100.875 280.219 100.484C280.938 100.094 281.461 99.5547 281.789 98.8672C282.133 98.1641 282.305 97.375 282.305 96.5C282.305 95.5625 282.133 94.6953 281.789 93.8984C281.461 93.1016 280.938 92.4609 280.219 91.9766C279.5 91.4766 278.562 91.2266 277.406 91.2266H272.016V119H263.789V84.875H277.406C280.141 84.875 282.492 85.375 284.461 86.375C286.445 87.375 287.969 88.75 289.031 90.5C290.094 92.2344 290.625 94.2188 290.625 96.4531C290.625 98.6562 290.094 100.578 289.031 102.219C287.969 103.859 286.445 105.141 284.461 106.062C282.492 106.969 280.141 107.422 277.406 107.422ZM302.414 83V119H294.516V83H302.414ZM301.477 105.453L299.625 105.5C299.625 103.719 299.844 102.078 300.281 100.578C300.719 99.0781 301.344 97.7734 302.156 96.6641C302.969 95.5547 303.945 94.6953 305.086 94.0859C306.227 93.4766 307.492 93.1719 308.883 93.1719C310.133 93.1719 311.273 93.3516 312.305 93.7109C313.352 94.0703 314.25 94.6484 315 95.4453C315.766 96.2422 316.352 97.2812 316.758 98.5625C317.18 99.8438 317.391 101.406 317.391 103.25V119H309.445V103.203C309.445 102.172 309.297 101.375 309 100.812C308.719 100.234 308.312 99.8359 307.781 99.6172C307.25 99.3828 306.602 99.2656 305.836 99.2656C304.914 99.2656 304.164 99.4219 303.586 99.7344C303.008 100.047 302.562 100.484 302.25 101.047C301.953 101.594 301.75 102.242 301.641 102.992C301.531 103.742 301.477 104.562 301.477 105.453ZM330.117 93.6406V119H322.195V93.6406H330.117ZM321.727 87.1016C321.727 85.9766 322.133 85.0547 322.945 84.3359C323.758 83.6172 324.812 83.2578 326.109 83.2578C327.406 83.2578 328.461 83.6172 329.273 84.3359C330.086 85.0547 330.492 85.9766 330.492 87.1016C330.492 88.2266 330.086 89.1484 329.273 89.8672C328.461 90.5859 327.406 90.9453 326.109 90.9453C324.812 90.9453 323.758 90.5859 322.945 89.8672C322.133 89.1484 321.727 88.2266 321.727 87.1016ZM343.336 83V119H335.414V83H343.336ZM347.227 106.578V106.086C347.227 104.227 347.492 102.516 348.023 100.953C348.555 99.375 349.336 98.0078 350.367 96.8516C351.398 95.6953 352.672 94.7969 354.188 94.1562C355.703 93.5 357.453 93.1719 359.438 93.1719C361.438 93.1719 363.195 93.5 364.711 94.1562C366.242 94.7969 367.523 95.6953 368.555 96.8516C369.586 98.0078 370.367 99.375 370.898 100.953C371.43 102.516 371.695 104.227 371.695 106.086V106.578C371.695 108.422 371.43 110.133 370.898 111.711C370.367 113.273 369.586 114.641 368.555 115.812C367.523 116.969 366.25 117.867 364.734 118.508C363.219 119.148 361.469 119.469 359.484 119.469C357.5 119.469 355.742 119.148 354.211 118.508C352.68 117.867 351.398 116.969 350.367 115.812C349.336 114.641 348.555 113.273 348.023 111.711C347.492 110.133 347.227 108.422 347.227 106.578ZM355.125 106.086V106.578C355.125 107.531 355.195 108.422 355.336 109.25C355.477 110.078 355.711 110.805 356.039 111.43C356.367 112.039 356.812 112.516 357.375 112.859C357.938 113.203 358.641 113.375 359.484 113.375C360.312 113.375 361 113.203 361.547 112.859C362.109 112.516 362.555 112.039 362.883 111.43C363.211 110.805 363.445 110.078 363.586 109.25C363.727 108.422 363.797 107.531 363.797 106.578V106.086C363.797 105.164 363.727 104.297 363.586 103.484C363.445 102.656 363.211 101.93 362.883 101.305C362.555 100.664 362.109 100.164 361.547 99.8047C360.984 99.4453 360.281 99.2656 359.438 99.2656C358.609 99.2656 357.914 99.4453 357.352 99.8047C356.805 100.164 356.367 100.664 356.039 101.305C355.711 101.93 355.477 102.656 355.336 103.484C355.195 104.297 355.125 105.164 355.125 106.086ZM388.5 111.875C388.5 111.438 388.352 111.062 388.055 110.75C387.773 110.422 387.273 110.125 386.555 109.859C385.836 109.578 384.828 109.297 383.531 109.016C382.297 108.75 381.133 108.398 380.039 107.961C378.961 107.523 378.016 106.992 377.203 106.367C376.391 105.742 375.75 105 375.281 104.141C374.828 103.281 374.602 102.297 374.602 101.188C374.602 100.109 374.828 99.0938 375.281 98.1406C375.75 97.1719 376.43 96.3203 377.32 95.5859C378.227 94.8359 379.328 94.25 380.625 93.8281C381.922 93.3906 383.398 93.1719 385.055 93.1719C387.336 93.1719 389.305 93.5234 390.961 94.2266C392.617 94.9141 393.891 95.8828 394.781 97.1328C395.688 98.3672 396.141 99.7969 396.141 101.422H388.242C388.242 100.781 388.133 100.234 387.914 99.7812C387.711 99.3281 387.375 98.9844 386.906 98.75C386.438 98.5 385.812 98.375 385.031 98.375C384.484 98.375 383.984 98.4766 383.531 98.6797C383.094 98.8828 382.742 99.1641 382.477 99.5234C382.211 99.8828 382.078 100.305 382.078 100.789C382.078 101.133 382.156 101.445 382.312 101.727C382.484 101.992 382.742 102.242 383.086 102.477C383.43 102.695 383.867 102.898 384.398 103.086C384.93 103.258 385.57 103.414 386.32 103.555C388.023 103.867 389.617 104.312 391.102 104.891C392.586 105.469 393.789 106.289 394.711 107.352C395.648 108.414 396.117 109.844 396.117 111.641C396.117 112.766 395.859 113.805 395.344 114.758C394.828 115.695 394.086 116.523 393.117 117.242C392.148 117.945 390.984 118.492 389.625 118.883C388.266 119.273 386.734 119.469 385.031 119.469C382.609 119.469 380.562 119.039 378.891 118.18C377.219 117.305 375.953 116.211 375.094 114.898C374.25 113.57 373.828 112.227 373.828 110.867H381.188C381.219 111.648 381.406 112.289 381.75 112.789C382.109 113.289 382.586 113.656 383.18 113.891C383.773 114.125 384.461 114.242 385.242 114.242C385.961 114.242 386.555 114.141 387.023 113.938C387.508 113.734 387.875 113.461 388.125 113.117C388.375 112.758 388.5 112.344 388.5 111.875ZM398.836 106.578V106.086C398.836 104.227 399.102 102.516 399.633 100.953C400.164 99.375 400.945 98.0078 401.977 96.8516C403.008 95.6953 404.281 94.7969 405.797 94.1562C407.312 93.5 409.062 93.1719 411.047 93.1719C413.047 93.1719 414.805 93.5 416.32 94.1562C417.852 94.7969 419.133 95.6953 420.164 96.8516C421.195 98.0078 421.977 99.375 422.508 100.953C423.039 102.516 423.305 104.227 423.305 106.086V106.578C423.305 108.422 423.039 110.133 422.508 111.711C421.977 113.273 421.195 114.641 420.164 115.812C419.133 116.969 417.859 117.867 416.344 118.508C414.828 119.148 413.078 119.469 411.094 119.469C409.109 119.469 407.352 119.148 405.82 118.508C404.289 117.867 403.008 116.969 401.977 115.812C400.945 114.641 400.164 113.273 399.633 111.711C399.102 110.133 398.836 108.422 398.836 106.578ZM406.734 106.086V106.578C406.734 107.531 406.805 108.422 406.945 109.25C407.086 110.078 407.32 110.805 407.648 111.43C407.977 112.039 408.422 112.516 408.984 112.859C409.547 113.203 410.25 113.375 411.094 113.375C411.922 113.375 412.609 113.203 413.156 112.859C413.719 112.516 414.164 112.039 414.492 111.43C414.82 110.805 415.055 110.078 415.195 109.25C415.336 108.422 415.406 107.531 415.406 106.578V106.086C415.406 105.164 415.336 104.297 415.195 103.484C415.055 102.656 414.82 101.93 414.492 101.305C414.164 100.664 413.719 100.164 413.156 99.8047C412.594 99.4453 411.891 99.2656 411.047 99.2656C410.219 99.2656 409.523 99.4453 408.961 99.8047C408.414 100.164 407.977 100.664 407.648 101.305C407.32 101.93 407.086 102.656 406.945 103.484C406.805 104.297 406.734 105.164 406.734 106.086ZM434.789 98.5156V128.75H426.891V93.6406H434.25L434.789 98.5156ZM450.352 106.016V106.508C450.352 108.352 450.141 110.062 449.719 111.641C449.297 113.219 448.672 114.594 447.844 115.766C447.016 116.938 445.984 117.852 444.75 118.508C443.531 119.148 442.117 119.469 440.508 119.469C438.992 119.469 437.688 119.133 436.594 118.461C435.5 117.789 434.586 116.859 433.852 115.672C433.117 114.484 432.523 113.125 432.07 111.594C431.617 110.062 431.258 108.445 430.992 106.742V106.109C431.258 104.281 431.617 102.586 432.07 101.023C432.523 99.4453 433.117 98.0703 433.852 96.8984C434.586 95.7266 435.492 94.8125 436.57 94.1562C437.664 93.5 438.969 93.1719 440.484 93.1719C442.094 93.1719 443.508 93.4766 444.727 94.0859C445.961 94.6953 446.992 95.5703 447.82 96.7109C448.664 97.8359 449.297 99.1875 449.719 100.766C450.141 102.344 450.352 104.094 450.352 106.016ZM442.453 106.508V106.016C442.453 105.031 442.383 104.133 442.242 103.32C442.102 102.492 441.875 101.773 441.562 101.164C441.266 100.555 440.867 100.086 440.367 99.7578C439.867 99.4297 439.25 99.2656 438.516 99.2656C437.672 99.2656 436.961 99.3984 436.383 99.6641C435.82 99.9141 435.367 100.305 435.023 100.836C434.695 101.352 434.461 102 434.32 102.781C434.195 103.547 434.141 104.445 434.156 105.477V107.398C434.125 108.586 434.242 109.633 434.508 110.539C434.773 111.43 435.234 112.125 435.891 112.625C436.547 113.125 437.438 113.375 438.562 113.375C439.312 113.375 439.938 113.203 440.438 112.859C440.938 112.5 441.336 112.008 441.633 111.383C441.93 110.742 442.141 110.008 442.266 109.18C442.391 108.352 442.453 107.461 442.453 106.508ZM461.602 83V119H453.703V83H461.602ZM460.664 105.453L458.812 105.5C458.812 103.719 459.031 102.078 459.469 100.578C459.906 99.0781 460.531 97.7734 461.344 96.6641C462.156 95.5547 463.133 94.6953 464.273 94.0859C465.414 93.4766 466.68 93.1719 468.07 93.1719C469.32 93.1719 470.461 93.3516 471.492 93.7109C472.539 94.0703 473.438 94.6484 474.188 95.4453C474.953 96.2422 475.539 97.2812 475.945 98.5625C476.367 99.8438 476.578 101.406 476.578 103.25V119H468.633V103.203C468.633 102.172 468.484 101.375 468.188 100.812C467.906 100.234 467.5 99.8359 466.969 99.6172C466.438 99.3828 465.789 99.2656 465.023 99.2656C464.102 99.2656 463.352 99.4219 462.773 99.7344C462.195 100.047 461.75 100.484 461.438 101.047C461.141 101.594 460.938 102.242 460.828 102.992C460.719 103.742 460.664 104.562 460.664 105.453ZM488.742 116.023L495.305 93.6406H503.789L493.594 122.773C493.375 123.414 493.086 124.102 492.727 124.836C492.367 125.586 491.875 126.297 491.25 126.969C490.625 127.641 489.82 128.188 488.836 128.609C487.867 129.031 486.664 129.242 485.227 129.242C484.461 129.242 483.898 129.203 483.539 129.125C483.195 129.062 482.664 128.945 481.945 128.773V123.125C482.148 123.125 482.32 123.125 482.461 123.125C482.617 123.125 482.789 123.125 482.977 123.125C483.82 123.125 484.492 123.039 484.992 122.867C485.508 122.695 485.898 122.445 486.164 122.117C486.445 121.789 486.664 121.391 486.82 120.922L488.742 116.023ZM487.078 93.6406L492.07 111.383L492.938 119.75H487.641L478.617 93.6406H487.078Z" fill="black"/>
<path d="M1134 0H1348C1356.28 0 1363 6.71573 1363 15V148C1363 156.284 1356.28 163 1348 163H1134V0Z" fill="#00B0DC"/>
<path d="M1234.26 103.786H1262.74V109.357H1234.26V103.786ZM1239.96 114.929H1257.04V120.5H1239.96V114.929ZM1248.5 42.5C1240.95 42.5 1233.71 45.4349 1228.37 50.6592C1223.03 55.8834 1220.03 62.969 1220.03 70.3571C1219.84 74.4057 1220.63 78.4412 1222.34 82.1315C1224.05 85.8219 1226.64 89.0616 1229.88 91.5843C1232.73 94.175 1234.26 95.6514 1234.26 98.2143H1239.96C1239.96 93.0886 1236.8 90.2193 1233.72 87.4614C1231.06 85.4676 1228.94 82.8658 1227.55 79.8838C1226.15 76.9019 1225.53 73.6308 1225.72 70.3571C1225.72 64.4466 1228.12 58.7781 1232.39 54.5988C1236.67 50.4194 1242.46 48.0714 1248.5 48.0714C1254.54 48.0714 1260.33 50.4194 1264.61 54.5988C1268.88 58.7781 1271.28 64.4466 1271.28 70.3571C1271.47 73.6333 1270.84 76.9059 1269.44 79.888C1268.04 82.8701 1265.92 85.4706 1263.25 87.4614C1260.2 90.2471 1257.04 93.0329 1257.04 98.2143H1262.74C1262.74 95.6514 1264.25 94.175 1267.12 91.5564C1270.36 89.0381 1272.94 85.8031 1274.66 82.1176C1276.37 78.4321 1277.16 74.4014 1276.97 70.3571C1276.97 66.6989 1276.24 63.0765 1274.81 59.6967C1273.37 56.3169 1271.28 53.2459 1268.63 50.6592C1265.99 48.0724 1262.85 46.0205 1259.4 44.6205C1255.94 43.2205 1252.24 42.5 1248.5 42.5Z" fill="white"/>
</svg>
