<svg width="1363" height="163" viewBox="0 0 1363 163" fill="none" xmlns="http://www.w3.org/2000/svg">
<path d="M0 15C0 6.71573 6.71573 0 15 0H37V163H15C6.71573 163 0 156.284 0 148V15Z" fill="#0087A9"/>
<rect width="1097" height="163" transform="translate(37)" fill="#F0F0F0"/>
<path d="M101.906 53.9219L94.3945 51.2383V48.0859L104.602 52.375V54.6367L101.906 53.9219ZM94.3945 56.1719L101.918 53.4297L104.602 52.7852V55.0352L94.3945 59.3242V56.1719ZM118.137 61H114.422L114.445 58.2578H118.137C119.059 58.2578 119.836 58.0508 120.469 57.6367C121.102 57.2148 121.578 56.6016 121.898 55.7969C122.227 54.9922 122.391 54.0195 122.391 52.8789V52.0469C122.391 51.1719 122.297 50.4023 122.109 49.7383C121.93 49.0742 121.66 48.5156 121.301 48.0625C120.941 47.6094 120.5 47.2695 119.977 47.043C119.453 46.8086 118.852 46.6914 118.172 46.6914H114.352V43.9375H118.172C119.312 43.9375 120.355 44.1328 121.301 44.5234C122.254 44.9062 123.078 45.457 123.773 46.1758C124.469 46.8945 125.004 47.7539 125.379 48.7539C125.762 49.7461 125.953 50.8516 125.953 52.0703V52.8789C125.953 54.0898 125.762 55.1953 125.379 56.1953C125.004 57.1953 124.469 58.0547 123.773 58.7734C123.086 59.4844 122.262 60.0352 121.301 60.4258C120.348 60.8086 119.293 61 118.137 61ZM116.414 43.9375V61H112.898V43.9375H116.414ZM135.141 58.1406V52.4922C135.141 52.0859 135.074 51.7383 134.941 51.4492C134.809 51.1523 134.602 50.9219 134.32 50.7578C134.047 50.5938 133.691 50.5117 133.254 50.5117C132.879 50.5117 132.555 50.5781 132.281 50.7109C132.008 50.8359 131.797 51.0195 131.648 51.2617C131.5 51.4961 131.426 51.7734 131.426 52.0938H128.051C128.051 51.5547 128.176 51.043 128.426 50.5586C128.676 50.0742 129.039 49.6484 129.516 49.2812C129.992 48.9062 130.559 48.6133 131.215 48.4023C131.879 48.1914 132.621 48.0859 133.441 48.0859C134.426 48.0859 135.301 48.25 136.066 48.5781C136.832 48.9062 137.434 49.3984 137.871 50.0547C138.316 50.7109 138.539 51.5312 138.539 52.5156V57.9414C138.539 58.6367 138.582 59.207 138.668 59.6523C138.754 60.0898 138.879 60.4727 139.043 60.8008V61H135.633C135.469 60.6562 135.344 60.2266 135.258 59.7109C135.18 59.1875 135.141 58.6641 135.141 58.1406ZM135.586 53.2773L135.609 55.1875H133.723C133.277 55.1875 132.891 55.2383 132.562 55.3398C132.234 55.4414 131.965 55.5859 131.754 55.7734C131.543 55.9531 131.387 56.1641 131.285 56.4062C131.191 56.6484 131.145 56.9141 131.145 57.2031C131.145 57.4922 131.211 57.7539 131.344 57.9883C131.477 58.2148 131.668 58.3945 131.918 58.5273C132.168 58.6523 132.461 58.7148 132.797 58.7148C133.305 58.7148 133.746 58.6133 134.121 58.4102C134.496 58.207 134.785 57.957 134.988 57.6602C135.199 57.3633 135.309 57.082 135.316 56.8164L136.207 58.2461C136.082 58.5664 135.91 58.8984 135.691 59.2422C135.48 59.5859 135.211 59.9102 134.883 60.2148C134.555 60.5117 134.16 60.7578 133.699 60.9531C133.238 61.1406 132.691 61.2344 132.059 61.2344C131.254 61.2344 130.523 61.0742 129.867 60.7539C129.219 60.4258 128.703 59.9766 128.32 59.4062C127.945 58.8281 127.758 58.1719 127.758 57.4375C127.758 56.7734 127.883 56.1836 128.133 55.668C128.383 55.1523 128.75 54.7188 129.234 54.3672C129.727 54.0078 130.34 53.7383 131.074 53.5586C131.809 53.3711 132.66 53.2773 133.629 53.2773H135.586ZM147.352 48.3203V50.7109H139.969V48.3203H147.352ZM141.797 45.1914H145.172V57.1797C145.172 57.5469 145.219 57.8281 145.312 58.0234C145.414 58.2188 145.562 58.3555 145.758 58.4336C145.953 58.5039 146.199 58.5391 146.496 58.5391C146.707 58.5391 146.895 58.5312 147.059 58.5156C147.23 58.4922 147.375 58.4688 147.492 58.4453L147.504 60.9297C147.215 61.0234 146.902 61.0977 146.566 61.1523C146.23 61.207 145.859 61.2344 145.453 61.2344C144.711 61.2344 144.062 61.1133 143.508 60.8711C142.961 60.6211 142.539 60.2227 142.242 59.6758C141.945 59.1289 141.797 58.4102 141.797 57.5195V45.1914ZM156.117 58.1406V52.4922C156.117 52.0859 156.051 51.7383 155.918 51.4492C155.785 51.1523 155.578 50.9219 155.297 50.7578C155.023 50.5938 154.668 50.5117 154.23 50.5117C153.855 50.5117 153.531 50.5781 153.258 50.7109C152.984 50.8359 152.773 51.0195 152.625 51.2617C152.477 51.4961 152.402 51.7734 152.402 52.0938H149.027C149.027 51.5547 149.152 51.043 149.402 50.5586C149.652 50.0742 150.016 49.6484 150.492 49.2812C150.969 48.9062 151.535 48.6133 152.191 48.4023C152.855 48.1914 153.598 48.0859 154.418 48.0859C155.402 48.0859 156.277 48.25 157.043 48.5781C157.809 48.9062 158.41 49.3984 158.848 50.0547C159.293 50.7109 159.516 51.5312 159.516 52.5156V57.9414C159.516 58.6367 159.559 59.207 159.645 59.6523C159.73 60.0898 159.855 60.4727 160.02 60.8008V61H156.609C156.445 60.6562 156.32 60.2266 156.234 59.7109C156.156 59.1875 156.117 58.6641 156.117 58.1406ZM156.562 53.2773L156.586 55.1875H154.699C154.254 55.1875 153.867 55.2383 153.539 55.3398C153.211 55.4414 152.941 55.5859 152.73 55.7734C152.52 55.9531 152.363 56.1641 152.262 56.4062C152.168 56.6484 152.121 56.9141 152.121 57.2031C152.121 57.4922 152.188 57.7539 152.32 57.9883C152.453 58.2148 152.645 58.3945 152.895 58.5273C153.145 58.6523 153.438 58.7148 153.773 58.7148C154.281 58.7148 154.723 58.6133 155.098 58.4102C155.473 58.207 155.762 57.957 155.965 57.6602C156.176 57.3633 156.285 57.082 156.293 56.8164L157.184 58.2461C157.059 58.5664 156.887 58.8984 156.668 59.2422C156.457 59.5859 156.188 59.9102 155.859 60.2148C155.531 60.5117 155.137 60.7578 154.676 60.9531C154.215 61.1406 153.668 61.2344 153.035 61.2344C152.23 61.2344 151.5 61.0742 150.844 60.7539C150.195 60.4258 149.68 59.9766 149.297 59.4062C148.922 58.8281 148.734 58.1719 148.734 57.4375C148.734 56.7734 148.859 56.1836 149.109 55.668C149.359 55.1523 149.727 54.7188 150.211 54.3672C150.703 54.0078 151.316 53.7383 152.051 53.5586C152.785 53.3711 153.637 53.2773 154.605 53.2773H156.562ZM175.207 55.7617V43.9375H178.711V55.7617C178.711 56.9023 178.461 57.8828 177.961 58.7031C177.461 59.5156 176.777 60.1406 175.91 60.5781C175.051 61.0156 174.082 61.2344 173.004 61.2344C171.887 61.2344 170.898 61.0469 170.039 60.6719C169.18 60.2969 168.504 59.7227 168.012 58.9492C167.52 58.168 167.273 57.1797 167.273 55.9844H170.801C170.801 56.6094 170.887 57.1055 171.059 57.4727C171.238 57.8398 171.492 58.1016 171.82 58.2578C172.148 58.4141 172.543 58.4922 173.004 58.4922C173.449 58.4922 173.836 58.3867 174.164 58.1758C174.492 57.9648 174.746 57.6562 174.926 57.25C175.113 56.8438 175.207 56.3477 175.207 55.7617ZM180.961 54.7891V54.543C180.961 53.6133 181.094 52.7578 181.359 51.9766C181.625 51.1875 182.012 50.5039 182.52 49.9258C183.027 49.3477 183.652 48.8984 184.395 48.5781C185.137 48.25 185.988 48.0859 186.949 48.0859C187.91 48.0859 188.766 48.25 189.516 48.5781C190.266 48.8984 190.895 49.3477 191.402 49.9258C191.918 50.5039 192.309 51.1875 192.574 51.9766C192.84 52.7578 192.973 53.6133 192.973 54.543V54.7891C192.973 55.7109 192.84 56.5664 192.574 57.3555C192.309 58.1367 191.918 58.8203 191.402 59.4062C190.895 59.9844 190.27 60.4336 189.527 60.7539C188.785 61.0742 187.934 61.2344 186.973 61.2344C186.012 61.2344 185.156 61.0742 184.406 60.7539C183.664 60.4336 183.035 59.9844 182.52 59.4062C182.012 58.8203 181.625 58.1367 181.359 57.3555C181.094 56.5664 180.961 55.7109 180.961 54.7891ZM184.336 54.543V54.7891C184.336 55.3203 184.383 55.8164 184.477 56.2773C184.57 56.7383 184.719 57.1445 184.922 57.4961C185.133 57.8398 185.406 58.1094 185.742 58.3047C186.078 58.5 186.488 58.5977 186.973 58.5977C187.441 58.5977 187.844 58.5 188.18 58.3047C188.516 58.1094 188.785 57.8398 188.988 57.4961C189.191 57.1445 189.34 56.7383 189.434 56.2773C189.535 55.8164 189.586 55.3203 189.586 54.7891V54.543C189.586 54.0273 189.535 53.543 189.434 53.0898C189.34 52.6289 189.188 52.2227 188.977 51.8711C188.773 51.5117 188.504 51.2305 188.168 51.0273C187.832 50.8242 187.426 50.7227 186.949 50.7227C186.473 50.7227 186.066 50.8242 185.73 51.0273C185.402 51.2305 185.133 51.5117 184.922 51.8711C184.719 52.2227 184.57 52.6289 184.477 53.0898C184.383 53.543 184.336 54.0273 184.336 54.543ZM195.047 43H198.422V58.0938L198.082 61H195.047V43ZM206.449 54.5312V54.7773C206.449 55.7227 206.348 56.5898 206.145 57.3789C205.949 58.168 205.645 58.8516 205.23 59.4297C204.816 60 204.301 60.4453 203.684 60.7656C203.074 61.0781 202.355 61.2344 201.527 61.2344C200.754 61.2344 200.082 61.0781 199.512 60.7656C198.949 60.4531 198.477 60.0117 198.094 59.4414C197.711 58.8711 197.402 58.2031 197.168 57.4375C196.934 56.6719 196.758 55.8359 196.641 54.9297V54.3906C196.758 53.4844 196.934 52.6484 197.168 51.8828C197.402 51.1172 197.711 50.4492 198.094 49.8789C198.477 49.3086 198.949 48.8672 199.512 48.5547C200.074 48.2422 200.738 48.0859 201.504 48.0859C202.34 48.0859 203.066 48.2461 203.684 48.5664C204.309 48.8789 204.824 49.3242 205.23 49.9023C205.645 50.4727 205.949 51.1523 206.145 51.9414C206.348 52.7227 206.449 53.5859 206.449 54.5312ZM203.074 54.7773V54.5312C203.074 54.0156 203.035 53.5312 202.957 53.0781C202.887 52.6172 202.762 52.2148 202.582 51.8711C202.402 51.5195 202.156 51.2422 201.844 51.0391C201.539 50.8359 201.145 50.7344 200.66 50.7344C200.199 50.7344 199.809 50.8125 199.488 50.9688C199.168 51.125 198.902 51.3438 198.691 51.625C198.488 51.9062 198.336 52.2422 198.234 52.6328C198.133 53.0156 198.07 53.4375 198.047 53.8984V55.4336C198.07 56.0508 198.172 56.5977 198.352 57.0742C198.539 57.543 198.82 57.9141 199.195 58.1875C199.578 58.4531 200.074 58.5859 200.684 58.5859C201.16 58.5859 201.555 58.4922 201.867 58.3047C202.18 58.1172 202.422 57.8516 202.594 57.5078C202.773 57.1641 202.898 56.7617 202.969 56.3008C203.039 55.832 203.074 55.3242 203.074 54.7773ZM215.402 57.4961C215.402 57.2539 215.332 57.0352 215.191 56.8398C215.051 56.6445 214.789 56.4648 214.406 56.3008C214.031 56.1289 213.488 55.9727 212.777 55.832C212.137 55.6914 211.539 55.5156 210.984 55.3047C210.438 55.0859 209.961 54.8242 209.555 54.5195C209.156 54.2148 208.844 53.8555 208.617 53.4414C208.391 53.0195 208.277 52.5391 208.277 52C208.277 51.4688 208.391 50.9688 208.617 50.5C208.852 50.0312 209.184 49.6172 209.613 49.2578C210.051 48.8906 210.582 48.6055 211.207 48.4023C211.84 48.1914 212.551 48.0859 213.34 48.0859C214.441 48.0859 215.387 48.2617 216.176 48.6133C216.973 48.9648 217.582 49.4492 218.004 50.0664C218.434 50.6758 218.648 51.3711 218.648 52.1523H215.273C215.273 51.8242 215.203 51.5312 215.062 51.2734C214.93 51.0078 214.719 50.8008 214.43 50.6523C214.148 50.4961 213.781 50.418 213.328 50.418C212.953 50.418 212.629 50.4844 212.355 50.6172C212.082 50.7422 211.871 50.9141 211.723 51.1328C211.582 51.3438 211.512 51.5781 211.512 51.8359C211.512 52.0312 211.551 52.207 211.629 52.3633C211.715 52.5117 211.852 52.6484 212.039 52.7734C212.227 52.8984 212.469 53.0156 212.766 53.125C213.07 53.2266 213.445 53.3203 213.891 53.4062C214.805 53.5938 215.621 53.8398 216.34 54.1445C217.059 54.4414 217.629 54.8477 218.051 55.3633C218.473 55.8711 218.684 56.5391 218.684 57.3672C218.684 57.9297 218.559 58.4453 218.309 58.9141C218.059 59.3828 217.699 59.793 217.23 60.1445C216.762 60.4883 216.199 60.7578 215.543 60.9531C214.895 61.1406 214.164 61.2344 213.352 61.2344C212.172 61.2344 211.172 61.0234 210.352 60.6016C209.539 60.1797 208.922 59.6445 208.5 58.9961C208.086 58.3398 207.879 57.668 207.879 56.9805H211.078C211.094 57.4414 211.211 57.8125 211.43 58.0938C211.656 58.375 211.941 58.5781 212.285 58.7031C212.637 58.8281 213.016 58.8906 213.422 58.8906C213.859 58.8906 214.223 58.832 214.512 58.7148C214.801 58.5898 215.02 58.4258 215.168 58.2227C215.324 58.0117 215.402 57.7695 215.402 57.4961ZM228.668 43.9375H231.645L236.027 56.4648L240.41 43.9375H243.387L237.223 61H234.832L228.668 43.9375ZM227.062 43.9375H230.027L230.566 56.1484V61H227.062V43.9375ZM242.027 43.9375H245.004V61H241.488V56.1484L242.027 43.9375ZM254.719 58.1406V52.4922C254.719 52.0859 254.652 51.7383 254.52 51.4492C254.387 51.1523 254.18 50.9219 253.898 50.7578C253.625 50.5938 253.27 50.5117 252.832 50.5117C252.457 50.5117 252.133 50.5781 251.859 50.7109C251.586 50.8359 251.375 51.0195 251.227 51.2617C251.078 51.4961 251.004 51.7734 251.004 52.0938H247.629C247.629 51.5547 247.754 51.043 248.004 50.5586C248.254 50.0742 248.617 49.6484 249.094 49.2812C249.57 48.9062 250.137 48.6133 250.793 48.4023C251.457 48.1914 252.199 48.0859 253.02 48.0859C254.004 48.0859 254.879 48.25 255.645 48.5781C256.41 48.9062 257.012 49.3984 257.449 50.0547C257.895 50.7109 258.117 51.5312 258.117 52.5156V57.9414C258.117 58.6367 258.16 59.207 258.246 59.6523C258.332 60.0898 258.457 60.4727 258.621 60.8008V61H255.211C255.047 60.6562 254.922 60.2266 254.836 59.7109C254.758 59.1875 254.719 58.6641 254.719 58.1406ZM255.164 53.2773L255.188 55.1875H253.301C252.855 55.1875 252.469 55.2383 252.141 55.3398C251.812 55.4414 251.543 55.5859 251.332 55.7734C251.121 55.9531 250.965 56.1641 250.863 56.4062C250.77 56.6484 250.723 56.9141 250.723 57.2031C250.723 57.4922 250.789 57.7539 250.922 57.9883C251.055 58.2148 251.246 58.3945 251.496 58.5273C251.746 58.6523 252.039 58.7148 252.375 58.7148C252.883 58.7148 253.324 58.6133 253.699 58.4102C254.074 58.207 254.363 57.957 254.566 57.6602C254.777 57.3633 254.887 57.082 254.895 56.8164L255.785 58.2461C255.66 58.5664 255.488 58.8984 255.27 59.2422C255.059 59.5859 254.789 59.9102 254.461 60.2148C254.133 60.5117 253.738 60.7578 253.277 60.9531C252.816 61.1406 252.27 61.2344 251.637 61.2344C250.832 61.2344 250.102 61.0742 249.445 60.7539C248.797 60.4258 248.281 59.9766 247.898 59.4062C247.523 58.8281 247.336 58.1719 247.336 57.4375C247.336 56.7734 247.461 56.1836 247.711 55.668C247.961 55.1523 248.328 54.7188 248.812 54.3672C249.305 54.0078 249.918 53.7383 250.652 53.5586C251.387 53.3711 252.238 53.2773 253.207 53.2773H255.164ZM264.094 51.0859V61H260.719V48.3203H263.895L264.094 51.0859ZM267.914 48.2383L267.855 51.3672C267.691 51.3438 267.492 51.3242 267.258 51.3086C267.031 51.2852 266.824 51.2734 266.637 51.2734C266.16 51.2734 265.746 51.3359 265.395 51.4609C265.051 51.5781 264.762 51.7539 264.527 51.9883C264.301 52.2227 264.129 52.5078 264.012 52.8438C263.902 53.1797 263.84 53.5625 263.824 53.9922L263.145 53.7812C263.145 52.9609 263.227 52.207 263.391 51.5195C263.555 50.8242 263.793 50.2188 264.105 49.7031C264.426 49.1875 264.816 48.7891 265.277 48.5078C265.738 48.2266 266.266 48.0859 266.859 48.0859C267.047 48.0859 267.238 48.1016 267.434 48.1328C267.629 48.1562 267.789 48.1914 267.914 48.2383ZM272.883 42.9883V61H269.508V42.9883H272.883ZM280.875 48.3203L275.367 54.6016L272.414 57.5898L271.184 55.1523L273.527 52.1758L276.82 48.3203H280.875ZM277.371 61L273.621 55.1406L275.953 53.1016L281.262 61H277.371ZM287.93 61.2344C286.945 61.2344 286.062 61.0781 285.281 60.7656C284.5 60.4453 283.836 60.0039 283.289 59.4414C282.75 58.8789 282.336 58.2266 282.047 57.4844C281.758 56.7344 281.613 55.9375 281.613 55.0938V54.625C281.613 53.6641 281.75 52.7852 282.023 51.9883C282.297 51.1914 282.688 50.5 283.195 49.9141C283.711 49.3281 284.336 48.8789 285.07 48.5664C285.805 48.2461 286.633 48.0859 287.555 48.0859C288.453 48.0859 289.25 48.2344 289.945 48.5312C290.641 48.8281 291.223 49.25 291.691 49.7969C292.168 50.3438 292.527 51 292.77 51.7656C293.012 52.5234 293.133 53.3672 293.133 54.2969V55.7031H283.055V53.4531H289.816V53.1953C289.816 52.7266 289.73 52.3086 289.559 51.9414C289.395 51.5664 289.145 51.2695 288.809 51.0508C288.473 50.832 288.043 50.7227 287.52 50.7227C287.074 50.7227 286.691 50.8203 286.371 51.0156C286.051 51.2109 285.789 51.4844 285.586 51.8359C285.391 52.1875 285.242 52.6016 285.141 53.0781C285.047 53.5469 285 54.0625 285 54.625V55.0938C285 55.6016 285.07 56.0703 285.211 56.5C285.359 56.9297 285.566 57.3008 285.832 57.6133C286.105 57.9258 286.434 58.168 286.816 58.3398C287.207 58.5117 287.648 58.5977 288.141 58.5977C288.75 58.5977 289.316 58.4805 289.84 58.2461C290.371 58.0039 290.828 57.6406 291.211 57.1562L292.852 58.9375C292.586 59.3203 292.223 59.6875 291.762 60.0391C291.309 60.3906 290.762 60.6797 290.121 60.9062C289.48 61.125 288.75 61.2344 287.93 61.2344ZM301.266 48.3203V50.7109H293.883V48.3203H301.266ZM295.711 45.1914H299.086V57.1797C299.086 57.5469 299.133 57.8281 299.227 58.0234C299.328 58.2188 299.477 58.3555 299.672 58.4336C299.867 58.5039 300.113 58.5391 300.41 58.5391C300.621 58.5391 300.809 58.5312 300.973 58.5156C301.145 58.4922 301.289 58.4688 301.406 58.4453L301.418 60.9297C301.129 61.0234 300.816 61.0977 300.48 61.1523C300.145 61.207 299.773 61.2344 299.367 61.2344C298.625 61.2344 297.977 61.1133 297.422 60.8711C296.875 60.6211 296.453 60.2227 296.156 59.6758C295.859 59.1289 295.711 58.4102 295.711 57.5195V45.1914ZM316.312 46.8555L311.672 61H307.934L314.273 43.9375H316.652L316.312 46.8555ZM320.168 61L315.516 46.8555L315.141 43.9375H317.543L323.918 61H320.168ZM319.957 54.6484V57.4023H310.945V54.6484H319.957ZM328.219 51.0273V61H324.844V48.3203H328.008L328.219 51.0273ZM327.727 54.2148H326.812C326.812 53.2773 326.934 52.4336 327.176 51.6836C327.418 50.9258 327.758 50.2812 328.195 49.75C328.633 49.2109 329.152 48.8008 329.754 48.5195C330.363 48.2305 331.043 48.0859 331.793 48.0859C332.387 48.0859 332.93 48.1719 333.422 48.3438C333.914 48.5156 334.336 48.7891 334.688 49.1641C335.047 49.5391 335.32 50.0352 335.508 50.6523C335.703 51.2695 335.801 52.0234 335.801 52.9141V61H332.402V52.9023C332.402 52.3398 332.324 51.9023 332.168 51.5898C332.012 51.2773 331.781 51.0586 331.477 50.9336C331.18 50.8008 330.812 50.7344 330.375 50.7344C329.922 50.7344 329.527 50.8242 329.191 51.0039C328.863 51.1836 328.59 51.4336 328.371 51.7539C328.16 52.0664 328 52.4336 327.891 52.8555C327.781 53.2773 327.727 53.7305 327.727 54.2148ZM345.211 58.1406V52.4922C345.211 52.0859 345.145 51.7383 345.012 51.4492C344.879 51.1523 344.672 50.9219 344.391 50.7578C344.117 50.5938 343.762 50.5117 343.324 50.5117C342.949 50.5117 342.625 50.5781 342.352 50.7109C342.078 50.8359 341.867 51.0195 341.719 51.2617C341.57 51.4961 341.496 51.7734 341.496 52.0938H338.121C338.121 51.5547 338.246 51.043 338.496 50.5586C338.746 50.0742 339.109 49.6484 339.586 49.2812C340.062 48.9062 340.629 48.6133 341.285 48.4023C341.949 48.1914 342.691 48.0859 343.512 48.0859C344.496 48.0859 345.371 48.25 346.137 48.5781C346.902 48.9062 347.504 49.3984 347.941 50.0547C348.387 50.7109 348.609 51.5312 348.609 52.5156V57.9414C348.609 58.6367 348.652 59.207 348.738 59.6523C348.824 60.0898 348.949 60.4727 349.113 60.8008V61H345.703C345.539 60.6562 345.414 60.2266 345.328 59.7109C345.25 59.1875 345.211 58.6641 345.211 58.1406ZM345.656 53.2773L345.68 55.1875H343.793C343.348 55.1875 342.961 55.2383 342.633 55.3398C342.305 55.4414 342.035 55.5859 341.824 55.7734C341.613 55.9531 341.457 56.1641 341.355 56.4062C341.262 56.6484 341.215 56.9141 341.215 57.2031C341.215 57.4922 341.281 57.7539 341.414 57.9883C341.547 58.2148 341.738 58.3945 341.988 58.5273C342.238 58.6523 342.531 58.7148 342.867 58.7148C343.375 58.7148 343.816 58.6133 344.191 58.4102C344.566 58.207 344.855 57.957 345.059 57.6602C345.27 57.3633 345.379 57.082 345.387 56.8164L346.277 58.2461C346.152 58.5664 345.98 58.8984 345.762 59.2422C345.551 59.5859 345.281 59.9102 344.953 60.2148C344.625 60.5117 344.23 60.7578 343.77 60.9531C343.309 61.1406 342.762 61.2344 342.129 61.2344C341.324 61.2344 340.594 61.0742 339.938 60.7539C339.289 60.4258 338.773 59.9766 338.391 59.4062C338.016 58.8281 337.828 58.1719 337.828 57.4375C337.828 56.7734 337.953 56.1836 338.203 55.668C338.453 55.1523 338.82 54.7188 339.305 54.3672C339.797 54.0078 340.41 53.7383 341.145 53.5586C341.879 53.3711 342.73 53.2773 343.699 53.2773H345.656ZM354.773 43V61H351.387V43H354.773ZM361.324 59.5703L364.688 48.3203H368.309L363.211 62.9102C363.102 63.2305 362.953 63.5742 362.766 63.9414C362.586 64.3086 362.34 64.6562 362.027 64.9844C361.723 65.3203 361.336 65.5938 360.867 65.8047C360.406 66.0156 359.84 66.1211 359.168 66.1211C358.848 66.1211 358.586 66.1016 358.383 66.0625C358.18 66.0234 357.938 65.9688 357.656 65.8984V63.4258C357.742 63.4258 357.832 63.4258 357.926 63.4258C358.02 63.4336 358.109 63.4375 358.195 63.4375C358.641 63.4375 359.004 63.3867 359.285 63.2852C359.566 63.1836 359.793 63.0273 359.965 62.8164C360.137 62.6133 360.273 62.3477 360.375 62.0195L361.324 59.5703ZM359.918 48.3203L362.672 57.5078L363.152 61.082L360.855 61.3281L356.297 48.3203H359.918ZM376.512 57.4961C376.512 57.2539 376.441 57.0352 376.301 56.8398C376.16 56.6445 375.898 56.4648 375.516 56.3008C375.141 56.1289 374.598 55.9727 373.887 55.832C373.246 55.6914 372.648 55.5156 372.094 55.3047C371.547 55.0859 371.07 54.8242 370.664 54.5195C370.266 54.2148 369.953 53.8555 369.727 53.4414C369.5 53.0195 369.387 52.5391 369.387 52C369.387 51.4688 369.5 50.9688 369.727 50.5C369.961 50.0312 370.293 49.6172 370.723 49.2578C371.16 48.8906 371.691 48.6055 372.316 48.4023C372.949 48.1914 373.66 48.0859 374.449 48.0859C375.551 48.0859 376.496 48.2617 377.285 48.6133C378.082 48.9648 378.691 49.4492 379.113 50.0664C379.543 50.6758 379.758 51.3711 379.758 52.1523H376.383C376.383 51.8242 376.312 51.5312 376.172 51.2734C376.039 51.0078 375.828 50.8008 375.539 50.6523C375.258 50.4961 374.891 50.418 374.438 50.418C374.062 50.418 373.738 50.4844 373.465 50.6172C373.191 50.7422 372.98 50.9141 372.832 51.1328C372.691 51.3438 372.621 51.5781 372.621 51.8359C372.621 52.0312 372.66 52.207 372.738 52.3633C372.824 52.5117 372.961 52.6484 373.148 52.7734C373.336 52.8984 373.578 53.0156 373.875 53.125C374.18 53.2266 374.555 53.3203 375 53.4062C375.914 53.5938 376.73 53.8398 377.449 54.1445C378.168 54.4414 378.738 54.8477 379.16 55.3633C379.582 55.8711 379.793 56.5391 379.793 57.3672C379.793 57.9297 379.668 58.4453 379.418 58.9141C379.168 59.3828 378.809 59.793 378.34 60.1445C377.871 60.4883 377.309 60.7578 376.652 60.9531C376.004 61.1406 375.273 61.2344 374.461 61.2344C373.281 61.2344 372.281 61.0234 371.461 60.6016C370.648 60.1797 370.031 59.6445 369.609 58.9961C369.195 58.3398 368.988 57.668 368.988 56.9805H372.188C372.203 57.4414 372.32 57.8125 372.539 58.0938C372.766 58.375 373.051 58.5781 373.395 58.7031C373.746 58.8281 374.125 58.8906 374.531 58.8906C374.969 58.8906 375.332 58.832 375.621 58.7148C375.91 58.5898 376.129 58.4258 376.277 58.2227C376.434 58.0117 376.512 57.7695 376.512 57.4961ZM385.547 48.3203V61H382.16V48.3203H385.547ZM381.949 45.0156C381.949 44.5234 382.121 44.1172 382.465 43.7969C382.809 43.4766 383.27 43.3164 383.848 43.3164C384.418 43.3164 384.875 43.4766 385.219 43.7969C385.57 44.1172 385.746 44.5234 385.746 45.0156C385.746 45.5078 385.57 45.9141 385.219 46.2344C384.875 46.5547 384.418 46.7148 383.848 46.7148C383.27 46.7148 382.809 46.5547 382.465 46.2344C382.121 45.9141 381.949 45.5078 381.949 45.0156ZM395.191 57.4961C395.191 57.2539 395.121 57.0352 394.98 56.8398C394.84 56.6445 394.578 56.4648 394.195 56.3008C393.82 56.1289 393.277 55.9727 392.566 55.832C391.926 55.6914 391.328 55.5156 390.773 55.3047C390.227 55.0859 389.75 54.8242 389.344 54.5195C388.945 54.2148 388.633 53.8555 388.406 53.4414C388.18 53.0195 388.066 52.5391 388.066 52C388.066 51.4688 388.18 50.9688 388.406 50.5C388.641 50.0312 388.973 49.6172 389.402 49.2578C389.84 48.8906 390.371 48.6055 390.996 48.4023C391.629 48.1914 392.34 48.0859 393.129 48.0859C394.23 48.0859 395.176 48.2617 395.965 48.6133C396.762 48.9648 397.371 49.4492 397.793 50.0664C398.223 50.6758 398.438 51.3711 398.438 52.1523H395.062C395.062 51.8242 394.992 51.5312 394.852 51.2734C394.719 51.0078 394.508 50.8008 394.219 50.6523C393.938 50.4961 393.57 50.418 393.117 50.418C392.742 50.418 392.418 50.4844 392.145 50.6172C391.871 50.7422 391.66 50.9141 391.512 51.1328C391.371 51.3438 391.301 51.5781 391.301 51.8359C391.301 52.0312 391.34 52.207 391.418 52.3633C391.504 52.5117 391.641 52.6484 391.828 52.7734C392.016 52.8984 392.258 53.0156 392.555 53.125C392.859 53.2266 393.234 53.3203 393.68 53.4062C394.594 53.5938 395.41 53.8398 396.129 54.1445C396.848 54.4414 397.418 54.8477 397.84 55.3633C398.262 55.8711 398.473 56.5391 398.473 57.3672C398.473 57.9297 398.348 58.4453 398.098 58.9141C397.848 59.3828 397.488 59.793 397.02 60.1445C396.551 60.4883 395.988 60.7578 395.332 60.9531C394.684 61.1406 393.953 61.2344 393.141 61.2344C391.961 61.2344 390.961 61.0234 390.141 60.6016C389.328 60.1797 388.711 59.6445 388.289 58.9961C387.875 58.3398 387.668 57.668 387.668 56.9805H390.867C390.883 57.4414 391 57.8125 391.219 58.0938C391.445 58.375 391.73 58.5781 392.074 58.7031C392.426 58.8281 392.805 58.8906 393.211 58.8906C393.648 58.8906 394.012 58.832 394.301 58.7148C394.59 58.5898 394.809 58.4258 394.957 58.2227C395.113 58.0117 395.191 57.7695 395.191 57.4961Z" fill="#888888"/>
<path d="M112.125 84.875V119H103.898V84.875H112.125ZM122.391 84.875V91.2266H93.8672V84.875H122.391ZM135.68 119.469C133.617 119.469 131.773 119.148 130.148 118.508C128.523 117.852 127.148 116.953 126.023 115.812C124.914 114.672 124.062 113.359 123.469 111.875C122.891 110.391 122.602 108.82 122.602 107.164V106.273C122.602 104.414 122.859 102.695 123.375 101.117C123.891 99.5234 124.656 98.1328 125.672 96.9453C126.688 95.7578 127.961 94.8359 129.492 94.1797C131.023 93.5078 132.805 93.1719 134.836 93.1719C136.633 93.1719 138.242 93.4609 139.664 94.0391C141.086 94.6172 142.289 95.4453 143.273 96.5234C144.273 97.6016 145.031 98.9062 145.547 100.438C146.078 101.969 146.344 103.688 146.344 105.594V108.805H125.625V103.859H138.633V103.25C138.648 102.406 138.5 101.688 138.188 101.094C137.891 100.5 137.453 100.047 136.875 99.7344C136.297 99.4219 135.594 99.2656 134.766 99.2656C133.906 99.2656 133.195 99.4531 132.633 99.8281C132.086 100.203 131.656 100.719 131.344 101.375C131.047 102.016 130.836 102.758 130.711 103.602C130.586 104.445 130.523 105.336 130.523 106.273V107.164C130.523 108.102 130.648 108.953 130.898 109.719C131.164 110.484 131.539 111.141 132.023 111.688C132.523 112.219 133.117 112.633 133.805 112.93C134.508 113.227 135.305 113.375 136.195 113.375C137.273 113.375 138.336 113.172 139.383 112.766C140.43 112.359 141.328 111.688 142.078 110.75L145.664 115.016C145.148 115.75 144.414 116.461 143.461 117.148C142.523 117.836 141.398 118.398 140.086 118.836C138.773 119.258 137.305 119.469 135.68 119.469ZM160.266 113.375C161 113.375 161.625 113.242 162.141 112.977C162.672 112.695 163.07 112.305 163.336 111.805C163.617 111.289 163.75 110.672 163.734 109.953H171.164C171.18 111.859 170.711 113.531 169.758 114.969C168.82 116.391 167.539 117.5 165.914 118.297C164.305 119.078 162.484 119.469 160.453 119.469C158.469 119.469 156.734 119.148 155.25 118.508C153.766 117.852 152.523 116.945 151.523 115.789C150.539 114.617 149.797 113.25 149.297 111.688C148.812 110.125 148.57 108.43 148.57 106.602V106.062C148.57 104.234 148.812 102.539 149.297 100.977C149.797 99.3984 150.539 98.0312 151.523 96.875C152.523 95.7031 153.758 94.7969 155.227 94.1562C156.711 93.5 158.438 93.1719 160.406 93.1719C162.516 93.1719 164.375 93.5703 165.984 94.3672C167.609 95.1641 168.883 96.3203 169.805 97.8359C170.727 99.3516 171.18 101.188 171.164 103.344H163.734C163.75 102.578 163.633 101.891 163.383 101.281C163.133 100.672 162.742 100.188 162.211 99.8281C161.695 99.4531 161.031 99.2656 160.219 99.2656C159.406 99.2656 158.75 99.4453 158.25 99.8047C157.75 100.164 157.367 100.664 157.102 101.305C156.852 101.93 156.68 102.648 156.586 103.461C156.508 104.273 156.469 105.141 156.469 106.062V106.602C156.469 107.539 156.508 108.422 156.586 109.25C156.68 110.062 156.859 110.781 157.125 111.406C157.391 112.016 157.773 112.5 158.273 112.859C158.773 113.203 159.438 113.375 160.266 113.375ZM182.273 83V119H174.375V83H182.273ZM181.336 105.453L179.484 105.5C179.484 103.719 179.703 102.078 180.141 100.578C180.578 99.0781 181.203 97.7734 182.016 96.6641C182.828 95.5547 183.805 94.6953 184.945 94.0859C186.086 93.4766 187.352 93.1719 188.742 93.1719C189.992 93.1719 191.133 93.3516 192.164 93.7109C193.211 94.0703 194.109 94.6484 194.859 95.4453C195.625 96.2422 196.211 97.2812 196.617 98.5625C197.039 99.8438 197.25 101.406 197.25 103.25V119H189.305V103.203C189.305 102.172 189.156 101.375 188.859 100.812C188.578 100.234 188.172 99.8359 187.641 99.6172C187.109 99.3828 186.461 99.2656 185.695 99.2656C184.773 99.2656 184.023 99.4219 183.445 99.7344C182.867 100.047 182.422 100.484 182.109 101.047C181.812 101.594 181.609 102.242 181.5 102.992C181.391 103.742 181.336 104.562 181.336 105.453ZM231.539 109.93C231.539 109.398 231.461 108.922 231.305 108.5C231.148 108.062 230.859 107.656 230.438 107.281C230.016 106.906 229.406 106.531 228.609 106.156C227.828 105.766 226.797 105.359 225.516 104.938C224.016 104.438 222.57 103.875 221.18 103.25C219.789 102.609 218.547 101.867 217.453 101.023C216.359 100.164 215.492 99.1641 214.852 98.0234C214.211 96.8672 213.891 95.5234 213.891 93.9922C213.891 92.5234 214.219 91.2031 214.875 90.0312C215.531 88.8438 216.445 87.8359 217.617 87.0078C218.805 86.1641 220.195 85.5234 221.789 85.0859C223.383 84.6328 225.125 84.4062 227.016 84.4062C229.516 84.4062 231.719 84.8438 233.625 85.7188C235.547 86.5781 237.047 87.8047 238.125 89.3984C239.219 90.9766 239.766 92.8438 239.766 95H231.586C231.586 94.1406 231.406 93.3828 231.047 92.7266C230.703 92.0703 230.18 91.5547 229.477 91.1797C228.773 90.8047 227.891 90.6172 226.828 90.6172C225.797 90.6172 224.93 90.7734 224.227 91.0859C223.523 91.3984 222.992 91.8203 222.633 92.3516C222.273 92.8672 222.094 93.4375 222.094 94.0625C222.094 94.5781 222.234 95.0469 222.516 95.4688C222.812 95.875 223.227 96.2578 223.758 96.6172C224.305 96.9766 224.961 97.3203 225.727 97.6484C226.508 97.9766 227.383 98.2969 228.352 98.6094C230.164 99.1875 231.773 99.8359 233.18 100.555C234.602 101.258 235.797 102.062 236.766 102.969C237.75 103.859 238.492 104.875 238.992 106.016C239.508 107.156 239.766 108.445 239.766 109.883C239.766 111.414 239.469 112.773 238.875 113.961C238.281 115.148 237.43 116.156 236.32 116.984C235.211 117.797 233.883 118.414 232.336 118.836C230.789 119.258 229.062 119.469 227.156 119.469C225.406 119.469 223.68 119.25 221.977 118.812C220.289 118.359 218.758 117.672 217.383 116.75C216.008 115.812 214.906 114.617 214.078 113.164C213.266 111.695 212.859 109.953 212.859 107.938H221.109C221.109 108.938 221.242 109.781 221.508 110.469C221.773 111.156 222.164 111.711 222.68 112.133C223.195 112.539 223.828 112.836 224.578 113.023C225.328 113.195 226.188 113.281 227.156 113.281C228.203 113.281 229.047 113.133 229.688 112.836C230.328 112.523 230.797 112.117 231.094 111.617C231.391 111.102 231.539 110.539 231.539 109.93ZM256.992 93.6406V99.125H241.711V93.6406H256.992ZM244.922 87.3359H252.82V110.727C252.82 111.398 252.898 111.922 253.055 112.297C253.211 112.656 253.477 112.914 253.852 113.07C254.242 113.211 254.758 113.281 255.398 113.281C255.852 113.281 256.227 113.273 256.523 113.258C256.82 113.227 257.102 113.188 257.367 113.141V118.789C256.695 119.008 255.992 119.172 255.258 119.281C254.523 119.406 253.742 119.469 252.914 119.469C251.227 119.469 249.781 119.203 248.578 118.672C247.391 118.141 246.484 117.305 245.859 116.164C245.234 115.023 244.922 113.539 244.922 111.711V87.3359ZM273.305 112.625V102.172C273.305 101.453 273.203 100.836 273 100.32C272.797 99.8047 272.477 99.4062 272.039 99.125C271.602 98.8281 271.016 98.6797 270.281 98.6797C269.688 98.6797 269.18 98.7812 268.758 98.9844C268.336 99.1875 268.016 99.4922 267.797 99.8984C267.578 100.305 267.469 100.82 267.469 101.445H259.57C259.57 100.273 259.828 99.1875 260.344 98.1875C260.875 97.1719 261.625 96.2891 262.594 95.5391C263.578 94.7891 264.75 94.2109 266.109 93.8047C267.484 93.3828 269.016 93.1719 270.703 93.1719C272.719 93.1719 274.516 93.5078 276.094 94.1797C277.688 94.8516 278.945 95.8594 279.867 97.2031C280.789 98.5312 281.25 100.203 281.25 102.219V112.602C281.25 114.258 281.344 115.516 281.531 116.375C281.719 117.219 281.984 117.961 282.328 118.602V119H274.406C274.031 118.219 273.75 117.266 273.562 116.141C273.391 115 273.305 113.828 273.305 112.625ZM274.266 103.508L274.312 107.727H270.82C270.086 107.727 269.461 107.828 268.945 108.031C268.445 108.234 268.039 108.516 267.727 108.875C267.43 109.219 267.211 109.609 267.07 110.047C266.945 110.484 266.883 110.945 266.883 111.43C266.883 111.898 266.992 112.32 267.211 112.695C267.445 113.055 267.758 113.336 268.148 113.539C268.539 113.742 268.977 113.844 269.461 113.844C270.336 113.844 271.078 113.68 271.688 113.352C272.312 113.008 272.789 112.594 273.117 112.109C273.445 111.625 273.609 111.172 273.609 110.75L275.344 113.984C275.031 114.609 274.672 115.242 274.266 115.883C273.875 116.523 273.383 117.117 272.789 117.664C272.211 118.195 271.5 118.633 270.656 118.977C269.812 119.305 268.789 119.469 267.586 119.469C266.023 119.469 264.586 119.148 263.273 118.508C261.977 117.867 260.938 116.977 260.156 115.836C259.375 114.68 258.984 113.352 258.984 111.852C258.984 110.539 259.219 109.367 259.688 108.336C260.172 107.305 260.898 106.43 261.867 105.711C262.836 104.992 264.07 104.445 265.57 104.07C267.07 103.695 268.836 103.508 270.867 103.508H274.266ZM296.344 113.375C297.078 113.375 297.703 113.242 298.219 112.977C298.75 112.695 299.148 112.305 299.414 111.805C299.695 111.289 299.828 110.672 299.812 109.953H307.242C307.258 111.859 306.789 113.531 305.836 114.969C304.898 116.391 303.617 117.5 301.992 118.297C300.383 119.078 298.562 119.469 296.531 119.469C294.547 119.469 292.812 119.148 291.328 118.508C289.844 117.852 288.602 116.945 287.602 115.789C286.617 114.617 285.875 113.25 285.375 111.688C284.891 110.125 284.648 108.43 284.648 106.602V106.062C284.648 104.234 284.891 102.539 285.375 100.977C285.875 99.3984 286.617 98.0312 287.602 96.875C288.602 95.7031 289.836 94.7969 291.305 94.1562C292.789 93.5 294.516 93.1719 296.484 93.1719C298.594 93.1719 300.453 93.5703 302.062 94.3672C303.688 95.1641 304.961 96.3203 305.883 97.8359C306.805 99.3516 307.258 101.188 307.242 103.344H299.812C299.828 102.578 299.711 101.891 299.461 101.281C299.211 100.672 298.82 100.188 298.289 99.8281C297.773 99.4531 297.109 99.2656 296.297 99.2656C295.484 99.2656 294.828 99.4453 294.328 99.8047C293.828 100.164 293.445 100.664 293.18 101.305C292.93 101.93 292.758 102.648 292.664 103.461C292.586 104.273 292.547 105.141 292.547 106.062V106.602C292.547 107.539 292.586 108.422 292.664 109.25C292.758 110.062 292.938 110.781 293.203 111.406C293.469 112.016 293.852 112.5 294.352 112.859C294.852 113.203 295.516 113.375 296.344 113.375ZM318.586 82.9766V119H310.688V82.9766H318.586ZM334.805 93.6406L323.789 106.555L318.023 112.32L314.578 107.305L319.383 101.047L325.336 93.6406H334.805ZM326.344 119L319.57 107.445L325.406 103.297L335.391 119H326.344Z" fill="black"/>
<path d="M1134 0H1348C1356.28 0 1363 6.71573 1363 15V148C1363 156.284 1356.28 163 1348 163H1134V0Z" fill="#00B0DC"/>
<path fill-rule="evenodd" clip-rule="evenodd" d="M1218.75 53C1218.62 53 1218.49 53.0527 1218.4 53.1464C1218.3 53.2402 1218.25 53.3674 1218.25 53.5V109.5C1218.25 109.633 1218.3 109.76 1218.4 109.854C1218.49 109.947 1218.62 110 1218.75 110H1278.25C1278.38 110 1278.51 109.947 1278.6 109.854C1278.7 109.76 1278.75 109.633 1278.75 109.5V64C1278.75 63.8674 1278.7 63.7402 1278.6 63.6464C1278.51 63.5527 1278.38 63.5 1278.25 63.5H1248.5C1247.61 63.5 1246.77 63.1045 1246.2 62.4206L1238.34 53H1218.75ZM1214.15 48.9038C1215.37 47.6848 1217.03 47 1218.75 47H1239.75C1240.64 47 1241.48 47.3955 1242.05 48.0794L1249.91 57.5H1278.25C1279.97 57.5 1281.63 58.1848 1282.85 59.4038C1284.07 60.6228 1284.75 62.2761 1284.75 64V109.5C1284.75 111.224 1284.07 112.877 1282.85 114.096C1281.63 115.315 1279.97 116 1278.25 116H1218.75C1217.03 116 1215.37 115.315 1214.15 114.096C1212.93 112.877 1212.25 111.224 1212.25 109.5V53.5C1212.25 51.7761 1212.93 50.1228 1214.15 48.9038Z" fill="white"/>
<path fill-rule="evenodd" clip-rule="evenodd" d="M1243.97 75.5251C1245.34 76.892 1245.34 79.108 1243.97 80.4749L1237.7 86.75L1243.97 93.0251C1245.34 94.392 1245.34 96.608 1243.97 97.9749C1242.61 99.3417 1240.39 99.3417 1239.03 97.9749L1230.28 89.2249C1228.91 87.858 1228.91 85.642 1230.28 84.2751L1239.03 75.5251C1240.39 74.1583 1242.61 74.1583 1243.97 75.5251Z" fill="white"/>
<path fill-rule="evenodd" clip-rule="evenodd" d="M1252.28 97.9749C1250.91 96.608 1250.91 94.392 1252.28 93.0251L1258.55 86.75L1252.28 80.4749C1250.91 79.108 1250.91 76.892 1252.28 75.5251C1253.64 74.1583 1255.86 74.1583 1257.22 75.5251L1265.97 84.2751C1267.34 85.642 1267.34 87.858 1265.97 89.2249L1257.22 97.9749C1255.86 99.3417 1253.64 99.3417 1252.28 97.9749Z" fill="white"/>
</svg>
