<svg width="1363" height="163" viewBox="0 0 1363 163" fill="none" xmlns="http://www.w3.org/2000/svg">
<path d="M0 15C0 6.71573 6.71573 0 15 0H37V163H15C6.71573 163 0 156.284 0 148V15Z" fill="#00B0DC"/>
<rect width="1097" height="163" transform="translate(37)" fill="#F0F0F0"/>
<path d="M101.906 53.9219L94.3945 51.2383V48.0859L104.602 52.375V54.6367L101.906 53.9219ZM94.3945 56.1719L101.918 53.4297L104.602 52.7852V55.0352L94.3945 59.3242V56.1719ZM118.137 61H114.422L114.445 58.2578H118.137C119.059 58.2578 119.836 58.0508 120.469 57.6367C121.102 57.2148 121.578 56.6016 121.898 55.7969C122.227 54.9922 122.391 54.0195 122.391 52.8789V52.0469C122.391 51.1719 122.297 50.4023 122.109 49.7383C121.93 49.0742 121.66 48.5156 121.301 48.0625C120.941 47.6094 120.5 47.2695 119.977 47.043C119.453 46.8086 118.852 46.6914 118.172 46.6914H114.352V43.9375H118.172C119.312 43.9375 120.355 44.1328 121.301 44.5234C122.254 44.9062 123.078 45.457 123.773 46.1758C124.469 46.8945 125.004 47.7539 125.379 48.7539C125.762 49.7461 125.953 50.8516 125.953 52.0703V52.8789C125.953 54.0898 125.762 55.1953 125.379 56.1953C125.004 57.1953 124.469 58.0547 123.773 58.7734C123.086 59.4844 122.262 60.0352 121.301 60.4258C120.348 60.8086 119.293 61 118.137 61ZM116.414 43.9375V61H112.898V43.9375H116.414ZM135.141 58.1406V52.4922C135.141 52.0859 135.074 51.7383 134.941 51.4492C134.809 51.1523 134.602 50.9219 134.32 50.7578C134.047 50.5938 133.691 50.5117 133.254 50.5117C132.879 50.5117 132.555 50.5781 132.281 50.7109C132.008 50.8359 131.797 51.0195 131.648 51.2617C131.5 51.4961 131.426 51.7734 131.426 52.0938H128.051C128.051 51.5547 128.176 51.043 128.426 50.5586C128.676 50.0742 129.039 49.6484 129.516 49.2812C129.992 48.9062 130.559 48.6133 131.215 48.4023C131.879 48.1914 132.621 48.0859 133.441 48.0859C134.426 48.0859 135.301 48.25 136.066 48.5781C136.832 48.9062 137.434 49.3984 137.871 50.0547C138.316 50.7109 138.539 51.5312 138.539 52.5156V57.9414C138.539 58.6367 138.582 59.207 138.668 59.6523C138.754 60.0898 138.879 60.4727 139.043 60.8008V61H135.633C135.469 60.6562 135.344 60.2266 135.258 59.7109C135.18 59.1875 135.141 58.6641 135.141 58.1406ZM135.586 53.2773L135.609 55.1875H133.723C133.277 55.1875 132.891 55.2383 132.562 55.3398C132.234 55.4414 131.965 55.5859 131.754 55.7734C131.543 55.9531 131.387 56.1641 131.285 56.4062C131.191 56.6484 131.145 56.9141 131.145 57.2031C131.145 57.4922 131.211 57.7539 131.344 57.9883C131.477 58.2148 131.668 58.3945 131.918 58.5273C132.168 58.6523 132.461 58.7148 132.797 58.7148C133.305 58.7148 133.746 58.6133 134.121 58.4102C134.496 58.207 134.785 57.957 134.988 57.6602C135.199 57.3633 135.309 57.082 135.316 56.8164L136.207 58.2461C136.082 58.5664 135.91 58.8984 135.691 59.2422C135.48 59.5859 135.211 59.9102 134.883 60.2148C134.555 60.5117 134.16 60.7578 133.699 60.9531C133.238 61.1406 132.691 61.2344 132.059 61.2344C131.254 61.2344 130.523 61.0742 129.867 60.7539C129.219 60.4258 128.703 59.9766 128.32 59.4062C127.945 58.8281 127.758 58.1719 127.758 57.4375C127.758 56.7734 127.883 56.1836 128.133 55.668C128.383 55.1523 128.75 54.7188 129.234 54.3672C129.727 54.0078 130.34 53.7383 131.074 53.5586C131.809 53.3711 132.66 53.2773 133.629 53.2773H135.586ZM147.352 48.3203V50.7109H139.969V48.3203H147.352ZM141.797 45.1914H145.172V57.1797C145.172 57.5469 145.219 57.8281 145.312 58.0234C145.414 58.2188 145.562 58.3555 145.758 58.4336C145.953 58.5039 146.199 58.5391 146.496 58.5391C146.707 58.5391 146.895 58.5312 147.059 58.5156C147.23 58.4922 147.375 58.4688 147.492 58.4453L147.504 60.9297C147.215 61.0234 146.902 61.0977 146.566 61.1523C146.23 61.207 145.859 61.2344 145.453 61.2344C144.711 61.2344 144.062 61.1133 143.508 60.8711C142.961 60.6211 142.539 60.2227 142.242 59.6758C141.945 59.1289 141.797 58.4102 141.797 57.5195V45.1914ZM156.117 58.1406V52.4922C156.117 52.0859 156.051 51.7383 155.918 51.4492C155.785 51.1523 155.578 50.9219 155.297 50.7578C155.023 50.5938 154.668 50.5117 154.23 50.5117C153.855 50.5117 153.531 50.5781 153.258 50.7109C152.984 50.8359 152.773 51.0195 152.625 51.2617C152.477 51.4961 152.402 51.7734 152.402 52.0938H149.027C149.027 51.5547 149.152 51.043 149.402 50.5586C149.652 50.0742 150.016 49.6484 150.492 49.2812C150.969 48.9062 151.535 48.6133 152.191 48.4023C152.855 48.1914 153.598 48.0859 154.418 48.0859C155.402 48.0859 156.277 48.25 157.043 48.5781C157.809 48.9062 158.41 49.3984 158.848 50.0547C159.293 50.7109 159.516 51.5312 159.516 52.5156V57.9414C159.516 58.6367 159.559 59.207 159.645 59.6523C159.73 60.0898 159.855 60.4727 160.02 60.8008V61H156.609C156.445 60.6562 156.32 60.2266 156.234 59.7109C156.156 59.1875 156.117 58.6641 156.117 58.1406ZM156.562 53.2773L156.586 55.1875H154.699C154.254 55.1875 153.867 55.2383 153.539 55.3398C153.211 55.4414 152.941 55.5859 152.73 55.7734C152.52 55.9531 152.363 56.1641 152.262 56.4062C152.168 56.6484 152.121 56.9141 152.121 57.2031C152.121 57.4922 152.188 57.7539 152.32 57.9883C152.453 58.2148 152.645 58.3945 152.895 58.5273C153.145 58.6523 153.438 58.7148 153.773 58.7148C154.281 58.7148 154.723 58.6133 155.098 58.4102C155.473 58.207 155.762 57.957 155.965 57.6602C156.176 57.3633 156.285 57.082 156.293 56.8164L157.184 58.2461C157.059 58.5664 156.887 58.8984 156.668 59.2422C156.457 59.5859 156.188 59.9102 155.859 60.2148C155.531 60.5117 155.137 60.7578 154.676 60.9531C154.215 61.1406 153.668 61.2344 153.035 61.2344C152.23 61.2344 151.5 61.0742 150.844 60.7539C150.195 60.4258 149.68 59.9766 149.297 59.4062C148.922 58.8281 148.734 58.1719 148.734 57.4375C148.734 56.7734 148.859 56.1836 149.109 55.668C149.359 55.1523 149.727 54.7188 150.211 54.3672C150.703 54.0078 151.316 53.7383 152.051 53.5586C152.785 53.3711 153.637 53.2773 154.605 53.2773H156.562ZM175.207 55.7617V43.9375H178.711V55.7617C178.711 56.9023 178.461 57.8828 177.961 58.7031C177.461 59.5156 176.777 60.1406 175.91 60.5781C175.051 61.0156 174.082 61.2344 173.004 61.2344C171.887 61.2344 170.898 61.0469 170.039 60.6719C169.18 60.2969 168.504 59.7227 168.012 58.9492C167.52 58.168 167.273 57.1797 167.273 55.9844H170.801C170.801 56.6094 170.887 57.1055 171.059 57.4727C171.238 57.8398 171.492 58.1016 171.82 58.2578C172.148 58.4141 172.543 58.4922 173.004 58.4922C173.449 58.4922 173.836 58.3867 174.164 58.1758C174.492 57.9648 174.746 57.6562 174.926 57.25C175.113 56.8438 175.207 56.3477 175.207 55.7617ZM180.961 54.7891V54.543C180.961 53.6133 181.094 52.7578 181.359 51.9766C181.625 51.1875 182.012 50.5039 182.52 49.9258C183.027 49.3477 183.652 48.8984 184.395 48.5781C185.137 48.25 185.988 48.0859 186.949 48.0859C187.91 48.0859 188.766 48.25 189.516 48.5781C190.266 48.8984 190.895 49.3477 191.402 49.9258C191.918 50.5039 192.309 51.1875 192.574 51.9766C192.84 52.7578 192.973 53.6133 192.973 54.543V54.7891C192.973 55.7109 192.84 56.5664 192.574 57.3555C192.309 58.1367 191.918 58.8203 191.402 59.4062C190.895 59.9844 190.27 60.4336 189.527 60.7539C188.785 61.0742 187.934 61.2344 186.973 61.2344C186.012 61.2344 185.156 61.0742 184.406 60.7539C183.664 60.4336 183.035 59.9844 182.52 59.4062C182.012 58.8203 181.625 58.1367 181.359 57.3555C181.094 56.5664 180.961 55.7109 180.961 54.7891ZM184.336 54.543V54.7891C184.336 55.3203 184.383 55.8164 184.477 56.2773C184.57 56.7383 184.719 57.1445 184.922 57.4961C185.133 57.8398 185.406 58.1094 185.742 58.3047C186.078 58.5 186.488 58.5977 186.973 58.5977C187.441 58.5977 187.844 58.5 188.18 58.3047C188.516 58.1094 188.785 57.8398 188.988 57.4961C189.191 57.1445 189.34 56.7383 189.434 56.2773C189.535 55.8164 189.586 55.3203 189.586 54.7891V54.543C189.586 54.0273 189.535 53.543 189.434 53.0898C189.34 52.6289 189.188 52.2227 188.977 51.8711C188.773 51.5117 188.504 51.2305 188.168 51.0273C187.832 50.8242 187.426 50.7227 186.949 50.7227C186.473 50.7227 186.066 50.8242 185.73 51.0273C185.402 51.2305 185.133 51.5117 184.922 51.8711C184.719 52.2227 184.57 52.6289 184.477 53.0898C184.383 53.543 184.336 54.0273 184.336 54.543ZM195.047 43H198.422V58.0938L198.082 61H195.047V43ZM206.449 54.5312V54.7773C206.449 55.7227 206.348 56.5898 206.145 57.3789C205.949 58.168 205.645 58.8516 205.23 59.4297C204.816 60 204.301 60.4453 203.684 60.7656C203.074 61.0781 202.355 61.2344 201.527 61.2344C200.754 61.2344 200.082 61.0781 199.512 60.7656C198.949 60.4531 198.477 60.0117 198.094 59.4414C197.711 58.8711 197.402 58.2031 197.168 57.4375C196.934 56.6719 196.758 55.8359 196.641 54.9297V54.3906C196.758 53.4844 196.934 52.6484 197.168 51.8828C197.402 51.1172 197.711 50.4492 198.094 49.8789C198.477 49.3086 198.949 48.8672 199.512 48.5547C200.074 48.2422 200.738 48.0859 201.504 48.0859C202.34 48.0859 203.066 48.2461 203.684 48.5664C204.309 48.8789 204.824 49.3242 205.23 49.9023C205.645 50.4727 205.949 51.1523 206.145 51.9414C206.348 52.7227 206.449 53.5859 206.449 54.5312ZM203.074 54.7773V54.5312C203.074 54.0156 203.035 53.5312 202.957 53.0781C202.887 52.6172 202.762 52.2148 202.582 51.8711C202.402 51.5195 202.156 51.2422 201.844 51.0391C201.539 50.8359 201.145 50.7344 200.66 50.7344C200.199 50.7344 199.809 50.8125 199.488 50.9688C199.168 51.125 198.902 51.3438 198.691 51.625C198.488 51.9062 198.336 52.2422 198.234 52.6328C198.133 53.0156 198.07 53.4375 198.047 53.8984V55.4336C198.07 56.0508 198.172 56.5977 198.352 57.0742C198.539 57.543 198.82 57.9141 199.195 58.1875C199.578 58.4531 200.074 58.5859 200.684 58.5859C201.16 58.5859 201.555 58.4922 201.867 58.3047C202.18 58.1172 202.422 57.8516 202.594 57.5078C202.773 57.1641 202.898 56.7617 202.969 56.3008C203.039 55.832 203.074 55.3242 203.074 54.7773ZM215.402 57.4961C215.402 57.2539 215.332 57.0352 215.191 56.8398C215.051 56.6445 214.789 56.4648 214.406 56.3008C214.031 56.1289 213.488 55.9727 212.777 55.832C212.137 55.6914 211.539 55.5156 210.984 55.3047C210.438 55.0859 209.961 54.8242 209.555 54.5195C209.156 54.2148 208.844 53.8555 208.617 53.4414C208.391 53.0195 208.277 52.5391 208.277 52C208.277 51.4688 208.391 50.9688 208.617 50.5C208.852 50.0312 209.184 49.6172 209.613 49.2578C210.051 48.8906 210.582 48.6055 211.207 48.4023C211.84 48.1914 212.551 48.0859 213.34 48.0859C214.441 48.0859 215.387 48.2617 216.176 48.6133C216.973 48.9648 217.582 49.4492 218.004 50.0664C218.434 50.6758 218.648 51.3711 218.648 52.1523H215.273C215.273 51.8242 215.203 51.5312 215.062 51.2734C214.93 51.0078 214.719 50.8008 214.43 50.6523C214.148 50.4961 213.781 50.418 213.328 50.418C212.953 50.418 212.629 50.4844 212.355 50.6172C212.082 50.7422 211.871 50.9141 211.723 51.1328C211.582 51.3438 211.512 51.5781 211.512 51.8359C211.512 52.0312 211.551 52.207 211.629 52.3633C211.715 52.5117 211.852 52.6484 212.039 52.7734C212.227 52.8984 212.469 53.0156 212.766 53.125C213.07 53.2266 213.445 53.3203 213.891 53.4062C214.805 53.5938 215.621 53.8398 216.34 54.1445C217.059 54.4414 217.629 54.8477 218.051 55.3633C218.473 55.8711 218.684 56.5391 218.684 57.3672C218.684 57.9297 218.559 58.4453 218.309 58.9141C218.059 59.3828 217.699 59.793 217.23 60.1445C216.762 60.4883 216.199 60.7578 215.543 60.9531C214.895 61.1406 214.164 61.2344 213.352 61.2344C212.172 61.2344 211.172 61.0234 210.352 60.6016C209.539 60.1797 208.922 59.6445 208.5 58.9961C208.086 58.3398 207.879 57.668 207.879 56.9805H211.078C211.094 57.4414 211.211 57.8125 211.43 58.0938C211.656 58.375 211.941 58.5781 212.285 58.7031C212.637 58.8281 213.016 58.8906 213.422 58.8906C213.859 58.8906 214.223 58.832 214.512 58.7148C214.801 58.5898 215.02 58.4258 215.168 58.2227C215.324 58.0117 215.402 57.7695 215.402 57.4961ZM228.668 43.9375H231.645L236.027 56.4648L240.41 43.9375H243.387L237.223 61H234.832L228.668 43.9375ZM227.062 43.9375H230.027L230.566 56.1484V61H227.062V43.9375ZM242.027 43.9375H245.004V61H241.488V56.1484L242.027 43.9375ZM254.719 58.1406V52.4922C254.719 52.0859 254.652 51.7383 254.52 51.4492C254.387 51.1523 254.18 50.9219 253.898 50.7578C253.625 50.5938 253.27 50.5117 252.832 50.5117C252.457 50.5117 252.133 50.5781 251.859 50.7109C251.586 50.8359 251.375 51.0195 251.227 51.2617C251.078 51.4961 251.004 51.7734 251.004 52.0938H247.629C247.629 51.5547 247.754 51.043 248.004 50.5586C248.254 50.0742 248.617 49.6484 249.094 49.2812C249.57 48.9062 250.137 48.6133 250.793 48.4023C251.457 48.1914 252.199 48.0859 253.02 48.0859C254.004 48.0859 254.879 48.25 255.645 48.5781C256.41 48.9062 257.012 49.3984 257.449 50.0547C257.895 50.7109 258.117 51.5312 258.117 52.5156V57.9414C258.117 58.6367 258.16 59.207 258.246 59.6523C258.332 60.0898 258.457 60.4727 258.621 60.8008V61H255.211C255.047 60.6562 254.922 60.2266 254.836 59.7109C254.758 59.1875 254.719 58.6641 254.719 58.1406ZM255.164 53.2773L255.188 55.1875H253.301C252.855 55.1875 252.469 55.2383 252.141 55.3398C251.812 55.4414 251.543 55.5859 251.332 55.7734C251.121 55.9531 250.965 56.1641 250.863 56.4062C250.77 56.6484 250.723 56.9141 250.723 57.2031C250.723 57.4922 250.789 57.7539 250.922 57.9883C251.055 58.2148 251.246 58.3945 251.496 58.5273C251.746 58.6523 252.039 58.7148 252.375 58.7148C252.883 58.7148 253.324 58.6133 253.699 58.4102C254.074 58.207 254.363 57.957 254.566 57.6602C254.777 57.3633 254.887 57.082 254.895 56.8164L255.785 58.2461C255.66 58.5664 255.488 58.8984 255.27 59.2422C255.059 59.5859 254.789 59.9102 254.461 60.2148C254.133 60.5117 253.738 60.7578 253.277 60.9531C252.816 61.1406 252.27 61.2344 251.637 61.2344C250.832 61.2344 250.102 61.0742 249.445 60.7539C248.797 60.4258 248.281 59.9766 247.898 59.4062C247.523 58.8281 247.336 58.1719 247.336 57.4375C247.336 56.7734 247.461 56.1836 247.711 55.668C247.961 55.1523 248.328 54.7188 248.812 54.3672C249.305 54.0078 249.918 53.7383 250.652 53.5586C251.387 53.3711 252.238 53.2773 253.207 53.2773H255.164ZM264.094 51.0859V61H260.719V48.3203H263.895L264.094 51.0859ZM267.914 48.2383L267.855 51.3672C267.691 51.3438 267.492 51.3242 267.258 51.3086C267.031 51.2852 266.824 51.2734 266.637 51.2734C266.16 51.2734 265.746 51.3359 265.395 51.4609C265.051 51.5781 264.762 51.7539 264.527 51.9883C264.301 52.2227 264.129 52.5078 264.012 52.8438C263.902 53.1797 263.84 53.5625 263.824 53.9922L263.145 53.7812C263.145 52.9609 263.227 52.207 263.391 51.5195C263.555 50.8242 263.793 50.2188 264.105 49.7031C264.426 49.1875 264.816 48.7891 265.277 48.5078C265.738 48.2266 266.266 48.0859 266.859 48.0859C267.047 48.0859 267.238 48.1016 267.434 48.1328C267.629 48.1562 267.789 48.1914 267.914 48.2383ZM272.883 42.9883V61H269.508V42.9883H272.883ZM280.875 48.3203L275.367 54.6016L272.414 57.5898L271.184 55.1523L273.527 52.1758L276.82 48.3203H280.875ZM277.371 61L273.621 55.1406L275.953 53.1016L281.262 61H277.371ZM287.93 61.2344C286.945 61.2344 286.062 61.0781 285.281 60.7656C284.5 60.4453 283.836 60.0039 283.289 59.4414C282.75 58.8789 282.336 58.2266 282.047 57.4844C281.758 56.7344 281.613 55.9375 281.613 55.0938V54.625C281.613 53.6641 281.75 52.7852 282.023 51.9883C282.297 51.1914 282.688 50.5 283.195 49.9141C283.711 49.3281 284.336 48.8789 285.07 48.5664C285.805 48.2461 286.633 48.0859 287.555 48.0859C288.453 48.0859 289.25 48.2344 289.945 48.5312C290.641 48.8281 291.223 49.25 291.691 49.7969C292.168 50.3438 292.527 51 292.77 51.7656C293.012 52.5234 293.133 53.3672 293.133 54.2969V55.7031H283.055V53.4531H289.816V53.1953C289.816 52.7266 289.73 52.3086 289.559 51.9414C289.395 51.5664 289.145 51.2695 288.809 51.0508C288.473 50.832 288.043 50.7227 287.52 50.7227C287.074 50.7227 286.691 50.8203 286.371 51.0156C286.051 51.2109 285.789 51.4844 285.586 51.8359C285.391 52.1875 285.242 52.6016 285.141 53.0781C285.047 53.5469 285 54.0625 285 54.625V55.0938C285 55.6016 285.07 56.0703 285.211 56.5C285.359 56.9297 285.566 57.3008 285.832 57.6133C286.105 57.9258 286.434 58.168 286.816 58.3398C287.207 58.5117 287.648 58.5977 288.141 58.5977C288.75 58.5977 289.316 58.4805 289.84 58.2461C290.371 58.0039 290.828 57.6406 291.211 57.1562L292.852 58.9375C292.586 59.3203 292.223 59.6875 291.762 60.0391C291.309 60.3906 290.762 60.6797 290.121 60.9062C289.48 61.125 288.75 61.2344 287.93 61.2344ZM301.266 48.3203V50.7109H293.883V48.3203H301.266ZM295.711 45.1914H299.086V57.1797C299.086 57.5469 299.133 57.8281 299.227 58.0234C299.328 58.2188 299.477 58.3555 299.672 58.4336C299.867 58.5039 300.113 58.5391 300.41 58.5391C300.621 58.5391 300.809 58.5312 300.973 58.5156C301.145 58.4922 301.289 58.4688 301.406 58.4453L301.418 60.9297C301.129 61.0234 300.816 61.0977 300.48 61.1523C300.145 61.207 299.773 61.2344 299.367 61.2344C298.625 61.2344 297.977 61.1133 297.422 60.8711C296.875 60.6211 296.453 60.2227 296.156 59.6758C295.859 59.1289 295.711 58.4102 295.711 57.5195V45.1914ZM316.312 46.8555L311.672 61H307.934L314.273 43.9375H316.652L316.312 46.8555ZM320.168 61L315.516 46.8555L315.141 43.9375H317.543L323.918 61H320.168ZM319.957 54.6484V57.4023H310.945V54.6484H319.957ZM328.219 51.0273V61H324.844V48.3203H328.008L328.219 51.0273ZM327.727 54.2148H326.812C326.812 53.2773 326.934 52.4336 327.176 51.6836C327.418 50.9258 327.758 50.2812 328.195 49.75C328.633 49.2109 329.152 48.8008 329.754 48.5195C330.363 48.2305 331.043 48.0859 331.793 48.0859C332.387 48.0859 332.93 48.1719 333.422 48.3438C333.914 48.5156 334.336 48.7891 334.688 49.1641C335.047 49.5391 335.32 50.0352 335.508 50.6523C335.703 51.2695 335.801 52.0234 335.801 52.9141V61H332.402V52.9023C332.402 52.3398 332.324 51.9023 332.168 51.5898C332.012 51.2773 331.781 51.0586 331.477 50.9336C331.18 50.8008 330.812 50.7344 330.375 50.7344C329.922 50.7344 329.527 50.8242 329.191 51.0039C328.863 51.1836 328.59 51.4336 328.371 51.7539C328.16 52.0664 328 52.4336 327.891 52.8555C327.781 53.2773 327.727 53.7305 327.727 54.2148ZM345.211 58.1406V52.4922C345.211 52.0859 345.145 51.7383 345.012 51.4492C344.879 51.1523 344.672 50.9219 344.391 50.7578C344.117 50.5938 343.762 50.5117 343.324 50.5117C342.949 50.5117 342.625 50.5781 342.352 50.7109C342.078 50.8359 341.867 51.0195 341.719 51.2617C341.57 51.4961 341.496 51.7734 341.496 52.0938H338.121C338.121 51.5547 338.246 51.043 338.496 50.5586C338.746 50.0742 339.109 49.6484 339.586 49.2812C340.062 48.9062 340.629 48.6133 341.285 48.4023C341.949 48.1914 342.691 48.0859 343.512 48.0859C344.496 48.0859 345.371 48.25 346.137 48.5781C346.902 48.9062 347.504 49.3984 347.941 50.0547C348.387 50.7109 348.609 51.5312 348.609 52.5156V57.9414C348.609 58.6367 348.652 59.207 348.738 59.6523C348.824 60.0898 348.949 60.4727 349.113 60.8008V61H345.703C345.539 60.6562 345.414 60.2266 345.328 59.7109C345.25 59.1875 345.211 58.6641 345.211 58.1406ZM345.656 53.2773L345.68 55.1875H343.793C343.348 55.1875 342.961 55.2383 342.633 55.3398C342.305 55.4414 342.035 55.5859 341.824 55.7734C341.613 55.9531 341.457 56.1641 341.355 56.4062C341.262 56.6484 341.215 56.9141 341.215 57.2031C341.215 57.4922 341.281 57.7539 341.414 57.9883C341.547 58.2148 341.738 58.3945 341.988 58.5273C342.238 58.6523 342.531 58.7148 342.867 58.7148C343.375 58.7148 343.816 58.6133 344.191 58.4102C344.566 58.207 344.855 57.957 345.059 57.6602C345.27 57.3633 345.379 57.082 345.387 56.8164L346.277 58.2461C346.152 58.5664 345.98 58.8984 345.762 59.2422C345.551 59.5859 345.281 59.9102 344.953 60.2148C344.625 60.5117 344.23 60.7578 343.77 60.9531C343.309 61.1406 342.762 61.2344 342.129 61.2344C341.324 61.2344 340.594 61.0742 339.938 60.7539C339.289 60.4258 338.773 59.9766 338.391 59.4062C338.016 58.8281 337.828 58.1719 337.828 57.4375C337.828 56.7734 337.953 56.1836 338.203 55.668C338.453 55.1523 338.82 54.7188 339.305 54.3672C339.797 54.0078 340.41 53.7383 341.145 53.5586C341.879 53.3711 342.73 53.2773 343.699 53.2773H345.656ZM354.773 43V61H351.387V43H354.773ZM361.324 59.5703L364.688 48.3203H368.309L363.211 62.9102C363.102 63.2305 362.953 63.5742 362.766 63.9414C362.586 64.3086 362.34 64.6562 362.027 64.9844C361.723 65.3203 361.336 65.5938 360.867 65.8047C360.406 66.0156 359.84 66.1211 359.168 66.1211C358.848 66.1211 358.586 66.1016 358.383 66.0625C358.18 66.0234 357.938 65.9688 357.656 65.8984V63.4258C357.742 63.4258 357.832 63.4258 357.926 63.4258C358.02 63.4336 358.109 63.4375 358.195 63.4375C358.641 63.4375 359.004 63.3867 359.285 63.2852C359.566 63.1836 359.793 63.0273 359.965 62.8164C360.137 62.6133 360.273 62.3477 360.375 62.0195L361.324 59.5703ZM359.918 48.3203L362.672 57.5078L363.152 61.082L360.855 61.3281L356.297 48.3203H359.918ZM376.512 57.4961C376.512 57.2539 376.441 57.0352 376.301 56.8398C376.16 56.6445 375.898 56.4648 375.516 56.3008C375.141 56.1289 374.598 55.9727 373.887 55.832C373.246 55.6914 372.648 55.5156 372.094 55.3047C371.547 55.0859 371.07 54.8242 370.664 54.5195C370.266 54.2148 369.953 53.8555 369.727 53.4414C369.5 53.0195 369.387 52.5391 369.387 52C369.387 51.4688 369.5 50.9688 369.727 50.5C369.961 50.0312 370.293 49.6172 370.723 49.2578C371.16 48.8906 371.691 48.6055 372.316 48.4023C372.949 48.1914 373.66 48.0859 374.449 48.0859C375.551 48.0859 376.496 48.2617 377.285 48.6133C378.082 48.9648 378.691 49.4492 379.113 50.0664C379.543 50.6758 379.758 51.3711 379.758 52.1523H376.383C376.383 51.8242 376.312 51.5312 376.172 51.2734C376.039 51.0078 375.828 50.8008 375.539 50.6523C375.258 50.4961 374.891 50.418 374.438 50.418C374.062 50.418 373.738 50.4844 373.465 50.6172C373.191 50.7422 372.98 50.9141 372.832 51.1328C372.691 51.3438 372.621 51.5781 372.621 51.8359C372.621 52.0312 372.66 52.207 372.738 52.3633C372.824 52.5117 372.961 52.6484 373.148 52.7734C373.336 52.8984 373.578 53.0156 373.875 53.125C374.18 53.2266 374.555 53.3203 375 53.4062C375.914 53.5938 376.73 53.8398 377.449 54.1445C378.168 54.4414 378.738 54.8477 379.16 55.3633C379.582 55.8711 379.793 56.5391 379.793 57.3672C379.793 57.9297 379.668 58.4453 379.418 58.9141C379.168 59.3828 378.809 59.793 378.34 60.1445C377.871 60.4883 377.309 60.7578 376.652 60.9531C376.004 61.1406 375.273 61.2344 374.461 61.2344C373.281 61.2344 372.281 61.0234 371.461 60.6016C370.648 60.1797 370.031 59.6445 369.609 58.9961C369.195 58.3398 368.988 57.668 368.988 56.9805H372.188C372.203 57.4414 372.32 57.8125 372.539 58.0938C372.766 58.375 373.051 58.5781 373.395 58.7031C373.746 58.8281 374.125 58.8906 374.531 58.8906C374.969 58.8906 375.332 58.832 375.621 58.7148C375.91 58.5898 376.129 58.4258 376.277 58.2227C376.434 58.0117 376.512 57.7695 376.512 57.4961ZM385.547 48.3203V61H382.16V48.3203H385.547ZM381.949 45.0156C381.949 44.5234 382.121 44.1172 382.465 43.7969C382.809 43.4766 383.27 43.3164 383.848 43.3164C384.418 43.3164 384.875 43.4766 385.219 43.7969C385.57 44.1172 385.746 44.5234 385.746 45.0156C385.746 45.5078 385.57 45.9141 385.219 46.2344C384.875 46.5547 384.418 46.7148 383.848 46.7148C383.27 46.7148 382.809 46.5547 382.465 46.2344C382.121 45.9141 381.949 45.5078 381.949 45.0156ZM395.191 57.4961C395.191 57.2539 395.121 57.0352 394.98 56.8398C394.84 56.6445 394.578 56.4648 394.195 56.3008C393.82 56.1289 393.277 55.9727 392.566 55.832C391.926 55.6914 391.328 55.5156 390.773 55.3047C390.227 55.0859 389.75 54.8242 389.344 54.5195C388.945 54.2148 388.633 53.8555 388.406 53.4414C388.18 53.0195 388.066 52.5391 388.066 52C388.066 51.4688 388.18 50.9688 388.406 50.5C388.641 50.0312 388.973 49.6172 389.402 49.2578C389.84 48.8906 390.371 48.6055 390.996 48.4023C391.629 48.1914 392.34 48.0859 393.129 48.0859C394.23 48.0859 395.176 48.2617 395.965 48.6133C396.762 48.9648 397.371 49.4492 397.793 50.0664C398.223 50.6758 398.438 51.3711 398.438 52.1523H395.062C395.062 51.8242 394.992 51.5312 394.852 51.2734C394.719 51.0078 394.508 50.8008 394.219 50.6523C393.938 50.4961 393.57 50.418 393.117 50.418C392.742 50.418 392.418 50.4844 392.145 50.6172C391.871 50.7422 391.66 50.9141 391.512 51.1328C391.371 51.3438 391.301 51.5781 391.301 51.8359C391.301 52.0312 391.34 52.207 391.418 52.3633C391.504 52.5117 391.641 52.6484 391.828 52.7734C392.016 52.8984 392.258 53.0156 392.555 53.125C392.859 53.2266 393.234 53.3203 393.68 53.4062C394.594 53.5938 395.41 53.8398 396.129 54.1445C396.848 54.4414 397.418 54.8477 397.84 55.3633C398.262 55.8711 398.473 56.5391 398.473 57.3672C398.473 57.9297 398.348 58.4453 398.098 58.9141C397.848 59.3828 397.488 59.793 397.02 60.1445C396.551 60.4883 395.988 60.7578 395.332 60.9531C394.684 61.1406 393.953 61.2344 393.141 61.2344C391.961 61.2344 390.961 61.0234 390.141 60.6016C389.328 60.1797 388.711 59.6445 388.289 58.9961C387.875 58.3398 387.668 57.668 387.668 56.9805H390.867C390.883 57.4414 391 57.8125 391.219 58.0938C391.445 58.375 391.73 58.5781 392.074 58.7031C392.426 58.8281 392.805 58.8906 393.211 58.8906C393.648 58.8906 394.012 58.832 394.301 58.7148C394.59 58.5898 394.809 58.4258 394.957 58.2227C395.113 58.0117 395.191 57.7695 395.191 57.4961Z" fill="#888888"/>
<path d="M118.594 98.4219V104.75H101.086V98.4219H118.594ZM103.828 84.875V119H95.6016V84.875H103.828ZM124.125 84.875V119H115.922V84.875H124.125ZM127.992 106.578V106.086C127.992 104.227 128.258 102.516 128.789 100.953C129.32 99.375 130.102 98.0078 131.133 96.8516C132.164 95.6953 133.438 94.7969 134.953 94.1562C136.469 93.5 138.219 93.1719 140.203 93.1719C142.203 93.1719 143.961 93.5 145.477 94.1562C147.008 94.7969 148.289 95.6953 149.32 96.8516C150.352 98.0078 151.133 99.375 151.664 100.953C152.195 102.516 152.461 104.227 152.461 106.086V106.578C152.461 108.422 152.195 110.133 151.664 111.711C151.133 113.273 150.352 114.641 149.32 115.812C148.289 116.969 147.016 117.867 145.5 118.508C143.984 119.148 142.234 119.469 140.25 119.469C138.266 119.469 136.508 119.148 134.977 118.508C133.445 117.867 132.164 116.969 131.133 115.812C130.102 114.641 129.32 113.273 128.789 111.711C128.258 110.133 127.992 108.422 127.992 106.578ZM135.891 106.086V106.578C135.891 107.531 135.961 108.422 136.102 109.25C136.242 110.078 136.477 110.805 136.805 111.43C137.133 112.039 137.578 112.516 138.141 112.859C138.703 113.203 139.406 113.375 140.25 113.375C141.078 113.375 141.766 113.203 142.312 112.859C142.875 112.516 143.32 112.039 143.648 111.43C143.977 110.805 144.211 110.078 144.352 109.25C144.492 108.422 144.562 107.531 144.562 106.578V106.086C144.562 105.164 144.492 104.297 144.352 103.484C144.211 102.656 143.977 101.93 143.648 101.305C143.32 100.664 142.875 100.164 142.312 99.8047C141.75 99.4453 141.047 99.2656 140.203 99.2656C139.375 99.2656 138.68 99.4453 138.117 99.8047C137.57 100.164 137.133 100.664 136.805 101.305C136.477 101.93 136.242 102.656 136.102 103.484C135.961 104.297 135.891 105.164 135.891 106.086ZM163.688 111.453L168.375 93.6406H173.32L171.562 102.57L166.922 119H162.961L163.688 111.453ZM161.836 93.6406L164.742 111.312L165.07 119H160.266L154.266 93.6406H161.836ZM177.492 110.938L180.422 93.6406H187.992L182.039 119H177.234L177.492 110.938ZM173.883 93.6406L178.617 111.406L179.344 119H175.336L170.789 102.617L169.102 93.6406H173.883ZM218.297 84.875V119H210.07V84.875H218.297ZM228.562 84.875V91.2266H200.039V84.875H228.562ZM225.773 106.578V106.086C225.773 104.227 226.039 102.516 226.57 100.953C227.102 99.375 227.883 98.0078 228.914 96.8516C229.945 95.6953 231.219 94.7969 232.734 94.1562C234.25 93.5 236 93.1719 237.984 93.1719C239.984 93.1719 241.742 93.5 243.258 94.1562C244.789 94.7969 246.07 95.6953 247.102 96.8516C248.133 98.0078 248.914 99.375 249.445 100.953C249.977 102.516 250.242 104.227 250.242 106.086V106.578C250.242 108.422 249.977 110.133 249.445 111.711C248.914 113.273 248.133 114.641 247.102 115.812C246.07 116.969 244.797 117.867 243.281 118.508C241.766 119.148 240.016 119.469 238.031 119.469C236.047 119.469 234.289 119.148 232.758 118.508C231.227 117.867 229.945 116.969 228.914 115.812C227.883 114.641 227.102 113.273 226.57 111.711C226.039 110.133 225.773 108.422 225.773 106.578ZM233.672 106.086V106.578C233.672 107.531 233.742 108.422 233.883 109.25C234.023 110.078 234.258 110.805 234.586 111.43C234.914 112.039 235.359 112.516 235.922 112.859C236.484 113.203 237.188 113.375 238.031 113.375C238.859 113.375 239.547 113.203 240.094 112.859C240.656 112.516 241.102 112.039 241.43 111.43C241.758 110.805 241.992 110.078 242.133 109.25C242.273 108.422 242.344 107.531 242.344 106.578V106.086C242.344 105.164 242.273 104.297 242.133 103.484C241.992 102.656 241.758 101.93 241.43 101.305C241.102 100.664 240.656 100.164 240.094 99.8047C239.531 99.4453 238.828 99.2656 237.984 99.2656C237.156 99.2656 236.461 99.4453 235.898 99.8047C235.352 100.164 234.914 100.664 234.586 101.305C234.258 101.93 234.023 102.656 233.883 103.484C233.742 104.297 233.672 105.164 233.672 106.086ZM266.086 84.875H279.516C282.141 84.875 284.422 85.2656 286.359 86.0469C288.297 86.8281 289.789 87.9844 290.836 89.5156C291.898 91.0469 292.43 92.9375 292.43 95.1875C292.43 97.1406 292.125 98.7734 291.516 100.086C290.906 101.398 290.055 102.484 288.961 103.344C287.883 104.188 286.625 104.883 285.188 105.43L282.492 106.953H271.219L271.172 100.602H279.516C280.562 100.602 281.43 100.414 282.117 100.039C282.805 99.6641 283.32 99.1328 283.664 98.4453C284.023 97.7422 284.203 96.9062 284.203 95.9375C284.203 94.9531 284.023 94.1094 283.664 93.4062C283.305 92.7031 282.773 92.1641 282.07 91.7891C281.383 91.4141 280.531 91.2266 279.516 91.2266H274.312V119H266.086V84.875ZM284.766 119L277.219 103.906L285.938 103.859L293.578 118.648V119H284.766ZM311.836 112.836V93.6406H319.758V119H312.352L311.836 112.836ZM312.586 107.68L314.648 107.633C314.648 109.336 314.445 110.914 314.039 112.367C313.633 113.805 313.031 115.055 312.234 116.117C311.453 117.18 310.484 118.008 309.328 118.602C308.188 119.18 306.867 119.469 305.367 119.469C304.117 119.469 302.969 119.297 301.922 118.953C300.891 118.594 300 118.039 299.25 117.289C298.5 116.523 297.914 115.547 297.492 114.359C297.086 113.156 296.883 111.719 296.883 110.047V93.6406H304.781V110.094C304.781 110.656 304.852 111.141 304.992 111.547C305.133 111.953 305.336 112.297 305.602 112.578C305.867 112.844 306.195 113.047 306.586 113.188C306.992 113.312 307.453 113.375 307.969 113.375C309.156 113.375 310.086 113.125 310.758 112.625C311.43 112.125 311.898 111.445 312.164 110.586C312.445 109.727 312.586 108.758 312.586 107.68ZM331.875 99.0547V119H323.977V93.6406H331.383L331.875 99.0547ZM330.938 105.453L329.086 105.5C329.086 103.562 329.32 101.836 329.789 100.32C330.258 98.7891 330.922 97.4922 331.781 96.4297C332.641 95.3672 333.664 94.5625 334.852 94.0156C336.055 93.4531 337.391 93.1719 338.859 93.1719C340.031 93.1719 341.102 93.3438 342.07 93.6875C343.055 94.0312 343.898 94.5859 344.602 95.3516C345.32 96.1172 345.867 97.1328 346.242 98.3984C346.633 99.6484 346.828 101.195 346.828 103.039V119H338.883V103.016C338.883 102 338.742 101.227 338.461 100.695C338.18 100.148 337.773 99.7734 337.242 99.5703C336.711 99.3672 336.062 99.2656 335.297 99.2656C334.484 99.2656 333.797 99.4219 333.234 99.7344C332.672 100.047 332.219 100.484 331.875 101.047C331.547 101.594 331.305 102.242 331.148 102.992C331.008 103.742 330.938 104.562 330.938 105.453ZM363.773 108.195H357.047C357.047 106.82 357.141 105.609 357.328 104.562C357.531 103.5 357.875 102.547 358.359 101.703C358.844 100.859 359.5 100.078 360.328 99.3594C361.062 98.75 361.695 98.1641 362.227 97.6016C362.758 97.0391 363.164 96.4688 363.445 95.8906C363.727 95.3125 363.867 94.6953 363.867 94.0391C363.867 93.2266 363.75 92.5625 363.516 92.0469C363.297 91.5312 362.961 91.1484 362.508 90.8984C362.07 90.6328 361.516 90.5 360.844 90.5C360.297 90.5 359.781 90.6328 359.297 90.8984C358.828 91.1641 358.445 91.5781 358.148 92.1406C357.852 92.6875 357.688 93.4141 357.656 94.3203H349.711C349.758 91.9922 350.273 90.1016 351.258 88.6484C352.258 87.1797 353.586 86.1094 355.242 85.4375C356.914 84.75 358.781 84.4062 360.844 84.4062C363.125 84.4062 365.086 84.7578 366.727 85.4609C368.367 86.1641 369.625 87.2109 370.5 88.6016C371.375 89.9766 371.812 91.6719 371.812 93.6875C371.812 95.0312 371.555 96.2031 371.039 97.2031C370.539 98.1875 369.859 99.1094 369 99.9688C368.156 100.812 367.211 101.719 366.164 102.688C365.258 103.484 364.641 104.297 364.312 105.125C363.984 105.938 363.805 106.961 363.773 108.195ZM356.086 115.32C356.086 114.195 356.492 113.258 357.305 112.508C358.117 111.742 359.172 111.359 360.469 111.359C361.766 111.359 362.82 111.742 363.633 112.508C364.445 113.258 364.852 114.195 364.852 115.32C364.852 116.445 364.445 117.391 363.633 118.156C362.82 118.906 361.766 119.281 360.469 119.281C359.172 119.281 358.117 118.906 357.305 118.156C356.492 117.391 356.086 116.445 356.086 115.32Z" fill="black"/>
<path d="M1134 0H1348C1356.28 0 1363 6.71573 1363 15V148C1363 156.284 1356.28 163 1348 163H1134V0Z" fill="#00B0DC"/>
<path d="M1260.62 78.8078C1263.81 78.8078 1266.93 79.7552 1269.59 81.5302C1272.25 83.3052 1274.32 85.8281 1275.54 88.7798C1276.76 91.7315 1277.08 94.9795 1276.46 98.1131C1275.84 101.247 1274.3 104.125 1272.04 106.384C1269.78 108.643 1266.9 110.182 1263.77 110.805C1260.63 111.428 1257.39 111.108 1254.43 109.886C1251.48 108.663 1248.96 106.593 1247.18 103.936C1245.41 101.28 1244.46 98.1565 1244.46 94.9616C1244.46 90.6774 1246.16 86.5686 1249.19 83.5392C1252.22 80.5097 1256.33 78.8078 1260.62 78.8078ZM1260.62 73.4232C1256.36 73.4232 1252.19 74.6864 1248.65 77.0531C1245.11 79.4198 1242.35 82.7836 1240.72 86.7192C1239.09 90.6549 1238.66 94.9855 1239.49 99.1636C1240.32 103.342 1242.37 107.179 1245.39 110.192C1248.4 113.204 1252.24 115.255 1256.41 116.086C1260.59 116.917 1264.92 116.491 1268.86 114.861C1272.79 113.23 1276.16 110.47 1278.52 106.928C1280.89 103.386 1282.15 99.2215 1282.15 94.9616C1282.15 89.2493 1279.88 83.7709 1275.85 79.7317C1271.81 75.6924 1266.33 73.4232 1260.62 73.4232Z" fill="white"/>
<path d="M1274.08 46.4999H1220.23C1218.8 46.4999 1217.43 47.0672 1216.42 48.0771C1215.41 49.0869 1214.85 50.4565 1214.85 51.8845V105.731C1214.85 107.159 1215.41 108.528 1216.42 109.538C1217.43 110.548 1218.8 111.115 1220.23 111.115H1231V105.731H1220.23V68.0383H1279.46V51.8845C1279.46 50.4565 1278.89 49.0869 1277.88 48.0771C1276.87 47.0672 1275.5 46.4999 1274.08 46.4999ZM1220.23 62.6537V51.8845H1274.08V62.6537H1220.23Z" fill="white"/>
<path d="M1255.23 86.8848V103.039L1268.69 94.9617L1255.23 86.8848Z" fill="white"/>
</svg>
